<svg width="20" height="20" viewBox="0 0 20 20" fill="none" xmlns="http://www.w3.org/2000/svg">
<g clip-path="url(#clip0_2544_777)">
<path d="M19.275 15.075L17.9333 16.4167C17.7667 16.5833 17.5583 16.6583 17.3417 16.6583C17.125 16.6583 16.9167 16.575 16.75 16.4167C16.425 16.0917 16.425 15.5667 16.75 15.2417L17.825 14.1667H11.6583C11.2 14.1667 10.825 13.7917 10.825 13.3333C10.825 12.875 11.2 12.5 11.6583 12.5H17.825L16.75 11.425C16.425 11.1 16.425 10.575 16.75 10.25C17.075 9.925 17.6 9.925 17.925 10.25L19.2667 11.5917C20.225 12.55 20.225 14.1167 19.2667 15.0833L19.275 15.075ZM10.8333 6.66667H16.2833C15.9917 5.90833 15.55 5.20833 14.9583 4.61667L12.0583 1.70833C11.4667 1.11667 10.7667 0.675 10.0083 0.383333V5.83333C10.0083 6.29167 10.3833 6.66667 10.8417 6.66667H10.8333ZM14.8417 15.8333H11.6667C10.2917 15.8333 9.16667 14.7083 9.16667 13.3333C9.16667 11.9583 10.2917 10.8333 11.6667 10.8333H14.8417C14.8417 10.1917 15.0833 9.55 15.575 9.06667C15.8833 8.75833 16.2583 8.54167 16.65 8.43333V8.33333H10.8333C9.45833 8.33333 8.33333 7.20833 8.33333 5.83333V0.0166667C8.2 0.00833333 8.06667 0 7.925 0H4.16667C1.86667 0 0 1.86667 0 4.16667V15.8333C0 18.1333 1.86667 20 4.16667 20H12.5C14.0083 20 15.3333 19.1917 16.0667 17.9833C15.8917 17.875 15.725 17.75 15.575 17.6C15.0917 17.1167 14.8417 16.475 14.8417 15.8333Z" fill="white"/>
</g>
<defs>
<clipPath id="clip0_2544_777">
<rect width="20" height="20" fill="white"/>
</clipPath>
</defs>
</svg>
