<svg width="20" height="20" viewBox="0 0 20 20" fill="none" xmlns="http://www.w3.org/2000/svg">
<path d="M8.31598 9.15113C10.1592 9.15113 11.6534 7.65689 11.6534 5.81366C11.6534 3.97043 10.1592 2.4762 8.31598 2.4762C6.47275 2.4762 4.97852 3.97043 4.97852 5.81366C4.97852 7.65689 6.47275 9.15113 8.31598 9.15113Z" fill="white"/>
<path d="M19.756 18.5712L14.7831 13.5983C16.1344 11.9432 16.798 9.83204 16.6367 7.70144C16.4754 5.57083 15.5016 3.58366 13.9166 2.15077C12.3315 0.717876 10.2565 -0.0511634 8.12046 0.00264456C5.98443 0.0564525 3.95075 0.928993 2.43987 2.43987C0.928993 3.95075 0.0564525 5.98443 0.00264456 8.12046C-0.0511634 10.2565 0.717876 12.3315 2.15077 13.9166C3.58366 15.5016 5.57083 16.4754 7.70144 16.6367C9.83204 16.798 11.9432 16.1344 13.5983 14.7831L18.5712 19.756C18.7293 19.9111 18.942 19.9979 19.1636 19.9979C19.3851 19.9979 19.5978 19.9111 19.756 19.756C19.9123 19.5984 20 19.3855 20 19.1636C20 18.9416 19.9123 18.7287 19.756 18.5712ZM8.31679 9.98553C7.32161 9.98428 6.34897 10.2819 5.52483 10.8397C4.70069 11.3976 4.06302 12.19 3.6944 13.1144C3.04442 12.496 2.52722 11.7517 2.17433 10.9269C1.82144 10.102 1.64027 9.21395 1.64186 8.31679C1.63998 7.21827 1.90925 6.13627 2.42579 5.16676C2.94232 4.19725 3.69016 3.37021 4.60295 2.75901C5.51574 2.14781 6.56527 1.77133 7.65843 1.66299C8.7516 1.55464 9.85461 1.71777 10.8696 2.1379C11.8846 2.55803 12.7803 3.22218 13.4771 4.07143C14.1739 4.92068 14.6503 5.92878 14.8641 7.00629C15.0779 8.08381 15.0224 9.19744 14.7027 10.2484C14.3829 11.2993 13.8087 12.2551 13.031 13.031C13.0025 13.061 12.9718 13.0889 12.9392 13.1144C12.5706 12.19 11.9329 11.3976 11.1088 10.8397C10.2846 10.2819 9.31198 9.98428 8.31679 9.98553Z" fill="white"/>
</svg>
