<svg width="20" height="20" viewBox="0 0 20 20" fill="none" xmlns="http://www.w3.org/2000/svg">
<path d="M10 0C8.02219 0 6.08879 0.58649 4.4443 1.6853C2.79981 2.78412 1.51809 4.3459 0.761209 6.17316C0.00433288 8.00043 -0.1937 10.0111 0.192152 11.9509C0.578004 13.8907 1.53041 15.6725 2.92894 17.0711C4.32746 18.4696 6.10929 19.422 8.0491 19.8078C9.98891 20.1937 11.9996 19.9957 13.8268 19.2388C15.6541 18.4819 17.2159 17.2002 18.3147 15.5557C19.4135 13.9112 20 11.9778 20 10C19.9969 7.34879 18.9423 4.80707 17.0676 2.93239C15.1929 1.0577 12.6512 0.0031277 10 0ZM14.5455 10.9091H10.9091V14.5455C10.9091 14.7866 10.8133 15.0178 10.6428 15.1883C10.4723 15.3588 10.2411 15.4545 10 15.4545C9.7589 15.4545 9.52767 15.3588 9.35718 15.1883C9.18669 15.0178 9.09091 14.7866 9.09091 14.5455V10.9091H5.45455C5.21344 10.9091 4.98221 10.8133 4.81172 10.6428C4.64124 10.4723 4.54546 10.2411 4.54546 10C4.54546 9.75889 4.64124 9.52766 4.81172 9.35717C4.98221 9.18669 5.21344 9.09091 5.45455 9.09091H9.09091V5.45454C9.09091 5.21344 9.18669 4.98221 9.35718 4.81172C9.52767 4.64123 9.7589 4.54545 10 4.54545C10.2411 4.54545 10.4723 4.64123 10.6428 4.81172C10.8133 4.98221 10.9091 5.21344 10.9091 5.45454V9.09091H14.5455C14.7866 9.09091 15.0178 9.18669 15.1883 9.35717C15.3588 9.52766 15.4545 9.75889 15.4545 10C15.4545 10.2411 15.3588 10.4723 15.1883 10.6428C15.0178 10.8133 14.7866 10.9091 14.5455 10.9091Z" fill="white"/>
</svg>
