<svg width="15" height="16" viewBox="0 0 15 16" fill="none" xmlns="http://www.w3.org/2000/svg">
<path d="M7.13827 0.275879C4.67713 0.275879 2.66945 2.29043 2.66945 4.75156C2.66945 6.25603 3.42227 7.58901 4.56794 8.39983C1.8957 9.47056 0 12.0833 0 15.132C0.00408894 15.3162 0.0801484 15.4915 0.211893 15.6203C0.343638 15.7492 0.520596 15.8214 0.704878 15.8214C0.88916 15.8214 1.06612 15.7492 1.19786 15.6203C1.32961 15.4915 1.40567 15.3162 1.40976 15.132C1.40976 11.8965 4.01847 9.28919 7.25391 9.28919C8.38331 9.28919 9.43167 9.61116 10.324 10.1634C10.403 10.2125 10.4909 10.2455 10.5827 10.2605C10.6745 10.2756 10.7683 10.2724 10.8589 10.2511C10.9494 10.2298 11.0349 10.1909 11.1103 10.1365C11.1858 10.0822 11.2498 10.0135 11.2987 9.9344C11.3476 9.85528 11.3804 9.76727 11.3952 9.67546C11.4101 9.58364 11.4066 9.48976 11.3852 9.39927C11.3637 9.30878 11.3245 9.2234 11.27 9.14805C11.2155 9.0727 11.1467 9.00886 11.0674 8.96016C10.6653 8.71133 10.2288 8.51653 9.77881 8.34893C10.8875 7.53395 11.614 6.22601 11.614 4.75156C11.614 2.29043 9.5994 0.275879 7.13827 0.275879ZM7.13827 1.68696C8.83751 1.68696 10.2042 3.05231 10.2042 4.75156C10.2042 6.45081 8.83751 7.81063 7.13827 7.81063C5.43902 7.81063 4.07921 6.45081 4.07921 4.75156C4.07921 3.05231 5.43902 1.68696 7.13827 1.68696ZM14.2724 10.1469C14.1578 10.1502 14.0458 10.1814 13.946 10.2377C13.8462 10.2941 13.7617 10.374 13.6997 10.4704L11.2698 14.1119L9.74577 13.0917C9.66849 13.0397 9.58171 13.0035 9.49041 12.9852C9.39912 12.9668 9.3051 12.9666 9.21374 12.9847C9.12238 13.0027 9.03549 13.0387 8.95803 13.0904C8.88057 13.1421 8.81408 13.2086 8.76236 13.286C8.71064 13.3634 8.67472 13.4503 8.65664 13.5416C8.63856 13.633 8.63869 13.7271 8.65702 13.8184C8.67535 13.9097 8.71152 13.9964 8.76345 14.0737C8.81539 14.151 8.88206 14.2173 8.95966 14.2688L11.0784 15.6786C11.1556 15.7298 11.2421 15.7653 11.333 15.783C11.4239 15.8008 11.5175 15.8004 11.6082 15.782C11.699 15.7636 11.7853 15.7275 11.8621 15.6757C11.9389 15.624 12.0048 15.5576 12.0559 15.4803L14.8768 11.2497C14.9504 11.1422 14.9927 11.0165 14.9991 10.8864C15.0056 10.7563 14.9758 10.6269 14.9132 10.5127C14.8506 10.3985 14.7576 10.3039 14.6445 10.2393C14.5314 10.1747 14.4026 10.1427 14.2724 10.1469Z" fill="#28A745"/>
</svg>
