<svg width="15" height="15" viewBox="0 0 15 15" fill="none" xmlns="http://www.w3.org/2000/svg">
<path d="M11.875 0H3.12501C1.39998 0.00208008 0.00208008 1.39998 0 3.12501V11.875C0.00208008 13.6 1.39998 14.9979 3.12501 15H11.875C13.6 14.9979 14.9979 13.6 15 11.875V3.12501C14.9979 1.39998 13.6 0.00208008 11.875 0ZM12.5 5.04938L6.71625 10.8331C6.22819 11.3214 5.43674 11.3215 4.94848 10.8335C4.94836 10.8334 4.94824 10.8333 4.94812 10.8331L2.49999 8.38564C2.25542 8.14107 2.25542 7.74457 2.49999 7.50003C2.74456 7.25549 3.14106 7.25546 3.38561 7.50003L5.8331 9.94752L11.6175 4.16376C11.862 3.92007 12.2578 3.92077 12.5015 4.16531C12.7453 4.40988 12.7446 4.80568 12.5 5.04938Z" fill="#28A745"/>
</svg>
