<svg width="16" height="16" viewBox="0 0 16 16" fill="none" xmlns="http://www.w3.org/2000/svg">
<path d="M12.9634 10.7788L12.5872 10.2136L12.2512 10.301C10.4642 10.7642 8.584 11 6.6624 11C4.748 11 2.8708 10.7642 1.0824 10.3008L0.7462 10.2134L0.37 10.7786C0.1664 11.0834 0 11.6328 0 12V16H1.3334L2 14.6666H11.3334L12 16H13.3334V12C13.3334 11.6328 13.1666 11.0834 12.9634 10.7788ZM3.3334 13.3334H1.6668V12.3334H3.3334V13.3334ZM8.6666 13.3334H4.6666V12.3334H8.6666V13.3334ZM11.6666 13.3334H10V12.3334H11.6666V13.3334Z" fill="#374957"/>
<path d="M6.844 5.33978C5.4004 5.32538 3.9788 5.49338 2.6666 5.83318L1.8412 7.99998H0V8.99998L1.3334 9.33338C4.889 10.2552 8.7032 10.1888 12 9.33338C9.5228 9.33338 7.4408 7.63278 6.844 5.33978Z" fill="#374957"/>
<path d="M12 0C9.7904 0 8 1.7904 8 4C8 6.2096 9.7904 8 12 8C14.2096 8 16 6.2096 16 4C16 1.7904 14.2096 0 12 0ZM14 4.5H12.5V6H11.5V4.5H10V3.5H11.5V2H12.5V3.5H14V4.5Z" fill="#374957"/>
</svg>
