<svg width="21" height="29" viewBox="0 0 21 29" fill="none" xmlns="http://www.w3.org/2000/svg">
<path d="M7.55556 20.75H13.1111M7.55556 15.1944H13.1111M11.7222 2H8.94444M18.6667 22.5556V7.83334C18.6667 6.27764 18.6667 5.49972 18.3639 4.90556C18.0976 4.38292 17.6726 3.95792 17.15 3.69167C16.5558 3.38889 15.7779 3.38889 14.2222 3.38889H6.44444C4.88875 3.38889 4.11089 3.38889 3.51669 3.69167C2.99401 3.95792 2.56907 4.38292 2.30276 4.90556C2 5.49972 2 6.27764 2 7.83334L2 22.5556C2 24.1113 2 24.8891 2.30276 25.4833C2.56907 26.006 2.99401 26.4309 3.51669 26.6972C4.11089 27 4.88874 27 6.44444 27H14.2222C15.7779 27 16.5558 27 17.15 26.6972C17.6726 26.4309 18.0976 26.006 18.3639 25.4833C18.6667 24.8891 18.6667 24.1113 18.6667 22.5556Z" stroke="#28A745" stroke-width="3" stroke-linecap="round" stroke-linejoin="round"/>
</svg>
