<svg width="24" height="26" viewBox="0 0 24 26" fill="none" xmlns="http://www.w3.org/2000/svg">
<path d="M22.7217 18.5056C21.118 16.6923 19.9858 15.7692 19.9858 10.7702C19.9858 6.19231 17.4555 4.56135 15.3729 3.76923C15.0962 3.66423 14.8358 3.42308 14.7515 3.16058C14.3862 2.01192 13.3621 1 12.0007 1C10.6394 1 9.61464 2.0125 9.25308 3.16173C9.16877 3.42712 8.90837 3.66423 8.63173 3.76923C6.54662 4.5625 4.01876 6.18769 4.01876 10.7702C4.01564 15.7692 2.88348 16.6923 1.27984 18.5056C0.615401 19.2567 1.19741 20.3846 2.35955 20.3846H21.6482C22.8041 20.3846 23.3823 19.2533 22.7217 18.5056Z" stroke="#8D898A" stroke-width="1.5" stroke-linecap="round" stroke-linejoin="round"/>
<path d="M15.9971 20.3846V21.3077C15.9971 22.287 15.5761 23.2261 14.8265 23.9185C14.077 24.611 13.0605 25 12.0005 25C10.9406 25 9.924 24.611 9.17449 23.9185C8.42498 23.2261 8.00391 22.287 8.00391 21.3077V20.3846" stroke="#8D898A" stroke-width="1.5" stroke-linecap="round" stroke-linejoin="round"/>
</svg>
