<svg width="50" height="28" viewBox="0 0 50 28" fill="none" xmlns="http://www.w3.org/2000/svg">
<path d="M42.8523 13.0961C41.9623 13.0961 41.0958 13.2597 40.272 13.5808L39.8789 12.9404L44.5822 12.3136C44.6458 12.3048 46.1481 12.1103 46.3496 10.9891C46.706 9.0029 42.5087 5.79433 33.5168 1.17677C32.6928 0.794124 32.0922 0.607605 31.6807 0.607605C31.1898 0.607605 31.0041 0.871155 30.9371 1.02619C30.5741 1.86309 32.2076 4.06343 33.8129 5.93572C32.047 4.99727 29.1689 3.73719 26.4462 3.73719C25.0765 3.73719 23.8807 4.05841 22.8917 4.69194C22.108 5.19215 21.111 6.51116 19.9186 8.61148C19.8663 8.52832 19.7811 8.47009 19.684 8.45379L12.6144 7.20249L11.6294 4.24563C11.5901 4.12527 11.4889 4.03863 11.3638 4.01272C11.2282 3.98709 8.0088 3.36276 5.1117 3.36276C1.92152 3.36276 0.205938 4.10633 0.0106432 5.57104C-0.445973 9.02017 13.9254 13.5947 16.9826 14.527C16.2675 16.1238 15.7002 17.4839 15.4038 18.2141C14.513 15.2286 11.6892 13.0963 8.55791 13.0963C4.61776 13.0963 1.41002 16.3044 1.41002 20.2467C1.41002 24.1871 4.61776 27.3925 8.55791 27.3925C11.7113 27.3925 14.5147 25.2913 15.4063 22.2725H32.2989C32.4135 22.2725 32.5238 22.2148 32.5883 22.1194L37.7852 14.4842L38.0637 14.9377C36.5623 16.2934 35.7041 18.2214 35.7041 20.2457C35.7041 24.187 38.911 27.3915 42.8524 27.3915C46.7939 27.3915 50.0001 24.187 50.0001 20.2457C49.9999 16.3044 46.7927 13.0961 42.8523 13.0961ZM40.7637 7.41088C40.9009 7.22143 41.1676 7.12476 41.56 7.12476C41.8294 7.12476 42.153 7.16989 42.5236 7.26141C45.4353 9.37385 45.7398 10.4248 45.6628 10.8657C45.5541 11.4784 44.5059 11.6206 44.4934 11.6214L42.2349 11.923C41.4487 10.6842 40.1824 8.23301 40.7637 7.41088ZM12.9927 19.5113C12.9288 19.5934 12.8258 19.6426 12.7197 19.6426H7.65067V21.5731H12.4892C12.6053 21.5731 12.7155 21.6307 12.7793 21.7312C12.8446 21.8281 12.8568 21.9538 12.8086 22.0598C12.0796 23.7653 10.41 24.8677 8.55694 24.8677C6.00697 24.8677 3.93311 22.7933 3.93311 20.2464C3.93311 17.6945 6.0071 15.6216 8.55694 15.6216C10.7264 15.6216 12.5757 17.1005 13.0604 19.2151C13.0852 19.3206 13.0604 19.4285 12.9927 19.5113ZM42.8523 24.8679C40.3036 24.8679 38.23 22.7935 38.23 20.2457C38.23 18.9959 38.7219 17.8232 39.6185 16.9451C39.6964 16.868 39.8025 16.8279 39.9122 16.8471C40.0108 16.8598 40.1054 16.92 40.1614 17.0104L42.1606 20.2591L43.1777 19.6335L41.1793 16.3847C41.1259 16.2959 41.1125 16.1848 41.1476 16.0837C41.1835 15.9832 41.2638 15.9047 41.3642 15.8712C41.8492 15.7056 42.3504 15.6202 42.853 15.6202C45.4009 15.6202 47.4753 17.6948 47.4753 20.245C47.4738 22.7936 45.3992 24.8679 42.8523 24.8679Z" fill="black"/>
</svg>
