<svg width="20" height="20" viewBox="0 0 20 20" fill="none" xmlns="http://www.w3.org/2000/svg">
<g clip-path="url(#clip0_3371_260)">
<path d="M20 10.0002C20 4.47686 15.5228 6.10352e-05 10.0002 6.10352e-05C4.4772 6.10352e-05 0 4.47686 0 10.0002C0 15.5227 4.4772 19.9998 10.0002 19.9998C15.5228 19.9998 20 15.5227 20 10.0002Z" fill="#25B7D3"/>
<path d="M5.57129 6.99747C5.57129 6.43656 5.75135 5.8682 6.11156 5.29249C6.47165 4.71679 6.99729 4.24001 7.68811 3.86206C8.37898 3.48424 9.18498 3.29523 10.1061 3.29523C10.9622 3.29523 11.7181 3.45328 12.3735 3.76907C13.029 4.08502 13.5352 4.5146 13.8925 5.05777C14.2497 5.60111 14.4283 6.19148 14.4283 6.82918C14.4283 7.33112 14.3265 7.7711 14.1228 8.14888C13.919 8.52683 13.6769 8.85305 13.3965 9.12756C13.1159 9.40215 12.6126 9.86422 11.8863 10.5137C11.6856 10.6968 11.5246 10.8578 11.4036 10.9965C11.2825 11.1353 11.1924 11.2622 11.1335 11.3773C11.0744 11.4925 11.0285 11.6076 10.9962 11.7227C10.9636 11.8378 10.9149 12.0402 10.8501 12.3294C10.7378 12.9436 10.3864 13.2506 9.79607 13.2506C9.48899 13.2506 9.23061 13.1503 9.02108 12.9494C8.81143 12.7487 8.70666 12.4505 8.70666 12.0549C8.70666 11.5589 8.78333 11.1293 8.93695 10.7662C9.09045 10.403 9.29414 10.0842 9.54809 9.80964C9.80188 9.53505 10.1444 9.20887 10.5755 8.83092C10.9533 8.5003 11.2265 8.25079 11.3948 8.08249C11.5631 7.9142 11.7048 7.72684 11.8199 7.52005C11.9351 7.31342 11.9927 7.0891 11.9927 6.84692C11.9927 6.37457 11.8169 5.97603 11.4657 5.65121C11.1143 5.32656 10.661 5.16407 10.1061 5.16407C9.45646 5.16407 8.97819 5.32793 8.67123 5.65564C8.36415 5.98336 8.10439 6.46607 7.8918 7.10377C7.69102 7.7711 7.31013 8.10462 6.74922 8.10462C6.41844 8.10462 6.13945 7.98809 5.91223 7.75477C5.68492 7.52154 5.57129 7.26912 5.57129 6.99747ZM9.89354 16.7049C9.53329 16.7049 9.21888 16.5882 8.95025 16.355C8.68151 16.1218 8.54724 15.7956 8.54724 15.3763C8.54724 15.0043 8.67703 14.6914 8.93695 14.4374C9.19671 14.1836 9.51556 14.0566 9.8935 14.0566C10.2655 14.0566 10.5784 14.1836 10.8324 14.4374C11.0861 14.6914 11.2132 15.0043 11.2132 15.3763C11.2132 15.7897 11.0803 16.1144 10.8146 16.3506C10.5489 16.5867 10.2419 16.7049 9.89354 16.7049Z" fill="white"/>
</g>
<defs>
<clipPath id="clip0_3371_260">
<rect width="20" height="20" fill="white"/>
</clipPath>
</defs>
</svg>
