<svg width="58" height="22" viewBox="0 0 58 22" fill="none" xmlns="http://www.w3.org/2000/svg">
<path d="M47.9966 12.6272C50.4619 12.6272 52.4609 14.5712 52.4609 16.9717C52.4609 17.1576 52.4455 17.3391 52.4215 17.5184C52.1452 19.66 50.2714 21.3173 47.9966 21.3173C45.6589 21.3173 43.7445 19.5681 43.5506 17.3419C43.5403 17.2189 43.5311 17.0969 43.5311 16.9706C43.5306 14.5718 45.5297 12.6272 47.9966 12.6272ZM50.2325 15.3344L49.3213 16.2213C49.3923 16.3398 49.4477 16.4668 49.4832 16.6037H50.7673C50.7004 16.1294 50.5133 15.698 50.2325 15.3344ZM50.7713 17.3553H49.4786C49.442 17.4883 49.3882 17.6163 49.3173 17.7321L50.2302 18.6201C50.5116 18.2588 50.7032 17.8262 50.7713 17.3553ZM48.3821 19.6717C48.8655 19.6066 49.3053 19.4223 49.6771 19.1489L48.7694 18.2655C48.6504 18.3334 48.5188 18.3829 48.3821 18.4174V19.6717ZM48.3821 15.5265C48.5228 15.561 48.6544 15.6161 48.7768 15.6868L49.6862 14.8011C49.3127 14.525 48.8689 14.3418 48.3821 14.2761V15.5265ZM47.6088 14.2761C47.1215 14.3418 46.6782 14.525 46.3047 14.8017L47.2141 15.6868C47.3365 15.6161 47.4681 15.561 47.6088 15.5265V14.2761ZM47.6088 19.6711V18.4174C47.4715 18.3824 47.3411 18.3328 47.2216 18.2643L46.3133 19.1489C46.6856 19.4206 47.1261 19.6054 47.6088 19.6711ZM45.759 18.6234L46.6748 17.731C46.6038 17.6147 46.5449 17.4894 46.5083 17.3547H45.2254C45.294 17.8262 45.4776 18.2616 45.759 18.6234ZM46.5083 16.6026C46.5443 16.4668 46.5993 16.3387 46.6702 16.2201L45.759 15.3333C45.477 15.6968 45.2911 16.1288 45.2242 16.6015L46.5083 16.6026Z" fill="black"/>
<path d="M10.4126 12.6272C12.8779 12.6272 14.877 14.5712 14.877 16.9717C14.877 17.1576 14.8615 17.3391 14.8375 17.5184C14.5618 19.66 12.6874 21.3173 10.4132 21.3173C8.07551 21.3173 6.16051 19.5681 5.96718 17.3419C5.95688 17.2189 5.94773 17.0969 5.94773 16.9706C5.94659 14.5718 7.94567 12.6272 10.4126 12.6272ZM12.6491 15.3344L11.7373 16.2213C11.8083 16.3398 11.8643 16.4668 11.8992 16.6037H13.1833C13.1164 16.1294 12.9299 15.698 12.6491 15.3344ZM13.1873 17.3553H11.8946C11.858 17.4883 11.8043 17.6163 11.7333 17.7321L12.6462 18.6195C12.9271 18.2588 13.1192 17.8262 13.1873 17.3553ZM10.7981 19.6717C11.2815 19.6066 11.7213 19.4223 12.0931 19.1489L11.1854 18.2655C11.0664 18.3334 10.9348 18.3829 10.7981 18.4174V19.6717ZM10.7981 15.5265C10.9389 15.561 11.0704 15.6161 11.1922 15.6868L12.1023 14.8011C11.7288 14.525 11.2843 14.3418 10.7981 14.2761V15.5265ZM10.0254 14.2761C9.53807 14.3418 9.09478 14.525 8.72185 14.8017L9.6313 15.6868C9.7537 15.6161 9.88526 15.561 10.0254 15.5265V14.2761ZM10.0254 19.6711V18.4174C9.88869 18.3824 9.75771 18.3328 9.63816 18.2643L8.72986 19.1489C9.10222 19.4206 9.5415 19.6054 10.0254 19.6711ZM8.1756 18.6234L9.09135 17.731C9.02042 17.6147 8.96151 17.4894 8.9249 17.3547H7.64194C7.71058 17.8262 7.89304 18.2616 8.1756 18.6234ZM8.92376 16.6026C8.95979 16.4668 9.0147 16.3387 9.08563 16.2201L8.17446 15.3333C7.89247 15.6968 7.70658 16.1288 7.63909 16.6015L8.92376 16.6026Z" fill="black"/>
<path d="M0.906033 11.245L1.764 10.4472L1.76229 7.93037C1.76172 7.26957 2.01282 6.6327 2.46754 6.14281L5.63919 2.72411V2.72244C5.65463 2.01209 6.17857 1.41196 6.89583 1.28114C10.6669 0.591388 22.3674 -1.19173 31.6284 1.22992C37.3499 2.72578 43.167 5.73697 43.167 5.73697C43.167 5.73697 53.2682 6.98955 55.6888 10.0603C56.5319 11.1292 56.8854 12.5332 57.0135 13.798C57.1926 15.5655 55.9983 17.1794 54.2188 17.5696L53.2848 17.7745C53.2928 17.725 53.3048 17.6765 53.3111 17.6253C53.342 17.3937 53.3574 17.1777 53.3574 16.9701C53.3574 14.0925 50.9516 11.7516 47.9951 11.7516C45.0379 11.7516 42.6322 14.0925 42.6322 16.9701C42.6322 17.1209 42.6425 17.2668 42.655 17.4143C42.6705 17.5919 42.6962 17.7667 42.73 17.9382L15.662 17.9916C15.6866 17.8703 15.7112 17.7495 15.7272 17.6253C15.7581 17.3937 15.7736 17.1777 15.7736 16.9701C15.7736 14.0925 13.3678 11.7516 10.4112 11.7516C7.45409 11.7516 5.04833 14.0925 5.04833 16.9701C5.04833 17.1209 5.05862 17.2668 5.07121 17.4143C5.08837 17.6175 5.12269 17.8168 5.16387 18.0122L4.79437 18.0128L3.25459 17.1916C1.64847 16.336 0.62233 14.721 0.55312 12.9407L0.522232 12.1619C0.509647 11.8178 0.64864 11.4849 0.906033 11.245ZM37.8458 6.09103L37.4317 4.4805C37.4317 4.4805 31.1622 1.28838 20.6692 1.63576V6.39499L37.4746 7.68542C37.4746 7.68542 37.3842 6.66443 37.8458 6.09103ZM10.918 5.64679L18.82 6.25359V1.73596C16.2214 1.91967 13.3976 2.31883 10.3666 3.0314C10.06 3.10322 9.81409 3.32479 9.71628 3.6165C9.6179 3.90821 9.68196 4.22887 9.88616 4.46268L10.918 5.64679Z" fill="black"/>
</svg>
