<svg width="20" height="23" viewBox="0 0 20 23" fill="none" xmlns="http://www.w3.org/2000/svg">
<path d="M14.6827 0C12.276 0 10.238 1.60493 9.58489 3.79901H0.994682C0.192238 3.79901 -0.279237 4.70452 0.180618 5.36253C0.187742 5.37282 -0.0581469 5.03709 5.95706 13.2445C6.07789 13.4204 6.14173 13.626 6.14173 13.8396V21.7504C6.14173 22.6156 7.13117 23.0967 7.81006 22.5853L10.3742 20.6479C10.7577 20.3623 10.9865 19.9064 10.9865 19.4276V13.8396C10.9865 13.626 11.0504 13.4203 11.1712 13.2444L13.2413 10.4195C16.6311 11.374 20 8.81575 20 5.30889C20 2.38155 17.6147 0 14.6827 0ZM10.0886 12.4622C9.82877 12.817 9.65087 13.3126 9.65087 13.8396C9.65087 19.9159 9.68354 19.4974 9.57607 19.577C9.49104 19.6402 10.0585 19.2124 7.47736 21.1627V13.8396C7.47736 13.3493 7.32924 12.8776 7.04898 12.4752C7.04146 12.4644 7.26816 12.7739 1.66931 5.13459H9.36865C9.30378 7.13144 10.3537 8.91712 11.981 9.87966L10.0886 12.4622ZM14.6827 9.28219C12.4872 9.28219 10.7011 7.4998 10.7011 5.30889C10.7011 3.11802 12.4872 1.33562 14.6827 1.33562C16.8782 1.33562 18.6644 3.11802 18.6644 5.30889C18.6644 7.4998 16.8782 9.28219 14.6827 9.28219Z" fill="white"/>
<path d="M16.4204 3.57488C16.1598 3.31381 15.737 3.31346 15.476 3.57399L14.6833 4.36527L13.8906 3.57399C13.6296 3.31341 13.2067 3.31372 12.9462 3.57488C12.6856 3.83587 12.686 4.25873 12.947 4.51931L13.738 5.30889L12.947 6.09848C12.686 6.35906 12.6856 6.78192 12.9462 7.04291C13.2059 7.30309 13.6287 7.30518 13.8906 7.0438L14.6833 6.25252L15.476 7.0438C15.7362 7.30353 16.1591 7.30478 16.4204 7.04291C16.681 6.78192 16.6806 6.35906 16.4196 6.09848L15.6286 5.30889L16.4196 4.51931C16.6806 4.25873 16.681 3.83587 16.4204 3.57488Z" fill="white"/>
</svg>
