<svg width="30" height="30" viewBox="0 0 30 30" fill="none" xmlns="http://www.w3.org/2000/svg">
<g clip-path="url(#clip0_2728_1058)">
<path d="M15 0C6.72867 0 0 6.72867 0 15C0 23.2713 6.72867 30 15 30C23.2713 30 30 23.2713 30 15C30 6.72867 23.2713 0 15 0Z" fill="#F44336"/>
<path d="M20.5235 18.7562C21.0122 19.2451 21.0122 20.035 20.5235 20.5238C20.2798 20.7676 19.9598 20.8901 19.6396 20.8901C19.3196 20.8901 18.9996 20.7676 18.7559 20.5238L14.9997 16.7674L11.2435 20.5238C10.9998 20.7676 10.6798 20.8901 10.3598 20.8901C10.0396 20.8901 9.71963 20.7676 9.47587 20.5238C8.98721 20.035 8.98721 19.2451 9.47587 18.7562L13.2323 15L9.47587 11.2438C8.98721 10.7549 8.98721 9.96507 9.47587 9.47618C9.96476 8.98751 10.7546 8.98751 11.2435 9.47618L14.9997 13.2326L18.7559 9.47618C19.2448 8.98751 20.0346 8.98751 20.5235 9.47618C21.0122 9.96507 21.0122 10.7549 20.5235 11.2438L16.7671 15L20.5235 18.7562Z" fill="#FAFAFA"/>
</g>
<defs>
<clipPath id="clip0_2728_1058">
<rect width="30" height="30" fill="white"/>
</clipPath>
</defs>
</svg>
