<svg width="15" height="15" viewBox="0 0 15 15" fill="none" xmlns="http://www.w3.org/2000/svg">
<path d="M7.5 15C8.98336 15 10.4334 14.5601 11.6668 13.736C12.9001 12.9119 13.8614 11.7406 14.4291 10.3701C14.9968 8.99968 15.1453 7.49168 14.8559 6.03683C14.5665 4.58197 13.8522 3.2456 12.8033 2.1967C11.7544 1.14781 10.418 0.433503 8.96318 0.144114C7.50832 -0.145275 6.00032 0.00324965 4.62987 0.570907C3.25943 1.13856 2.08809 2.09986 1.26398 3.33323C0.439867 4.5666 0 6.01664 0 7.5C0.00215068 9.48847 0.793018 11.3949 2.19907 12.8009C3.60513 14.207 5.51154 14.9979 7.5 15ZM13.75 7.5C13.751 8.68296 13.416 9.84187 12.784 10.8418C12.152 11.8418 11.2489 12.6417 10.18 13.1484C9.11104 13.6551 7.92017 13.8478 6.74598 13.704C5.5718 13.5602 4.4626 13.0859 3.5475 12.3363L12.3363 3.5475C13.2514 4.6613 13.7512 6.05846 13.75 7.5ZM7.5 1.25C8.94155 1.24885 10.3387 1.7486 11.4525 2.66375L2.66375 11.4525C1.9141 10.5374 1.43979 9.4282 1.29601 8.25402C1.15223 7.07984 1.34491 5.88897 1.85162 4.82003C2.35832 3.75109 3.15821 2.84805 4.15817 2.21603C5.15814 1.58401 6.31705 1.249 7.5 1.25Z" fill="#FF3062"/>
</svg>
