<svg width="15" height="16" viewBox="0 0 15 16" fill="none" xmlns="http://www.w3.org/2000/svg">
<path d="M7.5 15.6379C8.98336 15.6379 10.4334 15.1981 11.6668 14.374C12.9001 13.5499 13.8614 12.3785 14.4291 11.0081C14.9968 9.63762 15.1453 8.12962 14.8559 6.67477C14.5665 5.21991 13.8522 3.88354 12.8033 2.83464C11.7544 1.78575 10.418 1.07144 8.96318 0.782053C7.50832 0.492664 6.00032 0.641189 4.62987 1.20885C3.25943 1.7765 2.08809 2.7378 1.26398 3.97117C0.439867 5.20453 0 6.65458 0 8.13794C0.00215068 10.1264 0.793018 12.0328 2.19907 13.4389C3.60513 14.8449 5.51154 15.6358 7.5 15.6379ZM13.75 8.13794C13.751 9.3209 13.416 10.4798 12.784 11.4798C12.152 12.4797 11.2489 13.2796 10.18 13.7863C9.11104 14.293 7.92017 14.4857 6.74598 14.3419C5.5718 14.1982 4.4626 13.7238 3.5475 12.9742L12.3363 4.18544C13.2514 5.29924 13.7512 6.6964 13.75 8.13794ZM7.5 1.88794C8.94155 1.88679 10.3387 2.38654 11.4525 3.30169L2.66375 12.0904C1.9141 11.1753 1.43979 10.0661 1.29601 8.89196C1.15223 7.71778 1.34491 6.52691 1.85162 5.45797C2.35832 4.38903 3.15821 3.48599 4.15817 2.85397C5.15814 2.22195 6.31705 1.88694 7.5 1.88794Z" fill="#FF3062"/>
</svg>
