<svg width="13" height="15" viewBox="0 0 13 15" fill="none" xmlns="http://www.w3.org/2000/svg">
<path d="M12.125 2.49999H10.1875C9.88847 1.04599 8.60942 0.001875 7.12498 0H5.87497C4.39053 0.001875 3.11148 1.04599 2.81248 2.49999H0.87499C0.529814 2.49999 0.25 2.7798 0.25 3.12498C0.25 3.47016 0.529814 3.75 0.87499 3.75H1.49998V11.875C1.50206 13.6 2.89996 14.9979 4.62499 15H8.37499C10.1 14.9979 11.4979 13.6 11.5 11.875V3.75H12.125C12.4702 3.75 12.75 3.47019 12.75 3.12501C12.75 2.77983 12.4702 2.49999 12.125 2.49999ZM5.875 10.625C5.875 10.9702 5.59519 11.25 5.25001 11.25C4.9048 11.25 4.62499 10.9702 4.62499 10.625V6.87501C4.62499 6.52983 4.9048 6.25002 5.24998 6.25002C5.59516 6.25002 5.87497 6.52983 5.87497 6.87501V10.625H5.875ZM8.37499 10.625C8.37499 10.9702 8.09518 11.25 7.75 11.25C7.40482 11.25 7.12501 10.9702 7.12501 10.625V6.87501C7.12501 6.52983 7.40482 6.25002 7.75 6.25002C8.09518 6.25002 8.37499 6.52983 8.37499 6.87501V10.625ZM4.10688 2.49999C4.37272 1.75143 5.08064 1.25095 5.875 1.24998H7.12501C7.91937 1.25095 8.6273 1.75143 8.89314 2.49999H4.10688Z" fill="white"/>
</svg>
