<svg width="20" height="12" viewBox="0 0 20 12" fill="none" xmlns="http://www.w3.org/2000/svg">
<path d="M19.4144 1.13841C19.2287 0.952563 19.0082 0.805133 18.7654 0.704545C18.5227 0.603958 18.2625 0.552185 17.9998 0.552185C17.7371 0.552185 17.4769 0.603958 17.2342 0.704545C16.9914 0.805133 16.7709 0.952563 16.5852 1.13841L10.4706 7.25162C10.3456 7.3766 10.1761 7.44681 9.9993 7.44681C9.82253 7.44681 9.65299 7.3766 9.52797 7.25162L3.41477 1.13841C3.03976 0.763227 2.53107 0.55238 2.0006 0.552255C1.47013 0.55213 0.961342 0.762737 0.586157 1.13775C0.210972 1.51275 0.000125081 2.02145 5.56337e-08 2.55191C-0.00012497 3.08238 0.210482 3.59117 0.585491 3.96636L6.70003 10.0809C7.13337 10.5143 7.64783 10.8581 8.21404 11.0926C8.78024 11.3272 9.3871 11.4479 9.99996 11.4479C10.6128 11.4479 11.2197 11.3272 11.7859 11.0926C12.3521 10.8581 12.8666 10.5143 13.2999 10.0809L19.4144 3.96636C19.7894 3.59131 20 3.0827 20 2.55238C20 2.02207 19.7894 1.51346 19.4144 1.13841Z" fill="#7A7D8B"/>
</svg>
