<svg width="20" height="20" viewBox="0 0 20 20" fill="none" xmlns="http://www.w3.org/2000/svg">
<g clip-path="url(#clip0_3891_226)">
<path d="M19.9952 10C19.9952 4.47954 15.52 0.00432777 9.99958 0.00432777C4.47912 0.00432777 0.00390625 4.47954 0.00390625 10C0.00390625 15.5205 4.47912 19.9957 9.99958 19.9957C15.52 19.9957 19.9952 15.5205 19.9952 10Z" fill="#1ED21E"/>
<path fill-rule="evenodd" clip-rule="evenodd" d="M10.1503 17.6647L3.94362 11.458C3.42504 10.9395 3.42504 10.091 3.94362 9.57245C4.46221 9.05387 5.31063 9.05387 5.82922 9.57245L12.0359 15.7791L10.1503 17.6647Z" fill="white"/>
<path fill-rule="evenodd" clip-rule="evenodd" d="M10.1512 17.6647L16.3579 11.458C16.8765 10.9394 16.8765 10.091 16.3579 9.57239C15.8393 9.05381 14.9909 9.05381 14.4723 9.57239L8.26562 15.7791L10.1512 17.6647Z" fill="white"/>
<path fill-rule="evenodd" clip-rule="evenodd" d="M8.81641 14.9859V3.63354C8.81641 2.90015 9.41633 2.30023 10.1497 2.30023C10.8831 2.30023 11.483 2.90015 11.483 3.63354V14.9859H8.81641Z" fill="white"/>
</g>
<defs>
<clipPath id="clip0_3891_226">
<rect width="20" height="20" fill="white" transform="matrix(1 0 0 -1 0 20)"/>
</clipPath>
</defs>
</svg>
