<svg width="15" height="15" viewBox="0 0 15 15" fill="none" xmlns="http://www.w3.org/2000/svg">
<path d="M11.25 11.875V14.8125C11.6911 14.6613 12.0925 14.4126 12.4244 14.085L14.0844 12.4237C14.4124 12.0923 14.6613 11.6911 14.8125 11.25H11.875C11.7092 11.25 11.5503 11.3158 11.4331 11.4331C11.3158 11.5503 11.25 11.7092 11.25 11.875Z" fill="#374957"/>
<path d="M4.4825 8.6424C4.25026 8.87457 4.06604 9.15021 3.94036 9.45359C3.81467 9.75697 3.74999 10.0821 3.75 10.4105V11.2499H4.58937C4.91776 11.2499 5.24293 11.1852 5.54631 11.0595C5.84969 10.9339 6.12533 10.7496 6.3575 10.5174L13.4375 3.4374C13.6861 3.18876 13.8258 2.85153 13.8258 2.4999C13.8258 2.14827 13.6861 1.81104 13.4375 1.5624C13.1889 1.31376 12.8516 1.17407 12.5 1.17407C12.1484 1.17407 11.8111 1.31376 11.5625 1.5624L4.4825 8.6424Z" fill="#374957"/>
<path d="M15 3.095C14.8936 3.55863 14.6598 3.98332 14.325 4.32125L7.24125 11.4019C6.89379 11.7512 6.4805 12.0281 6.02531 12.2166C5.57011 12.4051 5.08205 12.5014 4.58938 12.5H3.75C3.41848 12.5 3.10054 12.3683 2.86612 12.1339C2.6317 11.8995 2.5 11.5815 2.5 11.25V10.4106C2.49863 9.91799 2.59504 9.42998 2.78365 8.97488C2.97226 8.51977 3.24931 8.10663 3.59875 7.75938L10.6788 0.67875C11.0141 0.343462 11.4364 0.1084 11.8981 0C11.89 0 11.8831 0 11.875 0H3.125C2.2965 0.000992411 1.50222 0.330551 0.916387 0.916387C0.330551 1.50222 0.000992411 2.2965 0 3.125L0 11.875C0.000992411 12.7035 0.330551 13.4978 0.916387 14.0836C1.50222 14.6694 2.2965 14.999 3.125 15H10V11.875C10 11.3777 10.1975 10.9008 10.5492 10.5492C10.9008 10.1975 11.3777 10 11.875 10H15V3.125C15 3.115 15 3.10563 15 3.095Z" fill="#374957"/>
</svg>
