<svg width="126" height="44" viewBox="0 0 126 44" fill="none" xmlns="http://www.w3.org/2000/svg">
<rect x="0.5" y="0.5" width="125" height="42" rx="4.5" fill="white" stroke="#7A7D8B"/>
<g clip-path="url(#clip0_2728_2359)">
<path d="M30 8C37.1801 8 43 13.8207 43 21C43 28.1801 37.1801 34 30 34C22.8199 34 17 28.1801 17 21C17 13.8207 22.8199 8 30 8Z" fill="#3B5998"/>
<path d="M31.5827 16.9496H33.2581V14.4747H31.2886V14.4837C28.9023 14.5682 28.4132 15.9096 28.3701 17.3185H28.3652V18.5543H26.7402V20.978H28.3652V27.4747H30.8141V20.978H32.8202L33.2077 18.5543H30.8149V17.8077C30.8149 17.3315 31.1317 16.9496 31.5827 16.9496Z" fill="white"/>
</g>
<path d="M53.3379 17.4688V26H51.8672V17.4688H53.3379ZM56.8184 21.2012V22.3672H52.9629V21.2012H56.8184ZM57.3047 17.4688V18.6406H52.9629V17.4688H57.3047ZM61.7109 24.7285V21.7051C61.7109 21.4785 61.6699 21.2832 61.5879 21.1191C61.5059 20.9551 61.3809 20.8281 61.2129 20.7383C61.0488 20.6484 60.8418 20.6035 60.5918 20.6035C60.3613 20.6035 60.1621 20.6426 59.9941 20.7207C59.8262 20.7988 59.6953 20.9043 59.6016 21.0371C59.5078 21.1699 59.4609 21.3203 59.4609 21.4883H58.0547C58.0547 21.2383 58.1152 20.9961 58.2363 20.7617C58.3574 20.5273 58.5332 20.3184 58.7637 20.1348C58.9941 19.9512 59.2695 19.8066 59.5898 19.7012C59.9102 19.5957 60.2695 19.543 60.668 19.543C61.1445 19.543 61.5664 19.623 61.9336 19.7832C62.3047 19.9434 62.5957 20.1855 62.8066 20.5098C63.0215 20.8301 63.1289 21.2324 63.1289 21.7168V24.5352C63.1289 24.8242 63.1484 25.084 63.1875 25.3145C63.2305 25.541 63.291 25.7383 63.3691 25.9062V26H61.9219C61.8555 25.8477 61.8027 25.6543 61.7637 25.4199C61.7285 25.1816 61.7109 24.9512 61.7109 24.7285ZM61.916 22.1445L61.9277 23.0176H60.9141C60.6523 23.0176 60.4219 23.043 60.2227 23.0938C60.0234 23.1406 59.8574 23.2109 59.7246 23.3047C59.5918 23.3984 59.4922 23.5117 59.4258 23.6445C59.3594 23.7773 59.3262 23.9277 59.3262 24.0957C59.3262 24.2637 59.3652 24.418 59.4434 24.5586C59.5215 24.6953 59.6348 24.8027 59.7832 24.8809C59.9355 24.959 60.1191 24.998 60.334 24.998C60.623 24.998 60.875 24.9395 61.0898 24.8223C61.3086 24.7012 61.4805 24.5547 61.6055 24.3828C61.7305 24.207 61.7969 24.041 61.8047 23.8848L62.2617 24.5117C62.2148 24.6719 62.1348 24.8438 62.0215 25.0273C61.9082 25.2109 61.7598 25.3867 61.5762 25.5547C61.3965 25.7188 61.1797 25.8535 60.9258 25.959C60.6758 26.0645 60.3867 26.1172 60.0586 26.1172C59.6445 26.1172 59.2754 26.0352 58.9512 25.8711C58.627 25.7031 58.373 25.4785 58.1895 25.1973C58.0059 24.9121 57.9141 24.5898 57.9141 24.2305C57.9141 23.8945 57.9766 23.5977 58.1016 23.3398C58.2305 23.0781 58.418 22.8594 58.6641 22.6836C58.9141 22.5078 59.2188 22.375 59.5781 22.2852C59.9375 22.1914 60.3477 22.1445 60.8086 22.1445H61.916ZM67.1953 24.9922C67.4258 24.9922 67.6328 24.9473 67.8164 24.8574C68.0039 24.7637 68.1543 24.6348 68.2676 24.4707C68.3848 24.3066 68.4492 24.1172 68.4609 23.9023H69.791C69.7832 24.3125 69.6621 24.6855 69.4277 25.0215C69.1934 25.3574 68.8828 25.625 68.4961 25.8242C68.1094 26.0195 67.6816 26.1172 67.2129 26.1172C66.7285 26.1172 66.3066 26.0352 65.9473 25.8711C65.5879 25.7031 65.2891 25.4727 65.0508 25.1797C64.8125 24.8867 64.6328 24.5488 64.5117 24.166C64.3945 23.7832 64.3359 23.373 64.3359 22.9355V22.7305C64.3359 22.293 64.3945 21.8828 64.5117 21.5C64.6328 21.1133 64.8125 20.7734 65.0508 20.4805C65.2891 20.1875 65.5879 19.959 65.9473 19.7949C66.3066 19.627 66.7266 19.543 67.207 19.543C67.7148 19.543 68.1602 19.6445 68.543 19.8477C68.9258 20.0469 69.2266 20.3262 69.4453 20.6855C69.668 21.041 69.7832 21.4551 69.791 21.9277H68.4609C68.4492 21.6934 68.3906 21.4824 68.2852 21.2949C68.1836 21.1035 68.0391 20.9512 67.8516 20.8379C67.668 20.7246 67.4473 20.668 67.1895 20.668C66.9043 20.668 66.668 20.7266 66.4805 20.8438C66.293 20.957 66.1465 21.1133 66.041 21.3125C65.9355 21.5078 65.8594 21.7285 65.8125 21.9746C65.7695 22.2168 65.748 22.4688 65.748 22.7305V22.9355C65.748 23.1973 65.7695 23.4512 65.8125 23.6973C65.8555 23.9434 65.9297 24.1641 66.0352 24.3594C66.1445 24.5508 66.293 24.7051 66.4805 24.8223C66.668 24.9355 66.9062 24.9922 67.1953 24.9922ZM73.6699 26.1172C73.2012 26.1172 72.7773 26.041 72.3984 25.8887C72.0234 25.7324 71.7031 25.5156 71.4375 25.2383C71.1758 24.9609 70.9746 24.6348 70.834 24.2598C70.6934 23.8848 70.623 23.4805 70.623 23.0469V22.8125C70.623 22.3164 70.6953 21.8672 70.8398 21.4648C70.9844 21.0625 71.1855 20.7188 71.4434 20.4336C71.7012 20.1445 72.0059 19.9238 72.3574 19.7715C72.709 19.6191 73.0898 19.543 73.5 19.543C73.9531 19.543 74.3496 19.6191 74.6895 19.7715C75.0293 19.9238 75.3105 20.1387 75.5332 20.416C75.7598 20.6895 75.9277 21.0156 76.0371 21.3945C76.1504 21.7734 76.207 22.1914 76.207 22.6484V23.252H71.3086V22.2383H74.8125V22.127C74.8047 21.873 74.7539 21.6348 74.6602 21.4121C74.5703 21.1895 74.4316 21.0098 74.2441 20.873C74.0566 20.7363 73.8066 20.668 73.4941 20.668C73.2598 20.668 73.0508 20.7188 72.8672 20.8203C72.6875 20.918 72.5371 21.0605 72.416 21.248C72.2949 21.4355 72.2012 21.6621 72.1348 21.9277C72.0723 22.1895 72.041 22.4844 72.041 22.8125V23.0469C72.041 23.3242 72.0781 23.582 72.1523 23.8203C72.2305 24.0547 72.3438 24.2598 72.4922 24.4355C72.6406 24.6113 72.8203 24.75 73.0312 24.8516C73.2422 24.9492 73.4824 24.998 73.752 24.998C74.0918 24.998 74.3945 24.9297 74.6602 24.793C74.9258 24.6562 75.1562 24.4629 75.3516 24.2129L76.0957 24.9336C75.959 25.1328 75.7812 25.3242 75.5625 25.5078C75.3438 25.6875 75.0762 25.834 74.7598 25.9473C74.4473 26.0605 74.084 26.1172 73.6699 26.1172ZM77.3145 17H78.7266V24.6465L78.5918 26H77.3145V17ZM82.8633 22.7715V22.8945C82.8633 23.3633 82.8105 23.7949 82.7051 24.1895C82.6035 24.5801 82.4473 24.9199 82.2363 25.209C82.0293 25.498 81.7715 25.7227 81.4629 25.8828C81.1582 26.0391 80.8047 26.1172 80.4023 26.1172C80.0078 26.1172 79.6641 26.043 79.3711 25.8945C79.0781 25.7461 78.832 25.5352 78.6328 25.2617C78.4375 24.9883 78.2793 24.6621 78.1582 24.2832C78.0371 23.9043 77.9512 23.4863 77.9004 23.0293V22.6367C77.9512 22.1758 78.0371 21.7578 78.1582 21.3828C78.2793 21.0039 78.4375 20.6777 78.6328 20.4043C78.832 20.127 79.0762 19.9141 79.3652 19.7656C79.6582 19.6172 80 19.543 80.3906 19.543C80.7969 19.543 81.1543 19.6211 81.4629 19.7773C81.7754 19.9336 82.0352 20.1562 82.2422 20.4453C82.4492 20.7305 82.6035 21.0703 82.7051 21.4648C82.8105 21.8594 82.8633 22.2949 82.8633 22.7715ZM81.4512 22.8945V22.7715C81.4512 22.4863 81.4277 22.2188 81.3809 21.9688C81.334 21.7148 81.2559 21.4922 81.1465 21.3008C81.041 21.1094 80.8965 20.959 80.7129 20.8496C80.5332 20.7363 80.3086 20.6797 80.0391 20.6797C79.7891 20.6797 79.5742 20.7227 79.3945 20.8086C79.2148 20.8945 79.0645 21.0117 78.9434 21.1602C78.8223 21.3086 78.7266 21.4805 78.6562 21.6758C78.5898 21.8711 78.5449 22.082 78.5215 22.3086V23.3691C78.5566 23.6621 78.6309 23.9316 78.7441 24.1777C78.8613 24.4199 79.0254 24.6152 79.2363 24.7637C79.4473 24.9082 79.7188 24.9805 80.0508 24.9805C80.3125 24.9805 80.5332 24.9277 80.7129 24.8223C80.8926 24.7168 81.0352 24.5703 81.1406 24.3828C81.25 24.1914 81.3281 23.9688 81.375 23.7148C81.4258 23.4609 81.4512 23.1875 81.4512 22.8945ZM83.7891 22.9004V22.7656C83.7891 22.3086 83.8555 21.8848 83.9883 21.4941C84.1211 21.0996 84.3125 20.7578 84.5625 20.4688C84.8164 20.1758 85.125 19.9492 85.4883 19.7891C85.8555 19.625 86.2695 19.543 86.7305 19.543C87.1953 19.543 87.6094 19.625 87.9727 19.7891C88.3398 19.9492 88.6504 20.1758 88.9043 20.4688C89.1582 20.7578 89.3516 21.0996 89.4844 21.4941C89.6172 21.8848 89.6836 22.3086 89.6836 22.7656V22.9004C89.6836 23.3574 89.6172 23.7812 89.4844 24.1719C89.3516 24.5625 89.1582 24.9043 88.9043 25.1973C88.6504 25.4863 88.3418 25.7129 87.9785 25.877C87.6152 26.0371 87.2031 26.1172 86.7422 26.1172C86.2773 26.1172 85.8613 26.0371 85.4941 25.877C85.1309 25.7129 84.8223 25.4863 84.5684 25.1973C84.3145 24.9043 84.1211 24.5625 83.9883 24.1719C83.8555 23.7812 83.7891 23.3574 83.7891 22.9004ZM85.2012 22.7656V22.9004C85.2012 23.1855 85.2305 23.4551 85.2891 23.709C85.3477 23.9629 85.4395 24.1855 85.5645 24.377C85.6895 24.5684 85.8496 24.7188 86.0449 24.8281C86.2402 24.9375 86.4727 24.9922 86.7422 24.9922C87.0039 24.9922 87.2305 24.9375 87.4219 24.8281C87.6172 24.7188 87.7773 24.5684 87.9023 24.377C88.0273 24.1855 88.1191 23.9629 88.1777 23.709C88.2402 23.4551 88.2715 23.1855 88.2715 22.9004V22.7656C88.2715 22.4844 88.2402 22.2188 88.1777 21.9688C88.1191 21.7148 88.0254 21.4902 87.8965 21.2949C87.7715 21.0996 87.6113 20.9473 87.416 20.8379C87.2246 20.7246 86.9961 20.668 86.7305 20.668C86.4648 20.668 86.2344 20.7246 86.0391 20.8379C85.8477 20.9473 85.6895 21.0996 85.5645 21.2949C85.4395 21.4902 85.3477 21.7148 85.2891 21.9688C85.2305 22.2188 85.2012 22.4844 85.2012 22.7656ZM90.5977 22.9004V22.7656C90.5977 22.3086 90.6641 21.8848 90.7969 21.4941C90.9297 21.0996 91.1211 20.7578 91.3711 20.4688C91.625 20.1758 91.9336 19.9492 92.2969 19.7891C92.6641 19.625 93.0781 19.543 93.5391 19.543C94.0039 19.543 94.418 19.625 94.7812 19.7891C95.1484 19.9492 95.459 20.1758 95.7129 20.4688C95.9668 20.7578 96.1602 21.0996 96.293 21.4941C96.4258 21.8848 96.4922 22.3086 96.4922 22.7656V22.9004C96.4922 23.3574 96.4258 23.7812 96.293 24.1719C96.1602 24.5625 95.9668 24.9043 95.7129 25.1973C95.459 25.4863 95.1504 25.7129 94.7871 25.877C94.4238 26.0371 94.0117 26.1172 93.5508 26.1172C93.0859 26.1172 92.6699 26.0371 92.3027 25.877C91.9395 25.7129 91.6309 25.4863 91.377 25.1973C91.123 24.9043 90.9297 24.5625 90.7969 24.1719C90.6641 23.7812 90.5977 23.3574 90.5977 22.9004ZM92.0098 22.7656V22.9004C92.0098 23.1855 92.0391 23.4551 92.0977 23.709C92.1562 23.9629 92.248 24.1855 92.373 24.377C92.498 24.5684 92.6582 24.7188 92.8535 24.8281C93.0488 24.9375 93.2812 24.9922 93.5508 24.9922C93.8125 24.9922 94.0391 24.9375 94.2305 24.8281C94.4258 24.7188 94.5859 24.5684 94.7109 24.377C94.8359 24.1855 94.9277 23.9629 94.9863 23.709C95.0488 23.4551 95.0801 23.1855 95.0801 22.9004V22.7656C95.0801 22.4844 95.0488 22.2188 94.9863 21.9688C94.9277 21.7148 94.834 21.4902 94.7051 21.2949C94.5801 21.0996 94.4199 20.9473 94.2246 20.8379C94.0332 20.7246 93.8047 20.668 93.5391 20.668C93.2734 20.668 93.043 20.7246 92.8477 20.8379C92.6562 20.9473 92.498 21.0996 92.373 21.2949C92.248 21.4902 92.1562 21.7148 92.0977 21.9688C92.0391 22.2188 92.0098 22.4844 92.0098 22.7656ZM99.0996 17V26H97.6816V17H99.0996ZM103.037 19.6602L100.277 22.7188L98.7656 24.2656L98.3965 23.0703L99.5391 21.6582L101.332 19.6602H103.037ZM101.637 26L99.5801 23.0234L100.471 22.0332L103.271 26H101.637Z" fill="black"/>
<defs>
<clipPath id="clip0_2728_2359">
<rect width="26" height="26" fill="white" transform="translate(17 8)"/>
</clipPath>
</defs>
</svg>
