<svg width="50" height="50" viewBox="0 0 50 50" fill="none" xmlns="http://www.w3.org/2000/svg">
<g clip-path="url(#clip0_3787_790)">
<path d="M42.6695 42.675C52.4312 32.9134 52.4312 17.0866 42.6695 7.325C32.9079 -2.43663 17.0812 -2.43663 7.31953 7.325C-2.4421 17.0866 -2.4421 32.9134 7.31953 42.675C17.0812 52.4366 32.9079 52.4366 42.6695 42.675Z" fill="#FFC107"/>
<path d="M40.4761 23.5311C40.9337 23.9888 40.9338 24.7307 40.4761 25.1884L28.0766 37.5879C25.9173 39.7471 23.08 40.8269 20.2438 40.8271C17.4068 40.8274 14.5708 39.7476 12.4111 37.5879C8.09214 33.2689 8.09214 26.2414 12.4111 21.9224L22.8843 11.4491C25.916 8.41759 30.8489 8.41759 33.8805 11.4491C35.3439 12.9125 36.1499 14.8651 36.1499 16.9472C36.1499 19.0293 35.3439 20.9818 33.8804 22.4453L23.6329 32.6928C22.7608 33.5649 21.6149 34.0009 20.4695 34.001C19.3238 34.0012 18.1784 33.5651 17.3062 32.6928C15.562 30.9485 15.562 28.1104 17.3062 26.3661L27.5 16.1723C27.9577 15.7147 28.6996 15.7147 29.1573 16.1723C29.6149 16.63 29.615 17.3719 29.1573 17.8296L18.9635 28.0234C18.1332 28.8538 18.1332 30.205 18.9635 31.0355C19.794 31.8658 21.1452 31.8658 21.9756 31.0355L32.2232 20.7879C33.244 19.7671 33.8061 18.4031 33.8061 16.9471C33.8061 15.4911 33.244 14.1271 32.2232 13.1064C30.1053 10.9886 26.6594 10.9886 24.5417 13.1064L14.0684 23.5797C10.6632 26.9849 10.6632 32.5254 14.0684 35.9307C17.4735 39.3356 23.0141 39.3358 26.4194 35.9307L38.8188 23.5312C39.2764 23.0735 40.0184 23.0735 40.4761 23.5311Z" fill="white"/>
</g>
<defs>
<clipPath id="clip0_3787_790">
<rect width="50" height="50" fill="white"/>
</clipPath>
</defs>
</svg>
