<svg width="126" height="44" viewBox="0 0 126 44" fill="none" xmlns="http://www.w3.org/2000/svg">
<rect x="0.5" y="1.5" width="125" height="42" rx="4.5" fill="white" stroke="#7A7D8B"/>
<path d="M63.418 21.6406V24.8984C63.2969 25.0586 63.1074 25.2344 62.8496 25.4258C62.5957 25.6133 62.2578 25.7754 61.8359 25.9121C61.4141 26.0488 60.8887 26.1172 60.2598 26.1172C59.7246 26.1172 59.2344 26.0273 58.7891 25.8477C58.3438 25.6641 57.959 25.3965 57.6348 25.0449C57.3145 24.6934 57.0664 24.2656 56.8906 23.7617C56.7148 23.2539 56.627 22.6758 56.627 22.0273V21.4355C56.627 20.791 56.707 20.2168 56.8672 19.7129C57.0312 19.2051 57.2656 18.7754 57.5703 18.4238C57.875 18.0723 58.2422 17.8066 58.6719 17.627C59.1055 17.4434 59.5957 17.3516 60.1426 17.3516C60.8418 17.3516 61.4199 17.4688 61.877 17.7031C62.3379 17.9336 62.6934 18.2539 62.9434 18.6641C63.1934 19.0742 63.3516 19.543 63.418 20.0703H61.9766C61.9297 19.7734 61.8379 19.5078 61.7012 19.2734C61.5684 19.0391 61.377 18.8555 61.127 18.7227C60.8809 18.5859 60.5605 18.5176 60.166 18.5176C59.8262 18.5176 59.5273 18.582 59.2695 18.7109C59.0117 18.8398 58.7969 19.0293 58.625 19.2793C58.457 19.5293 58.3301 19.834 58.2441 20.1934C58.1582 20.5527 58.1152 20.9629 58.1152 21.4238V22.0273C58.1152 22.4961 58.1641 22.9121 58.2617 23.2754C58.3633 23.6387 58.5078 23.9453 58.6953 24.1953C58.8867 24.4453 59.1191 24.6348 59.3926 24.7637C59.666 24.8887 59.9746 24.9512 60.3184 24.9512C60.6543 24.9512 60.9297 24.9238 61.1445 24.8691C61.3594 24.8105 61.5293 24.7422 61.6543 24.6641C61.7832 24.582 61.8828 24.5039 61.9531 24.4297V22.7363H60.1777V21.6406H63.418ZM64.6367 22.9004V22.7656C64.6367 22.3086 64.7031 21.8848 64.8359 21.4941C64.9688 21.0996 65.1602 20.7578 65.4102 20.4688C65.6641 20.1758 65.9727 19.9492 66.3359 19.7891C66.7031 19.625 67.1172 19.543 67.5781 19.543C68.043 19.543 68.457 19.625 68.8203 19.7891C69.1875 19.9492 69.498 20.1758 69.752 20.4688C70.0059 20.7578 70.1992 21.0996 70.332 21.4941C70.4648 21.8848 70.5312 22.3086 70.5312 22.7656V22.9004C70.5312 23.3574 70.4648 23.7812 70.332 24.1719C70.1992 24.5625 70.0059 24.9043 69.752 25.1973C69.498 25.4863 69.1895 25.7129 68.8262 25.877C68.4629 26.0371 68.0508 26.1172 67.5898 26.1172C67.125 26.1172 66.709 26.0371 66.3418 25.877C65.9785 25.7129 65.6699 25.4863 65.416 25.1973C65.1621 24.9043 64.9688 24.5625 64.8359 24.1719C64.7031 23.7812 64.6367 23.3574 64.6367 22.9004ZM66.0488 22.7656V22.9004C66.0488 23.1855 66.0781 23.4551 66.1367 23.709C66.1953 23.9629 66.2871 24.1855 66.4121 24.377C66.5371 24.5684 66.6973 24.7188 66.8926 24.8281C67.0879 24.9375 67.3203 24.9922 67.5898 24.9922C67.8516 24.9922 68.0781 24.9375 68.2695 24.8281C68.4648 24.7188 68.625 24.5684 68.75 24.377C68.875 24.1855 68.9668 23.9629 69.0254 23.709C69.0879 23.4551 69.1191 23.1855 69.1191 22.9004V22.7656C69.1191 22.4844 69.0879 22.2188 69.0254 21.9688C68.9668 21.7148 68.873 21.4902 68.7441 21.2949C68.6191 21.0996 68.459 20.9473 68.2637 20.8379C68.0723 20.7246 67.8438 20.668 67.5781 20.668C67.3125 20.668 67.082 20.7246 66.8867 20.8379C66.6953 20.9473 66.5371 21.0996 66.4121 21.2949C66.2871 21.4902 66.1953 21.7148 66.1367 21.9688C66.0781 22.2188 66.0488 22.4844 66.0488 22.7656ZM71.4453 22.9004V22.7656C71.4453 22.3086 71.5117 21.8848 71.6445 21.4941C71.7773 21.0996 71.9688 20.7578 72.2188 20.4688C72.4727 20.1758 72.7812 19.9492 73.1445 19.7891C73.5117 19.625 73.9258 19.543 74.3867 19.543C74.8516 19.543 75.2656 19.625 75.6289 19.7891C75.9961 19.9492 76.3066 20.1758 76.5605 20.4688C76.8145 20.7578 77.0078 21.0996 77.1406 21.4941C77.2734 21.8848 77.3398 22.3086 77.3398 22.7656V22.9004C77.3398 23.3574 77.2734 23.7812 77.1406 24.1719C77.0078 24.5625 76.8145 24.9043 76.5605 25.1973C76.3066 25.4863 75.998 25.7129 75.6348 25.877C75.2715 26.0371 74.8594 26.1172 74.3984 26.1172C73.9336 26.1172 73.5176 26.0371 73.1504 25.877C72.7871 25.7129 72.4785 25.4863 72.2246 25.1973C71.9707 24.9043 71.7773 24.5625 71.6445 24.1719C71.5117 23.7812 71.4453 23.3574 71.4453 22.9004ZM72.8574 22.7656V22.9004C72.8574 23.1855 72.8867 23.4551 72.9453 23.709C73.0039 23.9629 73.0957 24.1855 73.2207 24.377C73.3457 24.5684 73.5059 24.7188 73.7012 24.8281C73.8965 24.9375 74.1289 24.9922 74.3984 24.9922C74.6602 24.9922 74.8867 24.9375 75.0781 24.8281C75.2734 24.7188 75.4336 24.5684 75.5586 24.377C75.6836 24.1855 75.7754 23.9629 75.834 23.709C75.8965 23.4551 75.9277 23.1855 75.9277 22.9004V22.7656C75.9277 22.4844 75.8965 22.2188 75.834 21.9688C75.7754 21.7148 75.6816 21.4902 75.5527 21.2949C75.4277 21.0996 75.2676 20.9473 75.0723 20.8379C74.8809 20.7246 74.6523 20.668 74.3867 20.668C74.1211 20.668 73.8906 20.7246 73.6953 20.8379C73.5039 20.9473 73.3457 21.0996 73.2207 21.2949C73.0957 21.4902 73.0039 21.7148 72.9453 21.9688C72.8867 22.2188 72.8574 22.4844 72.8574 22.7656ZM82.584 19.6602H83.8672V25.8242C83.8672 26.3945 83.7461 26.8789 83.5039 27.2773C83.2617 27.6758 82.9238 27.9785 82.4902 28.1855C82.0566 28.3965 81.5547 28.502 80.9844 28.502C80.7422 28.502 80.4727 28.4668 80.1758 28.3965C79.8828 28.3262 79.5977 28.2129 79.3203 28.0566C79.0469 27.9043 78.8184 27.7031 78.6348 27.4531L79.2969 26.6211C79.5234 26.8906 79.7734 27.0879 80.0469 27.2129C80.3203 27.3379 80.6074 27.4004 80.9082 27.4004C81.2324 27.4004 81.5078 27.3398 81.7344 27.2188C81.9648 27.1016 82.1426 26.9277 82.2676 26.6973C82.3926 26.4668 82.4551 26.1855 82.4551 25.8535V21.0957L82.584 19.6602ZM78.2773 22.9004V22.7773C78.2773 22.2969 78.3359 21.8594 78.4531 21.4648C78.5703 21.0664 78.7383 20.7246 78.957 20.4395C79.1758 20.1504 79.4414 19.9297 79.7539 19.7773C80.0664 19.6211 80.4199 19.543 80.8145 19.543C81.2246 19.543 81.5742 19.6172 81.8633 19.7656C82.1562 19.9141 82.4004 20.127 82.5957 20.4043C82.791 20.6777 82.9434 21.0059 83.0527 21.3887C83.166 21.7676 83.25 22.1895 83.3047 22.6543V23.0469C83.2539 23.5 83.168 23.9141 83.0469 24.2891C82.9258 24.6641 82.7656 24.9883 82.5664 25.2617C82.3672 25.5352 82.1211 25.7461 81.8281 25.8945C81.5391 26.043 81.1973 26.1172 80.8027 26.1172C80.416 26.1172 80.0664 26.0371 79.7539 25.877C79.4453 25.7168 79.1797 25.4922 78.957 25.2031C78.7383 24.9141 78.5703 24.5742 78.4531 24.1836C78.3359 23.7891 78.2773 23.3613 78.2773 22.9004ZM79.6895 22.7773V22.9004C79.6895 23.1895 79.7168 23.459 79.7715 23.709C79.8301 23.959 79.918 24.1797 80.0352 24.3711C80.1562 24.5586 80.3086 24.707 80.4922 24.8164C80.6797 24.9219 80.9004 24.9746 81.1543 24.9746C81.4863 24.9746 81.7578 24.9043 81.9688 24.7637C82.1836 24.623 82.3477 24.4336 82.4609 24.1953C82.5781 23.9531 82.6602 23.6836 82.707 23.3867V22.3262C82.6836 22.0957 82.6348 21.8809 82.5605 21.6816C82.4902 21.4824 82.3945 21.3086 82.2734 21.1602C82.1523 21.0078 82 20.8906 81.8164 20.8086C81.6328 20.7227 81.416 20.6797 81.166 20.6797C80.9121 20.6797 80.6914 20.7344 80.5039 20.8438C80.3164 20.9531 80.1621 21.1035 80.041 21.2949C79.9238 21.4863 79.8359 21.709 79.7773 21.9629C79.7188 22.2168 79.6895 22.4883 79.6895 22.7773ZM86.8438 17V26H85.4258V17H86.8438ZM91.1855 26.1172C90.7168 26.1172 90.293 26.041 89.9141 25.8887C89.5391 25.7324 89.2188 25.5156 88.9531 25.2383C88.6914 24.9609 88.4902 24.6348 88.3496 24.2598C88.209 23.8848 88.1387 23.4805 88.1387 23.0469V22.8125C88.1387 22.3164 88.2109 21.8672 88.3555 21.4648C88.5 21.0625 88.7012 20.7188 88.959 20.4336C89.2168 20.1445 89.5215 19.9238 89.873 19.7715C90.2246 19.6191 90.6055 19.543 91.0156 19.543C91.4688 19.543 91.8652 19.6191 92.2051 19.7715C92.5449 19.9238 92.8262 20.1387 93.0488 20.416C93.2754 20.6895 93.4434 21.0156 93.5527 21.3945C93.666 21.7734 93.7227 22.1914 93.7227 22.6484V23.252H88.8242V22.2383H92.3281V22.127C92.3203 21.873 92.2695 21.6348 92.1758 21.4121C92.0859 21.1895 91.9473 21.0098 91.7598 20.873C91.5723 20.7363 91.3223 20.668 91.0098 20.668C90.7754 20.668 90.5664 20.7188 90.3828 20.8203C90.2031 20.918 90.0527 21.0605 89.9316 21.248C89.8105 21.4355 89.7168 21.6621 89.6504 21.9277C89.5879 22.1895 89.5566 22.4844 89.5566 22.8125V23.0469C89.5566 23.3242 89.5938 23.582 89.668 23.8203C89.7461 24.0547 89.8594 24.2598 90.0078 24.4355C90.1562 24.6113 90.3359 24.75 90.5469 24.8516C90.7578 24.9492 90.998 24.998 91.2676 24.998C91.6074 24.998 91.9102 24.9297 92.1758 24.793C92.4414 24.6562 92.6719 24.4629 92.8672 24.2129L93.6113 24.9336C93.4746 25.1328 93.2969 25.3242 93.0781 25.5078C92.8594 25.6875 92.5918 25.834 92.2754 25.9473C91.9629 26.0605 91.5996 26.1172 91.1855 26.1172Z" fill="black"/>
<g clip-path="url(#clip0_2728_2349)">
<path d="M47.1696 20.0875L38.196 20.087C37.7997 20.087 37.4785 20.4082 37.4785 20.8044V23.6711C37.4785 24.0673 37.7997 24.3885 38.1959 24.3885H43.2493C42.696 25.8246 41.6632 27.0272 40.3455 27.7914L42.5002 31.5215C45.9567 29.5224 48.0002 26.0149 48.0002 22.0885C48.0002 21.5295 47.959 21.1298 47.8766 20.6798C47.814 20.3379 47.5171 20.0875 47.1696 20.0875Z" fill="#167EE6"/>
<path d="M36.9999 28.6956C34.5269 28.6956 32.368 27.3444 31.2085 25.345L27.4785 27.4949C29.3767 30.7846 32.9325 33 36.9999 33C38.9953 33 40.878 32.4627 42.4999 31.5265V31.5214L40.3452 27.7913C39.3595 28.3629 38.219 28.6956 36.9999 28.6956Z" fill="#12B347"/>
<path d="M42.5 31.5265V31.5214L40.3452 27.7913C39.3596 28.3629 38.2192 28.6956 37 28.6956V33C38.9953 33 40.8782 32.4627 42.5 31.5265Z" fill="#0F993E"/>
<path d="M30.3044 22C30.3044 20.781 30.637 19.6406 31.2085 18.655L27.4786 16.5051C26.5372 18.1219 26 19.9996 26 22C26 24.0005 26.5372 25.8781 27.4786 27.4949L31.2085 25.345C30.637 24.3594 30.3044 23.219 30.3044 22Z" fill="#FFD500"/>
<path d="M36.9999 15.3044C38.6126 15.3044 40.0939 15.8774 41.2509 16.8306C41.5363 17.0657 41.9512 17.0487 42.2127 16.7872L44.2438 14.7561C44.5405 14.4595 44.5193 13.9739 44.2024 13.699C42.2639 12.0172 39.7416 11 36.9999 11C32.9325 11 29.3767 13.2153 27.4785 16.5051L31.2085 18.655C32.368 16.6555 34.5269 15.3044 36.9999 15.3044Z" fill="#FF4B26"/>
<path d="M41.251 16.8306C41.5364 17.0657 41.9513 17.0487 42.2128 16.7872L44.2439 14.7561C44.5405 14.4595 44.5194 13.9739 44.2025 13.699C42.264 12.0172 39.7417 11 37 11V15.3044C38.6126 15.3044 40.094 15.8774 41.251 16.8306Z" fill="#D93F21"/>
</g>
<defs>
<clipPath id="clip0_2728_2349">
<rect width="22" height="22" fill="white" transform="translate(26 11)"/>
</clipPath>
</defs>
</svg>
