<svg width="25" height="25" viewBox="0 0 25 25" fill="none" xmlns="http://www.w3.org/2000/svg">
<g clip-path="url(#clip0_2728_1887)">
<path fill-rule="evenodd" clip-rule="evenodd" d="M12.5 25C5.59754 25 0 19.4025 0 12.5C0 5.59754 5.59754 0 12.5 0C19.4025 0 25 5.59754 25 12.5C25 19.4025 19.4025 25 12.5 25ZM12.5 4.36949C15.9195 4.36949 18.6914 7.14144 18.6914 10.5609C18.6914 13.9803 12.5 20.6304 12.5 20.6304C12.5 20.6304 6.30856 13.9803 6.30856 10.5609C6.30856 7.14144 9.08051 4.36949 12.5 4.36949ZM12.5 8.10098C13.7965 8.10098 14.8478 9.15236 14.8478 10.4489C14.8478 11.7454 13.7965 12.7968 12.5 12.7968C11.2035 12.7968 10.1522 11.7454 10.1522 10.4489C10.1522 9.15236 11.2035 8.10098 12.5 8.10098Z" fill="#28A745"/>
</g>
<defs>
<clipPath id="clip0_2728_1887">
<rect width="25" height="25" fill="white"/>
</clipPath>
</defs>
</svg>
