<svg width="16" height="16" viewBox="0 0 16 16" fill="none" xmlns="http://www.w3.org/2000/svg">
<path d="M8.46843 0.665039C4.32685 0.665039 0.96875 4.02313 0.96875 8.16472C0.96875 12.3063 4.32685 15.665 8.46843 15.665C12.61 15.665 15.9688 12.3063 15.9688 8.16472C15.9688 4.02313 12.61 0.665039 8.46843 0.665039ZM10.0297 12.2885C9.64367 12.4409 9.33637 12.5565 9.10589 12.6365C8.87605 12.7165 8.60875 12.7565 8.30462 12.7565C7.83732 12.7565 7.47351 12.6422 7.21446 12.4142C6.95542 12.1863 6.82653 11.8974 6.82653 11.5463C6.82653 11.4098 6.83605 11.2701 6.8551 11.1279C6.87478 10.9857 6.90589 10.8257 6.94843 10.646L7.43161 8.93932C7.47415 8.77552 7.51097 8.61996 7.54018 8.4752C7.56939 8.32917 7.58335 8.1952 7.58335 8.07329C7.58335 7.85615 7.53827 7.70377 7.44875 7.61806C7.35796 7.53234 7.18716 7.49044 6.93256 7.49044C6.80812 7.49044 6.67986 7.50885 6.54843 7.54758C6.41827 7.58758 6.30526 7.62377 6.21256 7.65933L6.34018 7.13361C6.65637 7.00472 6.95923 6.89425 7.24812 6.80282C7.537 6.71012 7.81002 6.6644 8.06716 6.6644C8.53129 6.6644 8.88939 6.77742 9.14145 7.00091C9.39224 7.22504 9.51859 7.51647 9.51859 7.87456C9.51859 7.94885 9.5097 8.07964 9.49256 8.26631C9.47542 8.45361 9.44304 8.6244 9.39605 8.78123L8.91542 10.4828C8.87605 10.6193 8.84113 10.7755 8.80939 10.9501C8.77827 11.1247 8.76304 11.2581 8.76304 11.3476C8.76304 11.5736 8.81319 11.7279 8.91478 11.8098C9.0151 11.8917 9.19097 11.933 9.43986 11.933C9.55732 11.933 9.68875 11.912 9.83732 11.8714C9.98462 11.8308 10.0913 11.7946 10.1586 11.7635L10.0297 12.2885ZM9.94462 5.38186C9.7205 5.59012 9.45065 5.69425 9.1351 5.69425C8.82018 5.69425 8.54843 5.59012 8.3224 5.38186C8.09764 5.17361 7.98399 4.92028 7.98399 4.6244C7.98399 4.32917 8.09827 4.0752 8.3224 3.86504C8.54843 3.65425 8.82018 3.54948 9.1351 3.54948C9.45065 3.54948 9.72113 3.65425 9.94462 3.86504C10.1688 4.0752 10.2811 4.32917 10.2811 4.6244C10.2811 4.92091 10.1688 5.17361 9.94462 5.38186Z" fill="white"/>
</svg>
