<svg width="31" height="26" viewBox="0 0 31 26" fill="none" xmlns="http://www.w3.org/2000/svg">
<path d="M15.4824 25.5009C16.5503 25.5009 17.416 24.6352 17.416 23.5673C17.416 22.4994 16.5503 21.6337 15.4824 21.6337C14.4145 21.6337 13.5488 22.4994 13.5488 23.5673C13.5488 24.6352 14.4145 25.5009 15.4824 25.5009Z" fill="#F89823"/>
<path d="M30.2342 7.24104C26.3829 3.10884 21.1676 0.833066 15.5486 0.833008C9.93006 0.833066 4.71482 3.10884 0.8634 7.24104C0.42219 7.71448 0.448264 8.45604 0.9217 8.89731C1.3952 9.33852 2.1367 9.3125 2.57797 8.83901C5.98109 5.18769 10.5875 3.17681 15.549 3.17675C20.5101 3.17681 25.1165 5.18769 28.5197 8.83901C28.7505 9.08663 29.0634 9.2119 29.3772 9.2119C29.6633 9.2119 29.9501 9.10772 30.1759 8.89731C30.6494 8.45598 30.6755 7.71448 30.2342 7.24104Z" fill="#F89823"/>
<path d="M25.654 12.0805C22.8071 9.21214 19.1199 7.63251 15.2715 7.63263C11.4222 7.63269 7.73486 9.21237 4.88885 12.0806C4.43299 12.5401 4.43586 13.2821 4.89529 13.7379C5.35473 14.1938 6.0967 14.1909 6.55256 13.7315C8.95519 11.31 12.0516 9.97643 15.2715 9.97637C18.4905 9.97626 21.5869 11.3099 23.9904 13.7316C24.2195 13.9624 24.5208 14.0779 24.8222 14.0779C25.1206 14.0779 25.4192 13.9646 25.6478 13.7378C26.1071 13.2819 26.1099 12.5399 25.654 12.0805Z" fill="#F89823"/>
<path d="M21.3892 16.9341C19.8645 15.4236 17.6792 14.4853 15.6857 14.4853C15.6855 14.4853 15.6851 14.4853 15.6848 14.4853H15.6004C15.6 14.4853 15.5999 14.4853 15.5995 14.4853C13.606 14.4853 11.4204 15.4236 9.89589 16.9341C9.43617 17.3896 9.43271 18.1315 9.88822 18.5913C10.1174 18.8226 10.419 18.9384 10.7207 18.9384C11.0188 18.9384 11.317 18.8254 11.5454 18.5991C12.6307 17.5238 14.222 16.8291 15.5996 16.8291C15.5998 16.8291 15.6 16.8291 15.6002 16.8291H15.685C15.6852 16.8291 15.6853 16.8291 15.6855 16.8291C17.063 16.8291 18.6544 17.5238 19.7396 18.5991C20.1993 19.0545 20.9414 19.0512 21.3968 18.5913C21.8524 18.1316 21.8489 17.3896 21.3892 16.9341Z" fill="#F89823"/>
</svg>
