<svg width="10" height="10" viewBox="0 0 10 10" fill="none" xmlns="http://www.w3.org/2000/svg">
<path fill-rule="evenodd" clip-rule="evenodd" d="M6.76781 6.325C6.88999 6.44687 6.88999 6.64689 6.76781 6.76876C6.64593 6.89064 6.44781 6.89064 6.32563 6.76876L5.00187 5.44376L3.66875 6.77811C3.54562 6.89998 3.34626 6.89998 3.22313 6.77811C3.10032 6.65311 3.10032 6.45313 3.22313 6.33125L4.55626 4.99687L3.2325 3.675C3.11031 3.55313 3.11031 3.35311 3.2325 3.23124C3.35406 3.10936 3.55219 3.10936 3.67437 3.23124L4.99813 4.55624L6.34125 3.21251C6.46437 3.09063 6.66343 3.09063 6.78656 3.21251C6.90937 3.33751 6.90937 3.53436 6.78656 3.65936L5.44374 5.00313L6.76781 6.325ZM5 0C2.23844 0 0 2.2375 0 5C0 7.7625 2.23844 10 5 10C7.76156 10 10 7.7625 10 5C10 2.2375 7.76156 0 5 0Z" fill="#FD2A22"/>
</svg>
