<svg width="25" height="25" viewBox="0 0 25 25" fill="none" xmlns="http://www.w3.org/2000/svg">
<path d="M12.8727 15.9145L14.976 13.8112L15.1443 12.6333L19.8559 7.92172L17.0794 5.14526L12.3678 9.85682L11.19 10.0251L9.08658 12.1285L8.91831 13.3484L3.44953 18.8172L3.11299 18.4807L2.77645 20.3737L2.14544 20.0372L1.8089 21.5516L1.00962 21.215L0 25.0011L3.78607 23.9915L3.44953 23.1922L4.96396 22.8557L4.62742 22.2247L6.52046 21.8881L6.18392 21.5516L11.6527 16.0828L12.8727 15.9145Z" fill="#91A5AA"/>
<path d="M13.2086 15.5779L15.312 13.4745L15.4802 12.2966L20.1918 7.58505L17.4153 4.80859L12.7038 9.52015L11.5259 9.68842L9.42252 11.7918L9.21218 12.9697L3.7434 18.4385L3.11239 18.4805L3.23859 20.0791L2.14484 20.037L1.97657 21.3411L1.00902 21.2149L0.335938 24.6645L3.78547 23.9914V23.0238L4.96336 22.8556L4.92129 21.7618L6.51986 21.888L6.60399 21.2149L12.0307 15.7461L13.2086 15.5779Z" fill="#C1D2D6"/>
<path d="M0.335938 24.6645L3.78547 23.9914V23.0239L4.96336 22.8556L4.92129 21.7618L6.51986 21.888L6.60399 21.215L12.0307 15.7462L13.2086 15.5779L15.312 13.4745L15.4802 12.2966L20.1918 7.58508L18.7615 6.15479" fill="#A3BCC1"/>
<path d="M15.3118 13.4748L15.48 12.2548L19.813 7.92189C19.3503 7.58535 18.8454 7.16467 18.3406 6.65986C17.8358 6.15505 17.4151 5.65024 17.0786 5.1875L12.7036 9.52045L11.4836 9.68872L10.2637 10.9087C10.6423 11.708 11.1471 12.5072 11.8202 13.1383C12.4932 13.8113 13.2505 14.3161 14.0497 14.6948L15.3118 13.4748Z" fill="#7C999B"/>
<path d="M21.4137 3.58873C18.2586 0.433668 14.767 -1.24903 12.4113 1.10675C10.0975 3.42046 9.80307 8.88924 12.9581 12.0443C16.1132 15.1994 21.582 14.9049 23.8957 12.5912C26.2515 10.2354 24.5688 6.74379 21.4137 3.58873ZM19.4365 5.5659C18.0062 4.13561 17.1228 2.62118 17.5435 2.24257C17.9642 1.86396 19.4365 2.70531 20.8668 4.13561C22.2971 5.5659 23.1805 7.08033 22.7599 7.45894C22.3392 7.83755 20.9089 6.9962 19.4365 5.5659Z" fill="#0D4972"/>
<path d="M21.4126 3.58862L20.8657 4.09343C22.296 5.52373 23.1794 7.03816 22.7588 7.41677C22.3381 7.79537 20.8657 6.95402 19.4354 5.52373L12.957 12.0021C16.1121 15.1572 21.5809 14.8627 23.8946 12.549C26.2504 10.2353 24.5677 6.74369 21.4126 3.58862Z" fill="#00233F"/>
<path d="M21.2458 11.7077C19.6052 13.3483 16.4922 12.9276 14.3046 10.7401C12.1171 8.55263 11.6544 5.43964 13.3371 3.799C14.9777 2.15837 16.366 4.30381 18.5535 6.53339C20.741 8.76297 22.8864 10.025 21.2458 11.7077Z" fill="#7296AA"/>
<path d="M21.0771 11.8759C22.255 10.4456 20.1937 9.05734 18.0903 6.95396C15.9869 4.85059 14.5566 2.78928 13.1684 3.96717C11.7381 5.64987 12.2008 8.63666 14.3042 10.74C16.4076 12.8434 19.3523 13.3062 21.0771 11.8759Z" fill="#648593"/>
<path d="M13.6717 2.74734C13.5034 2.91561 13.0407 3.16801 12.8724 2.99974C12.7042 2.83147 12.8304 2.07426 12.9986 1.90599C13.1669 1.73772 13.4193 1.73772 13.5876 1.90599C13.7558 2.07426 13.84 2.57907 13.6717 2.74734Z" fill="#00233F"/>
<path d="M13.2937 2.66313C13.5261 2.66313 13.7144 2.47478 13.7144 2.24245C13.7144 2.01012 13.5261 1.82178 13.2937 1.82178C13.0614 1.82178 12.873 2.01012 12.873 2.24245C12.873 2.47478 13.0614 2.66313 13.2937 2.66313Z" fill="#DB402C"/>
<path d="M13.587 1.948C13.7553 2.11627 13.7553 2.36867 13.587 2.53694C13.4187 2.70521 13.1663 2.70521 12.998 2.53694" fill="#C1291E"/>
<path d="M13.5889 1.948C13.7572 2.11627 13.7572 2.36867 13.5889 2.53694C13.4207 2.70521 13.1683 2.70521 13 2.53694" fill="#C1291E"/>
<path d="M13.2933 2.15832C13.3862 2.15832 13.4615 2.08298 13.4615 1.99005C13.4615 1.89711 13.3862 1.82178 13.2933 1.82178C13.2003 1.82178 13.125 1.89711 13.125 1.99005C13.125 2.08298 13.2003 2.15832 13.2933 2.15832Z" fill="#EF664B"/>
<path d="M21.2425 3.75699C24.3555 6.86998 25.9962 10.3195 23.8086 12.6332C23.8507 12.5912 23.8928 12.5912 23.8928 12.5491C26.2065 10.2354 24.5659 6.74378 21.4108 3.54665C18.2557 0.433655 14.7641 -1.24904 12.4084 1.10674C12.4084 1.1488 12.3663 1.1488 12.3242 1.19087C14.68 -0.99664 18.0875 0.643993 21.2425 3.75699Z" fill="#2284AF"/>
<path d="M19.2658 5.73413C20.6961 7.16442 22.2105 8.04784 22.5891 7.62716C22.6312 7.5851 22.6312 7.54303 22.6733 7.50096C22.1685 7.66923 20.7802 6.86995 19.4762 5.52379C18.13 4.17763 17.3307 2.83147 17.499 2.32666C17.4569 2.32666 17.4148 2.36873 17.3728 2.4108C16.9521 2.7894 17.8355 4.30383 19.2658 5.73413Z" fill="#2284AF"/>
<path d="M1.13582 24.1176C1.05168 24.2018 0.967549 24.2018 0.883414 24.1176C0.799279 24.0335 0.799279 23.9494 0.883414 23.8652L10.2224 14.5262C10.3065 14.4421 10.3907 14.4421 10.4748 14.5262C10.5589 14.6104 10.5589 14.6945 10.4748 14.7786L1.13582 24.1176Z" fill="#D0E6EA"/>
<path d="M11.2737 13.8951C11.3667 13.8951 11.442 13.8198 11.442 13.7269C11.442 13.6339 11.3667 13.5586 11.2737 13.5586C11.1808 13.5586 11.1055 13.6339 11.1055 13.7269C11.1055 13.8198 11.1808 13.8951 11.2737 13.8951Z" fill="#D0E6EA"/>
<path d="M11.6937 13.4747C11.7866 13.4747 11.8619 13.3994 11.8619 13.3065C11.8619 13.2135 11.7866 13.1382 11.6937 13.1382C11.6007 13.1382 11.5254 13.2135 11.5254 13.3065C11.5254 13.3994 11.6007 13.4747 11.6937 13.4747Z" fill="#D0E6EA"/>
<path d="M12.1585 13.0118C12.2514 13.0118 12.3268 12.9365 12.3268 12.8436C12.3268 12.7506 12.2514 12.6753 12.1585 12.6753C12.0656 12.6753 11.9902 12.7506 11.9902 12.8436C11.9902 12.9365 12.0656 13.0118 12.1585 13.0118Z" fill="#D0E6EA"/>
<path d="M15.1872 12.1704C15.061 12.2966 14.8927 12.2966 14.7665 12.1704C14.6403 12.0442 14.6403 11.8759 14.7665 11.7497L19.436 7.08025C19.5622 6.95405 19.7305 6.95405 19.8567 7.08025C19.9829 7.20645 19.9829 7.37472 19.8567 7.50092L15.1872 12.1704Z" fill="#00233F"/>
<path d="M21.3304 12.9699C21.4146 13.054 21.3725 13.2223 21.2884 13.3485C21.1622 13.4747 20.9939 13.5168 20.9098 13.3906L17.292 9.77275C17.2078 9.68862 17.2499 9.52035 17.334 9.39415C17.4602 9.26794 17.6285 9.22588 17.7126 9.35208L21.3304 12.9699Z" fill="#00233F"/>
</svg>
