<svg width="19" height="18" viewBox="0 0 19 18" fill="none" xmlns="http://www.w3.org/2000/svg">
<path d="M13.7652 6.66498C11.3408 6.66498 9.17515 8.56748 9.37515 10.895C9.6989 14.6612 13.7652 17.5 13.7652 17.5C13.7652 17.5 17.9408 14.2794 18.1552 10.895C18.3027 8.5631 16.1902 6.66498 13.7652 6.66498ZM13.7652 13.215C12.3933 13.215 11.2814 12.1031 11.2814 10.7312C11.2814 9.35935 12.3933 8.24748 13.7652 8.24748C15.137 8.24748 16.2489 9.35935 16.2489 10.7312C16.2489 12.1031 15.137 13.215 13.7652 13.215Z" fill="url(#paint0_linear_2955_279)"/>
<path d="M3.05632 0C1.7382 0 0.561324 1.03375 0.670074 2.29875C0.845699 4.34563 3.0557 5.88812 3.0557 5.88812C3.0557 5.88812 5.32507 4.13813 5.44132 2.29875C5.52195 1.03188 4.37382 0 3.05632 0ZM3.05632 3.56C2.3107 3.56 1.70632 2.95562 1.70632 2.21C1.70632 1.46437 2.3107 0.86 3.05632 0.86C3.80195 0.86 4.40632 1.46437 4.40632 2.21C4.40632 2.95562 3.80132 3.56 3.05632 3.56Z" fill="url(#paint1_linear_2955_279)"/>
<path d="M13.7631 17.8125H2.53809C1.33184 17.8125 0.350586 16.8312 0.350586 15.625V13.7487C0.350586 12.6575 1.23809 11.77 2.32934 11.77H5.20746C5.95371 11.77 6.56121 11.1625 6.56121 10.4162C6.56121 9.66998 5.95434 9.06248 5.20746 9.06248H4.72184C3.63059 9.06248 2.74309 8.17498 2.74309 7.08373V5.88873C2.74309 5.71623 2.88309 5.57623 3.05559 5.57623C3.22809 5.57623 3.36809 5.71623 3.36809 5.88873V7.08373C3.36809 7.82998 3.97559 8.43748 4.72184 8.43748H5.20746C6.29871 8.43748 7.18621 9.32498 7.18621 10.4162C7.18621 11.5075 6.29871 12.395 5.20746 12.395H2.32934C1.58309 12.395 0.975586 13.0025 0.975586 13.7487V15.625C0.975586 16.4869 1.67621 17.1875 2.53809 17.1875H13.7631C13.9356 17.1875 14.0756 17.3275 14.0756 17.5C14.0756 17.6725 13.9356 17.8125 13.7631 17.8125Z" fill="url(#paint2_linear_2955_279)"/>
<defs>
<linearGradient id="paint0_linear_2955_279" x1="4.84515" y1="20.5669" x2="20.9389" y2="3.5356" gradientUnits="userSpaceOnUse">
<stop stop-color="#F90A86"/>
<stop offset="1" stop-color="#4767FE"/>
</linearGradient>
<linearGradient id="paint1_linear_2955_279" x1="-5.15618" y1="11.1156" x2="10.9382" y2="-5.91563" gradientUnits="userSpaceOnUse">
<stop stop-color="#F90A86"/>
<stop offset="1" stop-color="#4767FE"/>
</linearGradient>
<linearGradient id="paint2_linear_2955_279" x1="2.29934" y1="18.1606" x2="18.3931" y2="1.12936" gradientUnits="userSpaceOnUse">
<stop stop-color="#F90A86"/>
<stop offset="1" stop-color="#4767FE"/>
</linearGradient>
</defs>
</svg>
