<svg width="15" height="16" viewBox="0 0 15 16" fill="none" xmlns="http://www.w3.org/2000/svg">
<circle cx="7.5" cy="8.06592" r="7.5" fill="#FD2A22"/>
<path d="M7.25065 4.27441C5.30273 4.27441 3.70898 5.86816 3.70898 7.81608C3.70898 9.764 5.30273 11.3577 7.25065 11.3577C9.19857 11.3577 10.7923 9.764 10.7923 7.81608V7.46191C10.5798 7.78066 10.3673 8.064 10.1902 8.31191C10.0486 9.09108 9.62357 9.764 9.02148 10.2244C8.98607 10.1182 8.95065 9.9765 8.91524 9.87025C8.87982 9.72858 8.8444 9.58691 8.77357 9.44525C8.73815 9.30358 8.70273 9.16191 8.6319 9.05566C8.59648 9.02025 8.52565 8.98483 8.45482 8.94941C8.2069 8.87858 7.88815 8.98483 7.71107 8.73691C7.64023 8.63066 7.64023 8.52441 7.67565 8.38275C7.74648 8.2765 7.7819 8.17025 7.85273 8.064C7.92357 7.92233 8.02982 7.74525 8.06523 7.56816C7.7819 7.14316 7.49857 6.64733 7.3569 6.18691H7.32148C7.28607 6.18691 7.28607 6.18691 7.25065 6.1515C7.17982 6.08066 7.1444 5.90358 7.17982 5.79733C7.17982 5.62025 7.28607 5.514 7.25065 5.33691C7.25065 5.3015 7.21523 5.01816 7.21523 5.01816C7.10898 5.01816 6.9319 5.01816 6.96732 4.84108V4.80566H7.25065H7.42773C7.49857 4.59316 7.64023 4.41608 7.74648 4.27441H7.25065ZM9.37565 4.27441C8.59648 4.27441 7.95898 4.91191 7.95898 5.69108C7.95898 6.47025 9.37565 8.17025 9.37565 8.17025C9.37565 8.17025 10.7923 6.47025 10.7923 5.69108C10.7923 4.91191 10.1548 4.27441 9.37565 4.27441ZM9.37565 5.15983C9.65898 5.15983 9.9069 5.40775 9.9069 5.69108C9.9069 5.97441 9.65898 6.22233 9.37565 6.22233C9.09232 6.22233 8.8444 5.97441 8.8444 5.69108C8.8444 5.40775 9.09232 5.15983 9.37565 5.15983ZM5.83398 5.37233C5.97565 5.37233 6.0819 5.37233 6.18815 5.40775C6.2944 5.44316 6.40065 5.514 6.47148 5.58483C6.54232 5.65566 6.64857 5.76191 6.64857 5.86816C6.64857 5.90358 6.64857 5.939 6.61315 5.939C6.57773 5.97441 6.54232 5.97441 6.5069 5.97441C6.40065 5.97441 6.2944 5.97441 6.22357 5.939C6.18815 5.90358 6.11732 5.83275 6.04648 5.79733C5.8694 5.7265 5.55065 6.18691 5.51523 6.32858C5.47982 6.43483 5.47982 6.68275 5.6569 6.71816C5.76315 6.71816 6.01107 6.50566 6.0819 6.43483C6.15273 6.39941 6.18815 6.364 6.25898 6.32858C6.54232 6.29316 6.75482 6.54108 6.82565 6.789C6.89648 7.07233 6.40065 7.28483 6.18815 7.35566C6.11732 7.39108 6.0819 7.32025 6.01107 7.35566C5.83398 7.4265 5.62148 7.67441 5.62148 7.8515C5.62148 8.02858 5.58607 8.20566 5.55065 8.38275C5.51523 8.38275 5.47982 8.34733 5.47982 8.34733V8.2765C5.47982 8.17025 5.4444 8.064 5.33815 7.99316C5.30273 7.99316 5.30273 7.95775 5.26732 7.95775C5.16107 7.92233 5.05482 7.81608 4.94857 7.92233C4.87773 7.99316 4.8069 8.09941 4.8069 8.20566C4.8069 8.24108 4.8069 8.2765 4.84232 8.31191C4.91315 8.34733 4.98398 8.31191 5.05482 8.31191C5.09023 8.31191 5.12565 8.38275 5.16107 8.41816C5.2319 8.52441 5.26732 8.7015 5.40898 8.7015H5.6569H6.11732C6.22357 8.73691 6.40065 8.77233 6.47148 8.84316C6.5069 8.914 6.5069 8.98483 6.54232 9.05566C6.68398 9.23275 6.9319 9.23275 7.1444 9.30358C7.21523 9.339 7.25065 9.37441 7.25065 9.44525C7.25065 9.5515 7.21523 9.69316 7.17982 9.79941C7.1444 9.90566 7.10898 10.0473 7.03815 10.1182C6.96732 10.189 6.89648 10.2244 6.82565 10.2598C6.68398 10.3307 6.61315 10.4723 6.54232 10.5786C6.54232 10.5786 6.5069 10.6494 6.47148 10.6848C6.18815 10.614 5.94023 10.5077 5.69232 10.3307V10.2598C5.6569 10.1182 5.62148 10.0119 5.58607 9.90566C5.51523 9.72858 5.40898 9.51608 5.37357 9.339C5.37357 9.16191 5.40898 8.98483 5.30273 8.84316C5.19648 8.66608 4.91315 8.66608 4.73607 8.55983C4.5944 8.41816 4.41732 8.2765 4.27565 8.09941V7.81608C4.27565 6.85983 4.73607 6.00983 5.4444 5.44316C5.58607 5.40775 5.69232 5.37233 5.83398 5.37233Z" fill="white" fill-opacity="0.9"/>
</svg>
