<svg width="15" height="15" viewBox="0 0 15 15" fill="none" xmlns="http://www.w3.org/2000/svg">
<ellipse cx="7.5" cy="7.57139" rx="7.5" ry="7.42857" fill="#FD2A22"/>
<path d="M7.55 9.15641C7.70081 9.15641 7.84823 9.11212 7.97362 9.02913C8.09901 8.94614 8.19675 8.82819 8.25446 8.69019C8.31217 8.55219 8.32727 8.40033 8.29785 8.25383C8.26843 8.10733 8.19581 7.97276 8.08917 7.86714C7.98253 7.76152 7.84667 7.68959 7.69876 7.66045C7.55085 7.6313 7.39753 7.64626 7.2582 7.70342C7.11888 7.76059 6.99979 7.85739 6.916 7.98158C6.83222 8.10578 6.7875 8.2518 6.7875 8.40117C6.78803 8.60131 6.86853 8.79311 7.01141 8.93463C7.1543 9.07615 7.34793 9.15589 7.55 9.15641ZM9.8375 5.75809H9.4565V5.00235C9.4565 4.5016 9.25566 4.02135 8.89817 3.66727C8.54068 3.31318 8.05582 3.11426 7.55025 3.11426C7.04468 3.11426 6.55982 3.31318 6.20233 3.66727C5.84484 4.02135 5.644 4.5016 5.644 5.00235V5.75759H5.2625C5.06043 5.75811 4.8668 5.83785 4.72391 5.97937C4.58103 6.12089 4.50053 6.31269 4.5 6.51283V10.289C4.50053 10.4892 4.58103 10.681 4.72391 10.8225C4.8668 10.964 5.06043 11.0437 5.2625 11.0443H9.8375C10.0396 11.0437 10.2332 10.964 10.3761 10.8225C10.519 10.681 10.5995 10.4892 10.6 10.289V6.51283C10.5995 6.31269 10.519 6.12089 10.3761 5.97937C10.2332 5.83785 10.0396 5.75811 9.8375 5.75759V5.75809ZM6.368 5.00235C6.36477 4.84662 6.39294 4.6918 6.45088 4.54699C6.50881 4.40217 6.59534 4.27027 6.7054 4.15899C6.81545 4.04772 6.94682 3.95932 7.09181 3.89897C7.23679 3.83862 7.39248 3.80753 7.54975 3.80753C7.70702 3.80753 7.86271 3.83862 8.00769 3.89897C8.15268 3.95932 8.28405 4.04772 8.3941 4.15899C8.50416 4.27027 8.59069 4.40217 8.64862 4.54699C8.70656 4.6918 8.73473 4.84662 8.7315 5.00235V5.75759H6.368V5.00235ZM9.8375 10.289H5.2625V6.51283H9.8375V10.289Z" fill="white" fill-opacity="0.9"/>
</svg>
