<svg width="15" height="16" viewBox="0 0 15 16" fill="none" xmlns="http://www.w3.org/2000/svg">
<circle cx="7.5" cy="7.59924" r="7.5" fill="#FD2A22"/>
<g clip-path="url(#clip0_6704_438)">
<path d="M9.54167 4.39087H5.45833C5.0717 4.39133 4.70104 4.54513 4.42765 4.81852C4.15426 5.09191 4.00046 5.46257 4 5.8492V9.3492C4.00046 9.73583 4.15426 10.1065 4.42765 10.3799C4.70104 10.6533 5.0717 10.8071 5.45833 10.8075H9.54167C9.9283 10.8071 10.299 10.6533 10.5724 10.3799C10.8457 10.1065 10.9995 9.73583 11 9.3492V5.8492C10.9995 5.46257 10.8457 5.09191 10.5724 4.81852C10.299 4.54513 9.9283 4.39133 9.54167 4.39087ZM5.45833 4.9742H9.54167C9.71631 4.97455 9.88686 5.02714 10.0314 5.12523C10.1759 5.22331 10.2877 5.3624 10.3525 5.52458L8.11892 7.75845C7.95454 7.92217 7.732 8.01409 7.5 8.01409C7.268 8.01409 7.04546 7.92217 6.88108 7.75845L4.6475 5.52458C4.71229 5.3624 4.82414 5.22331 4.96864 5.12523C5.11314 5.02714 5.28369 4.97455 5.45833 4.9742ZM9.54167 10.2242H5.45833C5.22627 10.2242 5.00371 10.132 4.83961 9.96792C4.67552 9.80383 4.58333 9.58127 4.58333 9.3492V6.2867L6.46867 8.17087C6.74243 8.44394 7.11332 8.5973 7.5 8.5973C7.88667 8.5973 8.25757 8.44394 8.53133 8.17087L10.4167 6.2867V9.3492C10.4167 9.58127 10.3245 9.80383 10.1604 9.96792C9.99629 10.132 9.77373 10.2242 9.54167 10.2242Z" fill="white" fill-opacity="0.9"/>
</g>
<defs>
<clipPath id="clip0_6704_438">
<rect width="7" height="7" fill="white" transform="translate(4 4.09924)"/>
</clipPath>
</defs>
</svg>
