<svg width="15" height="16" viewBox="0 0 15 16" fill="none" xmlns="http://www.w3.org/2000/svg">
<circle cx="7.5" cy="7.60278" r="7.5" fill="#FD2A22"/>
<path d="M8.76888 9.15343L8.59588 9.33554C8.59588 9.33554 8.1847 9.76844 7.06239 8.58684C5.94008 7.40525 6.35124 6.97236 6.35124 6.97236L6.46018 6.85767C6.72854 6.57515 6.75383 6.12156 6.5197 5.79042L6.04078 5.11305C5.751 4.7032 5.19105 4.64906 4.8589 4.99874L4.26277 5.62637C4.09808 5.79975 3.98771 6.02452 4.0011 6.27385C4.03534 6.91174 4.30791 8.28417 5.82889 9.8855C7.44181 11.5836 8.95521 11.6511 9.5741 11.59C9.76985 11.5707 9.94008 11.4651 10.0773 11.3207L10.6168 10.7527C10.981 10.3692 10.8783 9.71193 10.4123 9.44371L9.68671 9.02604C9.38074 8.84993 9.008 8.90165 8.76888 9.15343Z" fill="white"/>
<path d="M7.89618 4.34224C7.92132 4.18694 8.06812 4.0816 8.22342 4.10674C8.23303 4.10858 8.26398 4.11436 8.28016 4.11797C8.3126 4.12519 8.35779 4.1363 8.41416 4.15271C8.52688 4.18554 8.68435 4.23963 8.87334 4.32628C9.25173 4.49975 9.75528 4.80322 10.2778 5.32575C10.8003 5.84828 11.1038 6.35183 11.2773 6.73022C11.3639 6.91922 11.418 7.07668 11.4508 7.1894C11.4672 7.24577 11.4784 7.29097 11.4856 7.32338C11.4892 7.33958 11.4918 7.3526 11.4937 7.36221L11.4959 7.37406C11.521 7.52934 11.4166 7.68225 11.2613 7.70739C11.1065 7.73246 10.9606 7.6276 10.9348 7.47306C10.934 7.46888 10.9318 7.45775 10.9295 7.44723C10.9248 7.42619 10.9167 7.39283 10.9039 7.34872C10.8782 7.26048 10.8335 7.12932 10.7594 6.96764C10.6114 6.64469 10.3451 6.19874 9.87495 5.72859C9.40483 5.25845 8.95887 4.99221 8.63592 4.84415C8.47424 4.77003 8.3431 4.72539 8.25483 4.69969C8.21073 4.68684 8.15528 4.67411 8.13424 4.66943C7.97966 4.64367 7.87111 4.49709 7.89618 4.34224Z" fill="white"/>
<path fill-rule="evenodd" clip-rule="evenodd" d="M7.98368 5.65199C8.02691 5.50072 8.18456 5.41313 8.33584 5.45635L8.2576 5.73024C8.33584 5.45635 8.33584 5.45635 8.33584 5.45635L8.33641 5.4565L8.33698 5.45667L8.33823 5.45704L8.34119 5.45792L8.34871 5.46026C8.35441 5.46209 8.36159 5.46448 8.3701 5.4675C8.38715 5.47356 8.40971 5.48216 8.43736 5.49401C8.4927 5.51773 8.56828 5.55435 8.66118 5.60931C8.84705 5.71933 9.10084 5.90209 9.39898 6.20022C9.69713 6.49836 9.87985 6.75213 9.98988 6.93804C10.0448 7.0309 10.0814 7.1065 10.1052 7.16184C10.117 7.18949 10.1257 7.21203 10.1317 7.22909C10.1347 7.23762 10.1371 7.24477 10.139 7.2505L10.1413 7.25801L10.1421 7.26095L10.1425 7.26222L10.1427 7.2628C10.1427 7.2628 10.1429 7.26335 9.86895 7.34161L10.1429 7.26335C10.1861 7.41462 10.0985 7.57227 9.94723 7.61549C9.79724 7.65833 9.64095 7.57261 9.59617 7.4237L9.59477 7.41961C9.59276 7.4139 9.58858 7.40266 9.58155 7.38626C9.5675 7.35346 9.54201 7.29982 9.49963 7.2282C9.41493 7.08511 9.26199 6.86891 8.99612 6.60306C8.7303 6.33722 8.51408 6.18427 8.37101 6.09959C8.29938 6.05719 8.24575 6.03171 8.21293 6.01766C8.19653 6.01063 8.18528 6.00643 8.17959 6.00441L8.17548 6.00301C8.0266 5.95824 7.94084 5.80197 7.98368 5.65199Z" fill="white"/>
</svg>
