<svg width="15" height="15" viewBox="0 0 15 15" fill="none" xmlns="http://www.w3.org/2000/svg">
<circle cx="7.5" cy="7.5" r="7.5" fill="#FD2A22"/>
<path d="M4.30357 5C3.86307 5 3.5 5.36307 3.5 5.80357V9.55357C3.5 9.99407 3.86307 10.3571 4.30357 10.3571H10.1964C10.6369 10.3571 11 9.99407 11 9.55357V5.80357C11 5.36307 10.6369 5 10.1964 5H4.30357ZM4.30357 5.53571H10.1964C10.3481 5.53571 10.4643 5.65186 10.4643 5.80357V9.55357C10.4643 9.70529 10.3481 9.82143 10.1964 9.82143H4.30357C4.15186 9.82143 4.03571 9.70529 4.03571 9.55357V5.80357C4.03571 5.65186 4.15186 5.53571 4.30357 5.53571ZM5.91071 6.07143C5.32164 6.07143 4.83929 6.55378 4.83929 7.14286C4.83929 7.44106 4.96694 7.70996 5.16574 7.90458C4.80894 8.14628 4.57143 8.55748 4.57143 9.01786H5.10714C5.10714 8.57108 5.46394 8.21429 5.91071 8.21429C6.35749 8.21429 6.71429 8.57108 6.71429 9.01786H7.25C7.25 8.55748 7.01249 8.14628 6.65569 7.90458C6.85449 7.70996 6.98214 7.44106 6.98214 7.14286C6.98214 6.55378 6.49979 6.07143 5.91071 6.07143ZM7.78571 6.33929V6.875H9.92857V6.33929H7.78571ZM5.91071 6.60714C6.20996 6.60714 6.44643 6.84361 6.44643 7.14286C6.44643 7.4421 6.20996 7.67857 5.91071 7.67857C5.61147 7.67857 5.375 7.4421 5.375 7.14286C5.375 6.84361 5.61147 6.60714 5.91071 6.60714ZM7.78571 7.41071V7.94643H9.92857V7.41071H7.78571ZM7.78571 8.48214V9.01786H9.125V8.48214H7.78571Z" fill="white" fill-opacity="0.9"/>
</svg>
