<svg width="22" height="22" viewBox="0 0 22 22" fill="none" xmlns="http://www.w3.org/2000/svg">
<path d="M13.9999 11H1M1 11L4.49996 8M1 11L4.49996 13.9999" stroke="white" stroke-width="2" stroke-linecap="round" stroke-linejoin="round"/>
<path d="M8.00195 5.99995C8.01406 3.82494 8.11051 2.64704 8.87888 1.87867C9.75758 1 11.1718 1 14.0001 1H15.0001C17.8285 1 19.2428 1 20.1214 1.87867C21.0001 2.75734 21.0001 4.17154 21.0001 6.99994V14.9999C21.0001 17.8282 21.0001 19.2424 20.1214 20.1211C19.353 20.8895 18.1751 20.986 15.9999 20.9981M8.00195 15.9998C8.01406 18.1748 8.11051 19.3527 8.87888 20.1211C9.52019 20.7624 10.4467 20.9357 12 20.9825" stroke="white" stroke-width="2" stroke-linecap="round"/>
</svg>
