<svg width="15" height="16" viewBox="0 0 15 16" fill="none" xmlns="http://www.w3.org/2000/svg">
<ellipse cx="7.5" cy="7.9619" rx="7.5" ry="7.42857" fill="#FD2A22"/>
<path d="M10.5415 11.3585V10.5488C10.5415 10.1192 10.3693 9.70725 10.0626 9.40347C9.75604 9.09969 9.34017 8.92896 8.9065 8.92883H5.6355C5.20174 8.92883 4.78574 9.0995 4.47903 9.4033C4.17231 9.70709 4 10.1191 4 10.5488V11.3585" fill="white" fill-opacity="0.9"/>
<path d="M8.90772 5.6895C8.90772 6.00989 8.8118 6.32309 8.63209 6.58949C8.45238 6.85588 8.19695 7.06351 7.8981 7.18612C7.59925 7.30873 7.27041 7.34081 6.95315 7.2783C6.63589 7.2158 6.34448 7.06151 6.11575 6.83496C5.88702 6.60841 5.73125 6.31977 5.66815 6.00554C5.60504 5.6913 5.63743 5.36559 5.76121 5.06959C5.885 4.77358 6.09463 4.52059 6.36358 4.34259C6.63254 4.16459 6.94875 4.06958 7.27222 4.06958C7.70598 4.06958 8.12198 4.24025 8.42869 4.54404C8.73541 4.84784 8.90772 5.25987 8.90772 5.6895Z" fill="white" fill-opacity="0.9"/>
</svg>
