<svg width="363" height="143" viewBox="0 0 363 143" fill="none" xmlns="http://www.w3.org/2000/svg">
<path d="M65.0312 35.2309C65.0312 35.2309 76.6322 34.2099 103.071 54.8543L103.52 54.3174C103.52 54.3174 92.3674 43.7345 80.4314 38.0334C68.4954 32.3322 65.9347 32.8071 65.9347 32.8071L65.0312 35.2309Z" fill="white"/>
<path d="M61.7202 52.9177C61.7202 52.9177 76.7764 75.9488 96.7565 89.3683C116.737 102.788 128.32 99.4826 128.32 99.4826C128.32 99.4826 131.407 99.0822 132.083 92.6735C132.083 92.6735 134.688 104.591 121.562 103.489C108.435 102.387 96.3706 94.4766 96.3706 94.4766C96.3706 94.4766 73.5904 79.6543 60.754 61.1296C47.9175 42.6048 61.7202 52.9177 61.7202 52.9177Z" fill="white"/>
<path d="M4.82825 0H104.567L99.1227 29.0146H66.9464L60.6343 69.5835C60.6343 69.5835 89.5919 103.862 123.001 107.713C123.001 107.713 130.548 108.098 135.747 104.246C135.747 104.246 133.274 116.955 110.38 116.955C87.4859 116.955 68.9238 102.834 68.9238 102.834C68.9238 102.834 60.3861 97.0588 56.548 92.1801L50.7355 130.173H16.5818L32.67 28.6267H0L4.82825 0Z" fill="#FD2A22"/>
<path d="M101.255 70.2333C102.487 68.5095 100.697 64.967 97.2566 62.3209C93.8165 59.6748 90.0291 58.9272 88.7971 60.651C87.5651 62.3748 89.3551 65.9174 92.7951 68.5634C96.2352 71.2095 100.023 71.9572 101.255 70.2333Z" fill="white"/>
<path d="M95.0273 61.831L118.34 44.5197C118.34 44.5197 118.795 44.2248 119.327 44.6593C119.327 44.6593 119.626 45.038 119.252 45.6276L97.7526 67.2683L95.0273 61.831Z" fill="white"/>
<path d="M146.374 42.8531C146.371 42.8531 146.365 42.8531 146.362 42.8531C146.15 42.8469 145.98 42.6607 145.986 42.4403C145.986 42.4186 146.033 40.243 145.127 37.2233C144.292 34.4426 142.453 30.3584 138.432 26.6808C134.405 22.9969 129.051 21.4421 125.266 20.7841C121.144 20.0672 117.937 20.2317 117.907 20.2348C117.695 20.2441 117.513 20.0765 117.501 19.8562C117.489 19.6358 117.653 19.4465 117.866 19.4341C117.997 19.4279 121.174 19.2603 125.377 19.9896C129.266 20.6631 134.779 22.2676 138.947 26.0787C143.114 29.8898 145.016 34.1323 145.878 37.0185C146.814 40.1561 146.763 42.372 146.763 42.4652C146.754 42.6824 146.584 42.8531 146.374 42.8531Z" fill="white"/>
<path d="M141.001 43.9269C140.998 43.9269 140.992 43.9269 140.989 43.9269C140.776 43.9207 140.606 43.7345 140.612 43.5141C140.612 43.4986 140.648 41.7824 139.933 39.4051C139.275 37.2171 137.827 34.0019 134.662 31.1063C131.491 28.2046 127.267 26.9787 124.284 26.4604C121.03 25.8956 118.499 26.0259 118.472 26.0259C118.26 26.0352 118.077 25.8676 118.065 25.6473C118.053 25.4269 118.218 25.2376 118.43 25.2252C118.535 25.219 121.057 25.0887 124.392 25.6659C127.482 26.1997 131.859 27.4752 135.173 30.5074C138.485 33.5364 139.999 36.9099 140.684 39.2065C141.429 41.7048 141.39 43.4707 141.387 43.5452C141.381 43.7531 141.207 43.9269 141.001 43.9269Z" fill="white"/>
<path d="M135.251 42.5707C135.249 42.5707 135.243 42.5707 135.24 42.5707C135.027 42.5645 134.857 42.3783 134.863 42.1579C134.863 42.1176 134.922 37.9992 131.249 34.635C127.542 31.246 121.446 31.5408 121.386 31.5439C121.171 31.5564 120.991 31.3857 120.979 31.1653C120.967 30.945 121.132 30.7557 121.344 30.7432C121.607 30.7277 127.821 30.4298 131.76 34.0329C135.718 37.6547 135.643 41.9965 135.637 42.1796C135.634 42.3969 135.461 42.5707 135.251 42.5707Z" fill="white"/>
<path d="M107.742 57.9237C107.742 57.9237 117.641 66.6911 122.409 74.0153H121.927C121.927 74.0153 111.475 61.3096 107.236 58.6127L107.742 57.9237Z" fill="white"/>
<path d="M83.7266 35.2774C83.7266 35.2774 99.4947 42.5489 107.865 50.5249C107.865 50.5249 106.453 46.2824 98.0348 40.8327C89.6168 35.383 83.7266 35.2774 83.7266 35.2774Z" fill="white"/>
<path d="M112.486 53.7557C112.486 53.7557 118.715 57.5978 124.506 65.4465C130.298 73.2953 131.464 78.0405 131.464 78.0405C131.464 78.0405 122.645 65.0152 119.439 61.7844C116.235 58.5537 112.486 53.7557 112.486 53.7557Z" fill="white"/>
<path d="M62.3365 127.076H56.6707C56.7215 127.548 56.8442 127.898 57.0386 128.128C57.3108 128.46 57.6668 128.624 58.1096 128.624C58.3878 128.624 58.651 128.553 58.9023 128.407C59.0549 128.317 59.2194 128.156 59.3959 127.923L62.181 128.19C61.7562 128.96 61.2416 129.509 60.6404 129.844C60.0391 130.179 59.1745 130.344 58.0497 130.344C57.0715 130.344 56.3027 130.201 55.7433 129.916C55.1839 129.63 54.7202 129.177 54.3523 128.553C53.9843 127.932 53.7988 127.2 53.7988 126.359C53.7988 125.164 54.1668 124.196 54.9057 123.454C55.6446 122.715 56.6647 122.343 57.966 122.343C59.022 122.343 59.8536 122.508 60.4668 122.84C61.0771 123.172 61.5438 123.653 61.8639 124.28C62.184 124.91 62.3425 125.729 62.3425 126.738V127.076H62.3365ZM59.4617 125.67C59.4049 125.102 59.2583 124.699 59.022 124.453C58.7826 124.208 58.4685 124.087 58.0796 124.087C57.6309 124.087 57.2719 124.273 57.0027 124.643C56.8322 124.872 56.7215 125.217 56.6766 125.673H59.4617V125.67Z" fill="#FD2A22"/>
<path d="M69.1364 127.178L71.8227 127.495C71.6731 128.075 71.4308 128.578 71.0928 129.003C70.7548 129.428 70.324 129.757 69.7975 129.993C69.271 130.229 68.6039 130.347 67.7932 130.347C67.0094 130.347 66.3603 130.272 65.8368 130.12C65.3133 129.968 64.8675 129.723 64.4936 129.385C64.1197 129.047 63.8235 128.649 63.6111 128.193C63.3987 127.737 63.291 127.132 63.291 126.378C63.291 125.589 63.4197 124.934 63.6799 124.413C63.8684 124.028 64.1286 123.684 64.4577 123.38C64.7868 123.075 65.1248 122.849 65.4718 122.7C66.0222 122.464 66.7282 122.346 67.5898 122.346C68.7923 122.346 69.7107 122.57 70.3449 123.016C70.9761 123.463 71.4189 124.115 71.6761 124.975L69.0167 125.341C68.933 125.015 68.7804 124.767 68.562 124.602C68.3406 124.438 68.0475 124.354 67.6765 124.354C67.2099 124.354 66.8299 124.528 66.5398 124.875C66.2496 125.223 66.106 125.751 66.106 126.455C66.106 127.082 66.2496 127.56 66.5368 127.886C66.824 128.212 67.1889 128.376 67.6346 128.376C68.0056 128.376 68.3167 128.277 68.568 128.081C68.8223 127.889 69.0107 127.585 69.1364 127.178Z" fill="#FD2A22"/>
<path d="M72.878 119.612H75.7049V123.504C76.0878 123.091 76.4708 122.796 76.8507 122.616C77.2306 122.439 77.6793 122.349 78.1968 122.349C78.9657 122.349 79.5699 122.591 80.0127 123.075C80.4554 123.56 80.6768 124.304 80.6768 125.31V130.173H77.8349V125.965C77.8349 125.484 77.7481 125.145 77.5776 124.944C77.4071 124.745 77.1648 124.646 76.8567 124.646C76.5126 124.646 76.2374 124.779 76.022 125.049C75.8096 125.319 75.702 125.8 75.702 126.499V130.173H72.875V119.612H72.878Z" fill="#FD2A22"/>
<path d="M86.5684 125.189H90.6787V127.458H86.5684V125.189Z" fill="#FD2A22"/>
<path d="M95.7305 119.612H98.719L99.7959 125.524L101.369 119.612H104.346L105.925 125.518L107.002 119.612H109.976L107.732 130.176H104.648L102.862 123.525L101.082 130.176H97.998L95.7305 119.612Z" fill="#FD2A22"/>
<path d="M118.633 127.076H112.968C113.018 127.548 113.141 127.898 113.335 128.128C113.608 128.46 113.964 128.624 114.406 128.624C114.685 128.624 114.948 128.553 115.199 128.407C115.352 128.317 115.516 128.156 115.693 127.923L118.478 128.19C118.053 128.96 117.539 129.509 116.937 129.844C116.336 130.179 115.471 130.344 114.347 130.344C113.368 130.344 112.6 130.201 112.04 129.916C111.481 129.63 111.017 129.177 110.649 128.553C110.281 127.932 110.096 127.2 110.096 126.359C110.096 125.164 110.464 124.196 111.203 123.454C111.941 122.715 112.962 122.343 114.263 122.343C115.319 122.343 116.153 122.508 116.764 122.84C117.374 123.172 117.841 123.653 118.161 124.28C118.481 124.91 118.639 125.729 118.639 126.738V127.076H118.633ZM115.759 125.67C115.702 125.102 115.555 124.699 115.319 124.453C115.08 124.208 114.765 124.087 114.377 124.087C113.928 124.087 113.569 124.273 113.3 124.643C113.129 124.872 113.018 125.217 112.974 125.673H115.759V125.67Z" fill="#FD2A22"/>
<path d="M120.031 119.612H122.864V130.176H120.031V119.612Z" fill="#FD2A22"/>
<path d="M128.08 119.612V122.523H129.636V124.671H128.08V127.383C128.08 127.709 128.11 127.926 128.17 128.032C128.262 128.196 128.424 128.277 128.657 128.277C128.867 128.277 129.157 128.215 129.534 128.091L129.743 130.114C129.043 130.272 128.391 130.353 127.784 130.353C127.081 130.353 126.56 130.26 126.228 130.074C125.896 129.888 125.648 129.602 125.489 129.22C125.331 128.839 125.25 128.221 125.25 127.368V124.677H124.209V122.529H125.25V121.123L128.08 119.612Z" fill="#FD2A22"/>
<path d="M14.918 135.07H16.5842V139.288H19.1838V140.666H14.918V135.07Z" fill="white"/>
<path d="M24.1795 139.024H21.179C21.206 139.273 21.2718 139.459 21.3735 139.583C21.5171 139.76 21.7055 139.847 21.9389 139.847C22.0855 139.847 22.2261 139.809 22.3577 139.732C22.4385 139.682 22.5252 139.598 22.6179 139.477L24.0927 139.617C23.8684 140.024 23.5962 140.315 23.2761 140.492C22.956 140.669 22.5013 140.756 21.903 140.756C21.3854 140.756 20.9786 140.682 20.6825 140.53C20.3863 140.377 20.141 140.138 19.9436 139.809C19.7491 139.481 19.6504 139.093 19.6504 138.649C19.6504 138.016 19.8448 137.504 20.2367 137.109C20.6286 136.718 21.1671 136.523 21.8581 136.523C22.4175 136.523 22.8602 136.61 23.1833 136.787C23.5064 136.964 23.7547 137.218 23.9222 137.55C24.0927 137.882 24.1765 138.317 24.1765 138.851V139.024H24.1795ZM22.6568 138.279C22.6269 137.978 22.5491 137.764 22.4235 137.634C22.2979 137.504 22.1303 137.438 21.9239 137.438C21.6846 137.438 21.4961 137.538 21.3525 137.733C21.2628 137.854 21.203 138.037 21.179 138.279H22.6568Z" fill="white"/>
<path d="M27.3927 136.61H28.7897V137.203C28.9902 136.954 29.1936 136.78 29.4 136.675C29.6064 136.569 29.8517 136.52 30.1419 136.52C30.453 136.52 30.7013 136.576 30.8838 136.69C31.0662 136.805 31.2128 136.976 31.3295 137.203C31.5658 136.939 31.7782 136.759 31.9727 136.663C32.1671 136.566 32.4034 136.52 32.6876 136.52C33.1064 136.52 33.4325 136.65 33.6688 136.908C33.9052 137.165 34.0218 137.569 34.0218 138.118V140.663H32.5201V138.354C32.5201 138.171 32.4872 138.034 32.4184 137.944C32.3167 137.805 32.194 137.733 32.0445 137.733C31.868 137.733 31.7274 137.798 31.6197 137.932C31.512 138.065 31.4581 138.276 31.4581 138.568V140.66H29.9564V138.428C29.9564 138.252 29.9474 138.13 29.9265 138.065C29.8936 137.963 29.8397 137.882 29.759 137.82C29.6812 137.758 29.5884 137.727 29.4808 137.727C29.3073 137.727 29.1667 137.795 29.056 137.929C28.9453 138.062 28.8884 138.286 28.8884 138.593V140.663H27.3867V136.61H27.3927Z" fill="white"/>
<path d="M34.7305 138.649C34.7305 138.031 34.9309 137.522 35.3347 137.119C35.7356 136.718 36.2801 136.517 36.9651 136.517C37.7489 136.517 38.3382 136.753 38.7391 137.224C39.0591 137.603 39.2207 138.072 39.2207 138.624C39.2207 139.248 39.0203 139.757 38.6224 140.157C38.2245 140.554 37.6711 140.753 36.9681 140.753C36.3399 140.753 35.8313 140.589 35.4454 140.256C34.9698 139.85 34.7305 139.313 34.7305 138.649ZM36.2322 138.646C36.2322 139.006 36.304 139.276 36.4446 139.446C36.5852 139.62 36.7617 139.707 36.9771 139.707C37.1925 139.707 37.369 139.623 37.5096 139.453C37.6472 139.282 37.716 139.009 37.716 138.633C37.716 138.283 37.6472 138.022 37.5066 137.848C37.366 137.677 37.1925 137.591 36.989 137.591C36.7707 137.591 36.5912 137.677 36.4476 137.851C36.304 138.025 36.2322 138.289 36.2322 138.646Z" fill="white"/>
<path d="M39.9405 136.61H41.3345V137.271C41.5439 137.001 41.7533 136.808 41.9687 136.694C42.1811 136.579 42.4414 136.52 42.7495 136.52C43.1653 136.52 43.4884 136.647 43.7217 136.905C43.9551 137.159 44.0717 137.556 44.0717 138.09V140.666H42.567V138.438C42.567 138.183 42.5221 138.003 42.4324 137.898C42.3427 137.792 42.214 137.739 42.0495 137.739C41.867 137.739 41.7204 137.811 41.6067 137.954C41.4931 138.096 41.4362 138.351 41.4362 138.72V140.666H39.9375V136.61H39.9405Z" fill="white"/>
<path d="M49.0801 135.07V140.666H47.6771V140.067C47.4797 140.322 47.3032 140.492 47.1387 140.582C46.9233 140.7 46.684 140.759 46.4177 140.759C45.8852 140.759 45.4784 140.548 45.1972 140.129C44.916 139.71 44.7754 139.198 44.7754 138.599C44.7754 137.929 44.9309 137.414 45.2421 137.057C45.5532 136.7 45.948 136.523 46.4237 136.523C46.657 136.523 46.8694 136.563 47.0579 136.644C47.2493 136.725 47.4169 136.849 47.5634 137.01V135.07H49.0801ZM47.5784 138.627C47.5784 138.31 47.5126 138.072 47.384 137.916C47.2553 137.761 47.0908 137.68 46.8904 137.68C46.7169 137.68 46.5703 137.755 46.4536 137.907C46.3369 138.056 46.2771 138.31 46.2771 138.664C46.2771 138.996 46.3369 139.238 46.4596 139.39C46.5822 139.546 46.7318 139.62 46.9113 139.62C47.1028 139.62 47.2613 139.543 47.3899 139.387C47.5156 139.229 47.5784 138.978 47.5784 138.627Z" fill="white"/>
<path d="M54.3309 139.024H51.3275C51.3544 139.273 51.4202 139.459 51.5219 139.583C51.6655 139.76 51.854 139.847 52.0873 139.847C52.2339 139.847 52.3745 139.809 52.5061 139.732C52.5869 139.682 52.6736 139.598 52.7664 139.477L54.2412 139.617C54.0168 140.024 53.7446 140.315 53.4245 140.492C53.1044 140.669 52.6497 140.756 52.0514 140.756C51.5339 140.756 51.127 140.682 50.8309 140.53C50.5347 140.377 50.2894 140.138 50.092 139.809C49.8975 139.481 49.7988 139.093 49.7988 138.649C49.7988 138.016 49.9933 137.504 50.3852 137.109C50.777 136.718 51.3155 136.523 52.0065 136.523C52.566 136.523 53.0087 136.61 53.3318 136.787C53.6548 136.964 53.9031 137.218 54.0707 137.55C54.2412 137.882 54.3249 138.317 54.3249 138.851V139.024H54.3309ZM52.8083 138.279C52.7783 137.978 52.7006 137.764 52.5749 137.634C52.4493 137.504 52.2818 137.438 52.0753 137.438C51.836 137.438 51.6476 137.538 51.504 137.733C51.4142 137.854 51.3544 138.037 51.3305 138.279H52.8083Z" fill="white"/>
<path d="M61.6446 135.07V140.666H60.2416V140.067C60.0441 140.322 59.8676 140.492 59.7031 140.582C59.4877 140.7 59.2484 140.759 58.9822 140.759C58.4497 140.759 58.0428 140.548 57.7616 140.129C57.4804 139.71 57.3398 139.198 57.3398 138.599C57.3398 137.929 57.4954 137.414 57.8065 137.057C58.1176 136.7 58.5125 136.523 58.9881 136.523C59.2215 136.523 59.4339 136.563 59.6223 136.644C59.8138 136.725 59.9813 136.849 60.1279 137.01V135.07H61.6446ZM60.1429 138.627C60.1429 138.31 60.0771 138.072 59.9484 137.916C59.8198 137.761 59.6552 137.68 59.4548 137.68C59.2813 137.68 59.1347 137.755 59.0181 137.907C58.9014 138.056 58.8416 138.31 58.8416 138.664C58.8416 138.996 58.9014 139.238 59.024 139.39C59.1467 139.546 59.2963 139.62 59.4758 139.62C59.6672 139.62 59.8258 139.543 59.9544 139.387C60.08 139.229 60.1429 138.978 60.1429 138.627Z" fill="white"/>
<path d="M66.8954 139.024H63.8919C63.9189 139.273 63.9847 139.459 64.0864 139.583C64.23 139.76 64.4184 139.847 64.6518 139.847C64.7984 139.847 64.9389 139.809 65.0706 139.732C65.1513 139.682 65.2381 139.598 65.3308 139.477L66.8056 139.617C66.5813 140.024 66.309 140.315 65.989 140.492C65.6689 140.669 65.2142 140.756 64.6159 140.756C64.0983 140.756 63.6915 140.682 63.3953 140.53C63.0992 140.377 62.8539 140.138 62.6564 139.809C62.462 139.481 62.3633 139.093 62.3633 138.649C62.3633 138.016 62.5577 137.504 62.9496 137.109C63.3415 136.718 63.88 136.523 64.571 136.523C65.1304 136.523 65.5731 136.61 65.8962 136.787C66.2193 136.964 66.4676 137.218 66.6351 137.55C66.8056 137.882 66.8894 138.317 66.8894 138.851V139.024H66.8954ZM65.3697 138.279C65.3398 137.978 65.262 137.764 65.1364 137.634C65.0107 137.504 64.8432 137.438 64.6368 137.438C64.3975 137.438 64.209 137.538 64.0654 137.733C63.9757 137.854 63.9159 138.037 63.8919 138.279H65.3697Z" fill="white"/>
<path d="M70.1465 135.07H71.6482V140.666H70.1465V135.07Z" fill="white"/>
<path d="M73.9704 137.923L72.5405 137.767C72.5943 137.507 72.6721 137.305 72.7738 137.156C72.8755 137.007 73.0221 136.877 73.2136 136.768C73.3512 136.69 73.5396 136.628 73.779 136.585C74.0183 136.541 74.2785 136.52 74.5597 136.52C75.0085 136.52 75.3704 136.545 75.6427 136.597C75.9149 136.65 76.1422 136.759 76.3247 136.923C76.4534 137.038 76.5521 137.199 76.6269 137.41C76.7016 137.622 76.7375 137.82 76.7375 138.013V139.803C76.7375 139.993 76.7495 140.145 76.7734 140.253C76.7974 140.362 76.8482 140.498 76.926 140.666H75.52C75.4632 140.561 75.4273 140.483 75.4093 140.427C75.3914 140.371 75.3764 140.287 75.3585 140.169C75.161 140.365 74.9666 140.505 74.7721 140.588C74.5059 140.7 74.2008 140.756 73.8478 140.756C73.3811 140.756 73.0281 140.644 72.7858 140.421C72.5435 140.197 72.4238 139.921 72.4238 139.592C72.4238 139.285 72.5106 139.031 72.6841 138.832C72.8576 138.633 73.1807 138.487 73.6473 138.388C74.2097 138.27 74.5717 138.189 74.7392 138.143C74.9068 138.096 75.0833 138.034 75.2687 137.957C75.2687 137.767 75.2298 137.631 75.155 137.556C75.0803 137.479 74.9456 137.442 74.7542 137.442C74.5089 137.442 74.3264 137.482 74.2038 137.563C74.105 137.628 74.0273 137.749 73.9704 137.923ZM75.2687 138.742C75.0623 138.819 74.8469 138.885 74.6256 138.944C74.3204 139.027 74.129 139.111 74.0482 139.192C73.9644 139.276 73.9226 139.372 73.9226 139.477C73.9226 139.598 73.9644 139.701 74.0452 139.778C74.126 139.856 74.2486 139.896 74.4072 139.896C74.5747 139.896 74.7303 139.853 74.8738 139.769C75.0174 139.685 75.1192 139.583 75.179 139.462C75.2388 139.341 75.2687 139.183 75.2687 138.99V138.742Z" fill="white"/>
<path d="M81.9476 135.07V136.613H82.7703V137.749H81.9476V139.186C81.9476 139.359 81.9626 139.471 81.9955 139.527C82.0433 139.614 82.1301 139.657 82.2527 139.657C82.3634 139.657 82.519 139.623 82.7164 139.558L82.8271 140.632C82.4561 140.716 82.1121 140.759 81.789 140.759C81.4151 140.759 81.1429 140.709 80.9664 140.61C80.7899 140.511 80.6583 140.362 80.5745 140.157C80.4907 139.955 80.4489 139.626 80.4489 139.176V137.752H79.8984V136.616H80.4489V135.871L81.9476 135.07Z" fill="white"/>
<path d="M87.8231 139.024H84.8197C84.8466 139.273 84.9124 139.459 85.0141 139.583C85.1577 139.76 85.3462 139.847 85.5795 139.847C85.7261 139.847 85.8667 139.809 85.9983 139.732C86.0791 139.682 86.1658 139.598 86.2586 139.477L87.7334 139.617C87.509 140.024 87.2368 140.315 86.9167 140.492C86.5966 140.669 86.1419 140.756 85.5436 140.756C85.0261 140.756 84.6192 140.682 84.3231 140.53C84.0269 140.377 83.7816 140.138 83.5842 139.809C83.3897 139.481 83.291 139.093 83.291 138.649C83.291 138.016 83.4855 137.504 83.8773 137.109C84.2692 136.718 84.8077 136.523 85.4987 136.523C86.0581 136.523 86.5009 136.61 86.824 136.787C87.147 136.964 87.3953 137.218 87.5629 137.55C87.7334 137.882 87.8171 138.317 87.8171 138.851V139.024H87.8231ZM86.3004 138.279C86.2705 137.978 86.1928 137.764 86.0671 137.634C85.9415 137.504 85.7739 137.438 85.5675 137.438C85.3282 137.438 85.1397 137.538 84.9962 137.733C84.9064 137.854 84.8466 138.037 84.8227 138.279H86.3004Z" fill="white"/>
<path d="M91.4252 139.077L92.8492 139.245C92.7714 139.552 92.6428 139.819 92.4633 140.045C92.2838 140.272 92.0564 140.446 91.7782 140.57C91.5 140.694 91.147 140.756 90.7162 140.756C90.3004 140.756 89.9564 140.716 89.6812 140.635C89.406 140.554 89.1666 140.424 88.9692 140.247C88.7718 140.067 88.6162 139.856 88.5025 139.617C88.3889 139.375 88.332 139.055 88.332 138.655C88.332 138.239 88.4008 137.892 88.5384 137.615C88.6402 137.41 88.7778 137.23 88.9513 137.069C89.1248 136.908 89.3043 136.787 89.4897 136.709C89.7829 136.585 90.1568 136.523 90.6115 136.523C91.2487 136.523 91.7363 136.641 92.0714 136.877C92.4064 137.113 92.6398 137.46 92.7774 137.916L91.3684 138.112C91.3235 137.938 91.2427 137.808 91.1261 137.721C91.0094 137.634 90.8538 137.59 90.6564 137.59C90.4081 137.59 90.2077 137.684 90.0551 137.867C89.9026 138.05 89.8248 138.329 89.8248 138.702C89.8248 139.034 89.8996 139.288 90.0521 139.459C90.2047 139.633 90.3991 139.716 90.6325 139.716C90.8299 139.716 90.9944 139.664 91.1261 139.561C91.2607 139.453 91.3594 139.291 91.4252 139.077Z" fill="white"/>
<path d="M93.4082 135.07H94.9069V137.131C95.1104 136.911 95.3138 136.756 95.5142 136.663C95.7146 136.569 95.954 136.523 96.2292 136.523C96.636 136.523 96.9561 136.65 97.1924 136.908C97.4258 137.165 97.5424 137.559 97.5424 138.09V140.666H96.0377V138.438C96.0377 138.183 95.9928 138.003 95.9031 137.898C95.8134 137.792 95.6847 137.739 95.5202 137.739C95.3377 137.739 95.1911 137.811 95.0774 137.954C94.9638 138.096 94.9069 138.351 94.9069 138.72V140.666H93.4082V135.07Z" fill="white"/>
<path d="M98.4346 136.61H99.8287V137.271C100.038 137.001 100.247 136.808 100.463 136.694C100.675 136.579 100.936 136.52 101.244 136.52C101.659 136.52 101.983 136.647 102.216 136.905C102.449 137.159 102.566 137.556 102.566 138.09V140.666H101.061V138.438C101.061 138.183 101.016 138.003 100.927 137.898C100.837 137.792 100.708 137.739 100.544 137.739C100.361 137.739 100.215 137.811 100.101 137.954C99.9872 138.096 99.9304 138.351 99.9304 138.72V140.666H98.4316V136.61H98.4346Z" fill="white"/>
<path d="M103.273 138.649C103.273 138.031 103.474 137.522 103.878 137.119C104.279 136.718 104.823 136.517 105.508 136.517C106.292 136.517 106.881 136.753 107.282 137.224C107.602 137.603 107.764 138.072 107.764 138.624C107.764 139.248 107.563 139.757 107.165 140.157C106.767 140.554 106.214 140.753 105.511 140.753C104.883 140.753 104.374 140.589 103.988 140.256C103.513 139.85 103.273 139.313 103.273 138.649ZM104.775 138.646C104.775 139.006 104.847 139.276 104.988 139.446C105.128 139.62 105.305 139.707 105.52 139.707C105.735 139.707 105.912 139.623 106.053 139.453C106.19 139.282 106.259 139.009 106.259 138.633C106.259 138.283 106.19 138.022 106.05 137.848C105.909 137.677 105.735 137.591 105.532 137.591C105.314 137.591 105.134 137.677 104.991 137.851C104.847 138.025 104.775 138.289 104.775 138.646Z" fill="white"/>
<path d="M108.535 135.07H110.037V140.666H108.535V135.07Z" fill="white"/>
<path d="M110.811 138.649C110.811 138.031 111.011 137.522 111.415 137.119C111.816 136.718 112.36 136.517 113.045 136.517C113.829 136.517 114.418 136.753 114.819 137.224C115.139 137.603 115.301 138.072 115.301 138.624C115.301 139.248 115.1 139.757 114.702 140.157C114.305 140.554 113.751 140.753 113.048 140.753C112.42 140.753 111.911 140.589 111.526 140.256C111.05 139.85 110.811 139.313 110.811 138.649ZM112.312 138.646C112.312 139.006 112.384 139.276 112.525 139.446C112.665 139.62 112.842 139.707 113.057 139.707C113.273 139.707 113.449 139.623 113.59 139.453C113.727 139.282 113.796 139.009 113.796 138.633C113.796 138.283 113.727 138.022 113.587 137.848C113.446 137.677 113.273 137.591 113.069 137.591C112.851 137.591 112.671 137.677 112.528 137.851C112.384 138.025 112.312 138.289 112.312 138.646Z" fill="white"/>
<path d="M118.737 136.61H120.14V140.436L120.143 140.616C120.143 140.871 120.092 141.113 119.987 141.343C119.882 141.572 119.745 141.758 119.571 141.901C119.398 142.044 119.179 142.146 118.913 142.212C118.647 142.277 118.342 142.308 117.998 142.308C117.214 142.308 116.673 142.187 116.379 141.942C116.086 141.696 115.94 141.371 115.94 140.961C115.94 140.911 115.943 140.84 115.946 140.756L117.4 140.927C117.435 141.066 117.492 141.163 117.57 141.215C117.681 141.293 117.818 141.333 117.986 141.333C118.201 141.333 118.363 141.274 118.471 141.153C118.578 141.032 118.629 140.824 118.629 140.526V139.912C118.482 140.092 118.336 140.222 118.186 140.306C117.956 140.433 117.708 140.495 117.438 140.495C116.915 140.495 116.493 140.259 116.173 139.785C115.946 139.449 115.832 139.006 115.832 138.453C115.832 137.823 115.979 137.342 116.275 137.01C116.568 136.678 116.954 136.514 117.429 136.514C117.735 136.514 117.986 136.566 118.183 136.675C118.381 136.78 118.566 136.957 118.737 137.206V136.61ZM117.328 138.577C117.328 138.869 117.388 139.086 117.507 139.229C117.627 139.369 117.785 139.44 117.983 139.44C118.168 139.44 118.327 139.366 118.453 139.22C118.578 139.074 118.641 138.854 118.641 138.559C118.641 138.264 118.575 138.037 118.444 137.882C118.312 137.727 118.15 137.646 117.959 137.646C117.768 137.646 117.615 137.718 117.501 137.86C117.385 138.003 117.328 138.242 117.328 138.577Z" fill="white"/>
<path d="M121.102 135.07H122.6V136.129H121.102V135.07ZM121.102 136.61H122.6V140.663H121.102V136.61Z" fill="white"/>
<path d="M127.891 139.024H124.888C124.915 139.273 124.981 139.459 125.082 139.583C125.226 139.76 125.415 139.847 125.648 139.847C125.794 139.847 125.935 139.809 126.067 139.732C126.147 139.682 126.234 139.598 126.327 139.477L127.802 139.617C127.577 140.024 127.305 140.315 126.985 140.492C126.665 140.669 126.21 140.756 125.612 140.756C125.094 140.756 124.688 140.682 124.391 140.53C124.095 140.377 123.85 140.138 123.653 139.809C123.458 139.481 123.359 139.093 123.359 138.649C123.359 138.016 123.554 137.504 123.946 137.109C124.338 136.718 124.876 136.523 125.567 136.523C126.126 136.523 126.569 136.61 126.892 136.787C127.215 136.964 127.464 137.218 127.631 137.55C127.802 137.882 127.885 138.317 127.885 138.851V139.024H127.891ZM126.369 138.279C126.339 137.978 126.261 137.764 126.135 137.634C126.01 137.504 125.842 137.438 125.636 137.438C125.397 137.438 125.208 137.538 125.065 137.733C124.975 137.854 124.915 138.037 124.891 138.279H126.369Z" fill="white"/>
<path d="M131.096 135.07H132.696V136.346L132.388 138.906H131.398L131.096 136.346V135.07ZM131.153 139.294H132.645V140.666H131.153V139.294Z" fill="white"/>
<path d="M172.784 92V70.436H164.396V66.62H185.816V70.436H177.428V92H172.784ZM189.497 92V66.62H206.597V70.256H193.961V77.276H205.769V80.948H193.961V88.328H206.597V92H189.497ZM223.08 92.36C220.44 92.36 218.172 91.832 216.276 90.776C214.404 89.696 212.964 88.184 211.956 86.24C210.948 84.272 210.444 81.956 210.444 79.292C210.444 76.628 210.948 74.324 211.956 72.38C212.964 70.436 214.404 68.936 216.276 67.88C218.172 66.8 220.44 66.26 223.08 66.26C224.856 66.26 226.452 66.512 227.868 67.016C229.308 67.52 230.544 68.264 231.576 69.248L230.064 72.92C228.936 72.008 227.844 71.36 226.788 70.976C225.756 70.568 224.568 70.364 223.224 70.364C220.656 70.364 218.688 71.144 217.32 72.704C215.976 74.24 215.304 76.436 215.304 79.292C215.304 82.148 215.976 84.356 217.32 85.916C218.688 87.476 220.656 88.256 223.224 88.256C224.568 88.256 225.756 88.064 226.788 87.68C227.844 87.272 228.936 86.6 230.064 85.664L231.576 89.336C230.544 90.296 229.308 91.04 227.868 91.568C226.452 92.096 224.856 92.36 223.08 92.36ZM236.317 92V66.62H240.961V77.204H253.957V66.62H258.601V92H253.957V81.056H240.961V92H236.317ZM271.651 92L262.687 66.62H267.511L274.423 87.428H272.983L280.435 66.62H283.891L290.804 87.428H289.472L296.707 66.62H301.244L292.207 92H288.355L281.66 72.488H282.451L275.503 92H271.651ZM305.355 92V66.62H322.455V70.256H309.819V77.276H321.627V80.948H309.819V88.328H322.455V92H305.355ZM327.165 92V66.62H331.809V88.076H343.761V92H327.165ZM349.01 92V70.436H340.622V66.62H362.042V70.436H353.654V92H349.01Z" fill="#FD2A22"/>
</svg>
