<svg width="30" height="33" viewBox="0 0 30 33" fill="none" xmlns="http://www.w3.org/2000/svg">
<path d="M9 3.00006L21 4.50006V33.0001L9 31.5001V3.00006Z" fill="#ECF0F1"/>
<path d="M0 4.50006L9 3.00006V31.5001L0 33.0001V4.50006Z" fill="#BDC3C7"/>
<path d="M21 4.50006L30 3.00006V31.5001L21 33.0001V4.50006Z" fill="#BDC3C7"/>
<path d="M1.5 6L9 4.5V30L1.5 31.5V6Z" fill="#27AE60"/>
<path d="M9 4.5L21 6V31.5L9 30V4.5Z" fill="#2ECC71"/>
<path d="M16.5 1.49994C14.0145 1.49994 12 3.51474 12 5.99994C12 8.48514 14.0145 10.4999 16.5 10.4999C18.9855 10.4999 21 8.48514 21 5.99994C21 3.51474 18.9855 1.49994 16.5 1.49994ZM16.5 4.49994C17.328 4.49994 18 5.17149 18 5.99994C18 6.82839 17.328 7.49994 16.5 7.49994C15.672 7.49994 15 6.82839 15 5.99994C15 5.17149 15.672 4.49994 16.5 4.49994Z" fill="#C0392B"/>
<path d="M28.5 30L21 31.5V6L28.5 4.5V30Z" fill="#27AE60"/>
<path d="M5.53125 5.1001L2.0625 5.8501L9 13.2V8.8501L5.53125 5.1001Z" fill="#F39C12"/>
<path d="M28.5 26.9999L21 28.4999V19.4999L28.5 14.9999V26.9999Z" fill="#F39C12"/>
<path d="M28.5 30L21 31.5V22.5L28.5 18V30Z" fill="#2980B9"/>
<path d="M9 20.9999L21 19.4999V28.4999L9 26.9999V20.9999Z" fill="#F1C40F"/>
<path d="M9 24L21 22.5V31.5L9 30V24Z" fill="#3498DB"/>
<path d="M1.5 25.5001L9 21.0001V27.0001L1.5 28.5001V25.5001Z" fill="#F39C12"/>
<path d="M1.5 28.4999L9 23.9999V29.9999L1.5 31.4999V28.4999Z" fill="#2980B9"/>
<path d="M9 13.2011V8.85339L15 21.8429H12.7965L9 13.2011Z" fill="#F1C40F"/>
<path d="M16.5 0C13.1865 0 10.5 2.7 10.5 6C10.5 7.05 10.7862 7.95004 11.2734 8.85004C11.3543 9.00004 11.4391 9.14993 11.5312 9.29993L16.5 18L21.468 9.29993C21.5445 9.14993 21.6105 9 21.6795 9L21.726 8.85004C22.2135 7.95004 22.5 7.05 22.5 6C22.5 2.7 19.8135 0 16.5 0ZM16.5 3C18.1575 3 19.5 4.35 19.5 6C19.5 7.65 18.1575 9 16.5 9C14.8425 9 13.5 7.65 13.5 6C13.5 4.35 14.8425 3 16.5 3Z" fill="#E74C3C"/>
</svg>
