<svg width="31" height="29" viewBox="0 0 31 29" fill="none" xmlns="http://www.w3.org/2000/svg">
<path d="M15.4824 28.5009C16.5503 28.5009 17.416 27.6352 17.416 26.5673C17.416 25.4994 16.5503 24.6337 15.4824 24.6337C14.4145 24.6337 13.5488 25.4994 13.5488 26.5673C13.5488 27.6352 14.4145 28.5009 15.4824 28.5009Z" fill="#D01400"/>
<path d="M30.2342 10.241C26.3829 6.10884 21.1676 3.83307 15.5486 3.83301C9.93006 3.83307 4.71482 6.10884 0.8634 10.241C0.42219 10.7145 0.448264 11.456 0.9217 11.8973C1.3952 12.3385 2.1367 12.3125 2.57797 11.839C5.98109 8.18769 10.5875 6.17681 15.549 6.17675C20.5101 6.17681 25.1165 8.18769 28.5197 11.839C28.7505 12.0866 29.0634 12.2119 29.3772 12.2119C29.6633 12.2119 29.9501 12.1077 30.1759 11.8973C30.6494 11.456 30.6755 10.7145 30.2342 10.241Z" fill="#D01400"/>
<path d="M25.654 15.0805C22.8071 12.2121 19.1199 10.6325 15.2715 10.6326C11.4222 10.6327 7.73486 12.2124 4.88885 15.0806C4.43299 15.5401 4.43586 16.2821 4.89529 16.7379C5.35473 17.1938 6.0967 17.1909 6.55256 16.7315C8.95519 14.31 12.0516 12.9764 15.2715 12.9764C18.4905 12.9763 21.5869 14.3099 23.9904 16.7316C24.2195 16.9624 24.5208 17.0779 24.8222 17.0779C25.1206 17.0779 25.4192 16.9646 25.6478 16.7378C26.1071 16.2819 26.1099 15.5399 25.654 15.0805Z" fill="#D01400"/>
<path d="M21.3892 19.9341C19.8645 18.4236 17.6792 17.4853 15.6857 17.4853C15.6855 17.4853 15.6851 17.4853 15.6848 17.4853H15.6004C15.6 17.4853 15.5999 17.4853 15.5995 17.4853C13.606 17.4853 11.4204 18.4236 9.89589 19.9341C9.43617 20.3896 9.43271 21.1315 9.88822 21.5913C10.1174 21.8226 10.419 21.9384 10.7207 21.9384C11.0188 21.9384 11.317 21.8254 11.5454 21.5991C12.6307 20.5238 14.222 19.8291 15.5996 19.8291C15.5998 19.8291 15.6 19.8291 15.6002 19.8291H15.685C15.6852 19.8291 15.6853 19.8291 15.6855 19.8291C17.063 19.8291 18.6544 20.5238 19.7396 21.5991C20.1993 22.0545 20.9414 22.0512 21.3968 21.5913C21.8524 21.1316 21.8489 20.3896 21.3892 19.9341Z" fill="#D01400"/>
<path d="M1.54883 1.83301L23.9095 24.1937" stroke="#D01400" stroke-width="2" stroke-linecap="round"/>
</svg>
