<svg width="31" height="26" viewBox="0 0 31 26" fill="none" xmlns="http://www.w3.org/2000/svg">
<path d="M15.0322 25.0844C16.1001 25.0844 16.9658 24.2187 16.9658 23.1508C16.9658 22.0829 16.1001 21.2172 15.0322 21.2172C13.9643 21.2172 13.0986 22.0829 13.0986 23.1508C13.0986 24.2187 13.9643 25.0844 15.0322 25.0844Z" fill="#28A745"/>
<path d="M29.784 6.82454C25.9327 2.69234 20.7174 0.416562 15.0984 0.416504C9.47987 0.416562 4.26462 2.69234 0.413204 6.82454C-0.0280057 7.29798 -0.00193148 8.03954 0.471505 8.4808C0.945 8.92202 1.6865 8.896 2.12777 8.4225C5.53089 4.77118 10.1373 2.76031 15.0988 2.76025C20.0599 2.76031 24.6663 4.77118 28.0695 8.4225C28.3003 8.67012 28.6132 8.79539 28.927 8.79539C29.2131 8.79539 29.4999 8.69121 29.7257 8.4808C30.1992 8.03948 30.2253 7.29798 29.784 6.82454Z" fill="#28A745"/>
<path d="M25.2038 11.664C22.3569 8.79563 18.6697 7.21601 14.8213 7.21613C10.972 7.21618 7.28466 8.79587 4.43865 11.6641C3.98279 12.1236 3.98567 12.8655 4.4451 13.3214C4.90453 13.7773 5.6465 13.7744 6.10236 13.315C8.50499 10.8935 11.6014 9.55993 14.8213 9.55987C18.0403 9.55975 21.1367 10.8934 23.5402 13.3151C23.7693 13.5459 24.0706 13.6614 24.372 13.6614C24.6704 13.6614 24.969 13.5481 25.1976 13.3213C25.6569 12.8654 25.6597 12.1234 25.2038 11.664Z" fill="#28A745"/>
<path d="M20.939 16.5176C19.4143 15.0071 17.229 14.0688 15.2355 14.0688C15.2353 14.0688 15.2349 14.0688 15.2346 14.0688H15.1502C15.1498 14.0688 15.1497 14.0688 15.1493 14.0688C13.1558 14.0688 10.9702 15.0071 9.4457 16.5176C8.98597 16.9731 8.98251 17.715 9.43802 18.1748C9.66718 18.4061 9.96882 18.5219 10.2705 18.5219C10.5686 18.5219 10.8668 18.4089 11.0952 18.1826C12.1806 17.1072 13.7718 16.4126 15.1494 16.4126C15.1496 16.4126 15.1498 16.4126 15.15 16.4126H15.2348C15.235 16.4126 15.2351 16.4126 15.2353 16.4126C16.6128 16.4126 18.2042 17.1073 19.2894 18.1826C19.7491 18.638 20.4912 18.6347 20.9466 18.1748C21.4022 17.7151 21.3987 16.9731 20.939 16.5176Z" fill="#28A745"/>
</svg>
