<svg width="50" height="51" viewBox="0 0 50 51" fill="none" xmlns="http://www.w3.org/2000/svg">
<g clip-path="url(#clip0_2728_1143)">
<path d="M31.7708 38.1875H18.2292C15.0687 38.1875 12.5 35.6187 12.5 32.4583V18.9167C12.5 15.7562 15.0687 13.1875 18.2292 13.1875H31.7708C34.9312 13.1875 37.5 15.7562 37.5 18.9167V32.4583C37.5 35.6187 34.9312 38.1875 31.7708 38.1875ZM18.2292 16.3125C16.7937 16.3125 15.625 17.4812 15.625 18.9167V32.4583C15.625 33.8937 16.7937 35.0625 18.2292 35.0625H31.7708C33.2062 35.0625 34.375 33.8937 34.375 32.4583V18.9167C34.375 17.4812 33.2062 16.3125 31.7708 16.3125H18.2292Z" fill="white"/>
<path d="M31.25 44.9583C30.3875 44.9583 29.6875 44.2583 29.6875 43.3958V37.1458C29.6875 36.2833 30.3875 35.5833 31.25 35.5833C32.1125 35.5833 32.8125 36.2833 32.8125 37.1458V43.3958C32.8125 44.2583 32.1125 44.9583 31.25 44.9583Z" fill="white"/>
<path d="M31.2497 50.6875C28.9518 50.6875 27.083 48.8188 27.083 46.5209C27.083 44.2229 28.9518 42.3542 31.2497 42.3542C33.5476 42.3542 35.4163 44.2229 35.4163 46.5209C35.4163 48.8188 33.5476 50.6875 31.2497 50.6875ZM31.2497 45.4792C30.6768 45.4792 30.208 45.9459 30.208 46.5209C30.208 47.0959 30.6768 47.5625 31.2497 47.5625C31.8226 47.5625 32.2913 47.0959 32.2913 46.5209C32.2913 45.9459 31.8226 45.4792 31.2497 45.4792Z" fill="white"/>
<path d="M18.75 44.9583C17.8875 44.9583 17.1875 44.2583 17.1875 43.3958V37.1458C17.1875 36.2833 17.8875 35.5833 18.75 35.5833C19.6125 35.5833 20.3125 36.2833 20.3125 37.1458V43.3958C20.3125 44.2583 19.6125 44.9583 18.75 44.9583Z" fill="white"/>
<path d="M18.7497 50.6875C16.4518 50.6875 14.583 48.8188 14.583 46.5209C14.583 44.2229 16.4518 42.3542 18.7497 42.3542C21.0476 42.3542 22.9163 44.2229 22.9163 46.5209C22.9163 48.8188 21.0476 50.6875 18.7497 50.6875ZM18.7497 45.4792C18.1768 45.4792 17.708 45.9459 17.708 46.5209C17.708 47.0959 18.1768 47.5625 18.7497 47.5625C19.3226 47.5625 19.7913 47.0959 19.7913 46.5209C19.7913 45.9459 19.3226 45.4792 18.7497 45.4792Z" fill="white"/>
<path d="M18.75 15.7917C17.8875 15.7917 17.1875 15.0917 17.1875 14.2292V7.97919C17.1875 7.11669 17.8875 6.41669 18.75 6.41669C19.6125 6.41669 20.3125 7.11669 20.3125 7.97919V14.2292C20.3125 15.0917 19.6125 15.7917 18.75 15.7917Z" fill="white"/>
<path d="M18.7497 9.02083C16.4518 9.02083 14.583 7.15208 14.583 4.85417C14.583 2.55625 16.4518 0.6875 18.7497 0.6875C21.0476 0.6875 22.9163 2.55625 22.9163 4.85417C22.9163 7.15208 21.0476 9.02083 18.7497 9.02083ZM18.7497 3.8125C18.1768 3.8125 17.708 4.27917 17.708 4.85417C17.708 5.42917 18.1768 5.89583 18.7497 5.89583C19.3226 5.89583 19.7913 5.42917 19.7913 4.85417C19.7913 4.27917 19.3226 3.8125 18.7497 3.8125Z" fill="white"/>
<path d="M31.25 15.7917C30.3875 15.7917 29.6875 15.0917 29.6875 14.2292V7.97919C29.6875 7.11669 30.3875 6.41669 31.25 6.41669C32.1125 6.41669 32.8125 7.11669 32.8125 7.97919V14.2292C32.8125 15.0917 32.1125 15.7917 31.25 15.7917Z" fill="white"/>
<path d="M31.2497 9.02083C28.9518 9.02083 27.083 7.15208 27.083 4.85417C27.083 2.55625 28.9518 0.6875 31.2497 0.6875C33.5476 0.6875 35.4163 2.55625 35.4163 4.85417C35.4163 7.15208 33.5476 9.02083 31.2497 9.02083ZM31.2497 3.8125C30.6768 3.8125 30.208 4.27917 30.208 4.85417C30.208 5.42917 30.6768 5.89583 31.2497 5.89583C31.8226 5.89583 32.2913 5.42917 32.2913 4.85417C32.2913 4.27917 31.8226 3.8125 31.2497 3.8125Z" fill="white"/>
<path d="M13.542 33.5H7.29199C6.42949 33.5 5.72949 32.8 5.72949 31.9375C5.72949 31.075 6.42949 30.375 7.29199 30.375H13.542C14.4045 30.375 15.1045 31.075 15.1045 31.9375C15.1045 32.8 14.4045 33.5 13.542 33.5Z" fill="white"/>
<path d="M4.16667 36.1041C1.86875 36.1041 0 34.2354 0 31.9375C0 29.6396 1.86875 27.7708 4.16667 27.7708C6.46458 27.7708 8.33333 29.6396 8.33333 31.9375C8.33333 34.2354 6.46458 36.1041 4.16667 36.1041ZM4.16667 30.8958C3.59375 30.8958 3.125 31.3625 3.125 31.9375C3.125 32.5125 3.59375 32.9791 4.16667 32.9791C4.73958 32.9791 5.20833 32.5125 5.20833 31.9375C5.20833 31.3625 4.73958 30.8958 4.16667 30.8958Z" fill="white"/>
<path d="M13.542 21H7.29199C6.42949 21 5.72949 20.3 5.72949 19.4375C5.72949 18.575 6.42949 17.875 7.29199 17.875H13.542C14.4045 17.875 15.1045 18.575 15.1045 19.4375C15.1045 20.3 14.4045 21 13.542 21Z" fill="white"/>
<path d="M4.16667 23.6041C1.86875 23.6041 0 21.7354 0 19.4375C0 17.1396 1.86875 15.2708 4.16667 15.2708C6.46458 15.2708 8.33333 17.1396 8.33333 19.4375C8.33333 21.7354 6.46458 23.6041 4.16667 23.6041ZM4.16667 18.3958C3.59375 18.3958 3.125 18.8625 3.125 19.4375C3.125 20.0125 3.59375 20.4791 4.16667 20.4791C4.73958 20.4791 5.20833 20.0125 5.20833 19.4375C5.20833 18.8625 4.73958 18.3958 4.16667 18.3958Z" fill="white"/>
<path d="M42.708 21H36.458C35.5955 21 34.8955 20.3 34.8955 19.4375C34.8955 18.575 35.5955 17.875 36.458 17.875H42.708C43.5705 17.875 44.2705 18.575 44.2705 19.4375C44.2705 20.3 43.5705 21 42.708 21Z" fill="white"/>
<path d="M45.8337 23.6041C43.5357 23.6041 41.667 21.7354 41.667 19.4375C41.667 17.1396 43.5357 15.2708 45.8337 15.2708C48.1316 15.2708 50.0003 17.1396 50.0003 19.4375C50.0003 21.7354 48.1316 23.6041 45.8337 23.6041ZM45.8337 18.3958C45.2607 18.3958 44.792 18.8625 44.792 19.4375C44.792 20.0125 45.2607 20.4791 45.8337 20.4791C46.4066 20.4791 46.8753 20.0125 46.8753 19.4375C46.8753 18.8625 46.4066 18.3958 45.8337 18.3958Z" fill="white"/>
<path d="M42.708 33.5H36.458C35.5955 33.5 34.8955 32.8 34.8955 31.9375C34.8955 31.075 35.5955 30.375 36.458 30.375H42.708C43.5705 30.375 44.2705 31.075 44.2705 31.9375C44.2705 32.8 43.5705 33.5 42.708 33.5Z" fill="white"/>
<path d="M45.8337 36.1041C43.5357 36.1041 41.667 34.2354 41.667 31.9375C41.667 29.6396 43.5357 27.7708 45.8337 27.7708C48.1316 27.7708 50.0003 29.6396 50.0003 31.9375C50.0003 34.2354 48.1316 36.1041 45.8337 36.1041ZM45.8337 30.8958C45.2607 30.8958 44.792 31.3625 44.792 31.9375C44.792 32.5125 45.2607 32.9791 45.8337 32.9791C46.4066 32.9791 46.8753 32.5125 46.8753 31.9375C46.8753 31.3625 46.4066 30.8958 45.8337 30.8958Z" fill="white"/>
</g>
<defs>
<clipPath id="clip0_2728_1143">
<rect width="50" height="50" fill="white" transform="translate(0 0.6875)"/>
</clipPath>
</defs>
</svg>
