<svg width="50" height="51" viewBox="0 0 50 51" fill="none" xmlns="http://www.w3.org/2000/svg">
<g clip-path="url(#clip0_2728_1162)">
<path d="M36.3227 22.1446V12.6822C36.3227 12.4114 36.1976 12.1611 36.0206 11.9631L25.412 0.823104C25.214 0.614822 24.9324 0.5 24.6513 0.5H7.83157C4.72641 0.5 2.24609 3.03219 2.24609 6.13773V37.9427C2.24609 41.0483 4.72641 43.5389 7.83157 43.5389H21.1082C23.6194 47.7072 28.1841 50.4999 33.3839 50.4999C41.283 50.4999 47.7336 44.0806 47.7336 36.1712C47.7443 29.262 42.7837 23.4889 36.3227 22.1446ZM25.6935 4.15791L32.8109 11.6503H28.1944C26.8188 11.6503 25.6935 10.5147 25.6935 9.13913V4.15791ZM7.83157 41.4545C5.88302 41.4545 4.33044 39.8913 4.33044 37.9427V6.13773C4.33044 4.17851 5.88302 2.58435 7.83157 2.58435H23.6091V9.13913C23.6091 11.6713 25.6622 13.7347 28.1944 13.7347H34.2384V21.8733C33.926 21.863 33.6757 21.8318 33.4049 21.8318C29.768 21.8318 26.4228 23.2283 23.901 25.4168H10.6663C10.0929 25.4168 9.62409 25.8856 9.62409 26.4586C9.62409 27.0319 10.0929 27.5008 10.6663 27.5008H21.9627C21.2227 28.5429 20.6077 29.5851 20.1286 30.7314H10.6663C10.0929 30.7314 9.62409 31.2003 9.62409 31.7736C9.62409 32.3466 10.0929 32.8158 10.6663 32.8158H19.4511C19.1906 33.858 19.0552 35.0146 19.0552 36.1712C19.0552 38.0469 19.4198 39.902 20.0763 41.4652H7.83157V41.4545ZM33.3946 48.4263C26.6418 48.4263 21.1498 42.9342 21.1498 36.1815C21.1498 29.4287 26.6311 23.9367 33.3946 23.9367C40.1576 23.9367 45.639 29.4287 45.639 36.1815C45.639 42.9342 40.1473 48.4263 33.3946 48.4263Z" fill="#FFE600"/>
<path d="M10.6662 22.28H21.2226C21.7959 22.28 22.2648 21.8108 22.2648 21.2378C22.2648 20.6644 21.7959 20.1956 21.2226 20.1956H10.6662C10.0928 20.1956 9.62402 20.6644 9.62402 21.2378C9.62402 21.8108 10.0928 22.28 10.6662 22.28Z" fill="#FFE600"/>
<path d="M34.1343 28.4907C33.9363 28.2824 33.6655 28.1573 33.3737 28.1573C33.0818 28.1573 32.811 28.2824 32.613 28.4907L26.5061 35.0455C26.1101 35.4624 26.1414 36.1292 26.5583 36.5149C26.9753 36.9109 27.6524 36.8796 28.0484 36.463L32.3628 31.8465V43.2261C32.3628 43.7994 32.8316 44.2683 33.4049 44.2683C33.9779 44.2683 34.4471 43.7994 34.4471 43.2261V31.8465L38.7299 36.463C38.9385 36.6816 39.2094 36.7964 39.4909 36.7964C39.7408 36.7964 39.991 36.7026 40.1993 36.5149C40.6162 36.1189 40.6475 35.4624 40.2516 35.0455L34.1343 28.4907Z" fill="#FFE600"/>
</g>
<defs>
<clipPath id="clip0_2728_1162">
<rect width="50" height="50" fill="white" transform="translate(0 0.5)"/>
</clipPath>
</defs>
</svg>
