<svg width="50" height="51" viewBox="0 0 50 51" fill="none" xmlns="http://www.w3.org/2000/svg">
<g clip-path="url(#clip0_2728_1824)">
<path d="M25 0.500183V6.75017C35.3552 6.75017 43.7499 15.1448 43.7499 25.5001C43.7499 35.8555 35.3553 44.2501 25 44.2501C14.6446 44.2501 6.24999 35.8555 6.24999 25.5001V25.4999H0V25.5C0 39.307 11.1928 50.4999 24.9999 50.4999C38.8069 50.4999 49.9999 39.3071 49.9999 25.5C49.9999 11.6929 38.8071 0.500183 25 0.500183Z" fill="#01C0FA"/>
<path d="M34.1093 2.21155C41.2312 6.61702 45.9761 14.4984 45.9761 23.488C45.9761 37.295 34.7832 48.4879 20.9762 48.4879C17.7621 48.4879 14.6896 47.8814 11.8672 46.7765C15.6837 49.1373 20.1829 50.4999 25.0004 50.4999C38.8073 50.5001 50.0002 39.3073 50.0002 25.5001C50.0002 14.9072 43.4118 5.85295 34.1093 2.21155Z" fill="#08A9F1"/>
<path d="M24.9999 6.75018V0.500183C11.1929 0.500183 9.76563e-05 11.693 0 25.5H6.25C6.25 15.1447 14.6446 6.75018 24.9999 6.75018Z" fill="#B2CAEC"/>
<path d="M25 1.53555L31.2986 7.83418C32.7955 8.36797 34.2046 9.08643 35.4984 9.9624L26.058 0.521875C25.7074 0.507422 25.3549 0.5 25.0007 0.5C25.0005 0.5 25.0002 0.500098 25 0.500195V1.53555Z" fill="#08A9F1"/>
<path d="M25 6.74999C25.3578 6.74999 25.7133 6.76005 26.0662 6.77987L25 5.71356V6.74999Z" fill="#08A9F1"/>
<path d="M38.7662 38.2301C38.4345 38.5886 38.089 38.9342 37.7305 39.2658L42.1524 43.6878C42.5076 43.3527 42.8531 43.0073 43.1882 42.6521L38.7662 38.2301Z" fill="#08A9F1"/>
<path d="M42.6653 19.2014L49.9793 26.5153C49.9927 26.1786 49.9995 25.8401 49.9995 25.5C49.9995 25.1456 49.9921 24.793 49.9775 24.4421L40.5371 15.0016C41.413 16.2955 42.1315 17.7046 42.6653 19.2014Z" fill="#08A9F1"/>
<path d="M0.0219727 26.5576L9.46182 35.9974C8.58604 34.7036 7.86768 33.2947 7.33408 31.7981L1.03594 25.4999H9.76563e-05V25.5C9.76563e-05 25.5 9.76563e-05 25.5001 0 25.5002C0 25.8544 0.00742187 26.2069 0.0219727 26.5576Z" fill="#08A9F1"/>
<path d="M18.7022 43.1658C17.2056 42.6322 15.7967 41.9138 14.5029 41.0381L23.9428 50.4779C24.2935 50.4926 24.6461 50.4999 25.0004 50.4999C25.3405 50.4999 25.6792 50.4931 26.016 50.4796L18.7022 43.1658Z" fill="#08A9F1"/>
<path d="M30.9189 1.20477L49.2956 19.5813C49.0458 18.5525 48.7324 17.5486 48.3598 16.5739L33.9263 2.14052C32.9517 1.76786 31.9478 1.45448 30.9189 1.20477Z" fill="#08A9F1"/>
<path d="M35.3945 41.1077C34.9773 41.3861 34.5482 41.6481 34.1084 41.8931L38.6583 46.4429C39.074 46.1712 39.4812 45.8875 39.8792 45.5922L35.3945 41.1077Z" fill="#08A9F1"/>
<path d="M41.3929 34.6077C41.1479 35.0476 40.8858 35.4766 40.6074 35.8938L45.092 40.3785C45.3872 39.9804 45.671 39.5733 45.9427 39.1576L41.3929 34.6077Z" fill="#08A9F1"/>
<path d="M43.7495 25.4999C43.7495 25.8383 43.7404 26.1744 43.7228 26.5084L49.1605 31.9461C49.3081 31.3916 49.4371 30.8296 49.5468 30.2608L43.7197 24.4337C43.7395 24.7865 43.7495 25.1421 43.7495 25.4999Z" fill="#08A9F1"/>
<path d="M43.1725 30.1363C43.0352 30.6762 42.8744 31.2068 42.6914 31.7268L47.459 36.4945C47.6883 36.0269 47.9034 35.5512 48.1039 35.0677L43.1725 30.1363Z" fill="#08A9F1"/>
<path d="M31.2272 43.191C30.7072 43.3741 30.1767 43.5348 29.6367 43.6721L34.5682 48.6035C35.0516 48.4031 35.5273 48.188 35.9948 47.9586L31.2272 43.191Z" fill="#08A9F1"/>
<path d="M6.27988 26.566C6.26006 26.2131 6.25 25.8578 6.25 25.4999H5.21387L6.27988 26.566Z" fill="#08A9F1"/>
<path d="M26.0083 44.2232C25.6743 44.2409 25.3381 44.2499 24.9996 44.2499C24.6418 44.2499 24.2864 44.2399 23.9336 44.2202L29.7606 50.0472C30.3295 49.9375 30.8916 49.8085 31.446 49.661L26.0083 44.2232Z" fill="#08A9F1"/>
<path d="M16.0748 48.8595C17.0494 49.2322 18.0533 49.5456 19.0821 49.7953L0.705078 31.4182C0.954785 32.447 1.26816 33.4509 1.64082 34.4255L16.0748 48.8595Z" fill="#08A9F1"/>
<path d="M43.1878 42.6521L40.1118 39.5761C39.7968 39.9504 39.4709 40.3155 39.1348 40.6706L42.1521 43.6878C42.5072 43.3528 42.8526 43.0073 43.1878 42.6521Z" fill="#0290CF"/>
<path d="M39.8786 45.5922L36.9805 42.694C36.603 43.0089 36.2161 43.3129 35.8203 43.6055L38.6577 46.4428C39.0733 46.1712 39.4805 45.8875 39.8786 45.5922Z" fill="#0290CF"/>
<path d="M42.4268 10.6416C43.1889 11.9113 43.8413 13.2544 44.3713 14.6577L49.295 19.5814C49.0452 18.5526 48.7318 17.5487 48.3592 16.574L42.4268 10.6416Z" fill="#0290CF"/>
<path d="M45.9432 39.1576L42.6833 35.8977C42.4333 36.334 42.1705 36.7622 41.8955 37.1815L45.0925 40.3786C45.3878 39.9805 45.6715 39.5734 45.9432 39.1576Z" fill="#0290CF"/>
<path d="M16.074 48.8595C17.0486 49.2321 18.0525 49.5455 19.0813 49.7952L17.5398 48.2537C16.671 48.1343 15.8164 47.9702 14.9785 47.764L16.074 48.8595Z" fill="#0290CF"/>
<path d="M49.1612 31.9461C49.3088 31.3916 49.4378 30.8296 49.5475 30.2608L45.7954 26.5087C45.7228 27.1122 45.6285 27.7091 45.5137 28.2986L49.1612 31.9461Z" fill="#0290CF"/>
<path d="M45.7656 20.2294C45.8625 20.9738 45.9267 21.7285 45.9566 22.4919L49.9801 26.5153C49.9935 26.1786 50.0003 25.84 50.0003 25.5C50.0003 25.1456 49.9929 24.7928 49.9783 24.4421L45.7656 20.2294Z" fill="#0290CF"/>
<path d="M23.9427 50.478C24.2934 50.4926 24.646 50.4999 25.0003 50.4999C25.3404 50.4999 25.6791 50.4931 26.0159 50.4796L23.8597 48.3234C23.2249 48.3963 22.5829 48.4454 21.9346 48.4698L23.9427 50.478Z" fill="#0290CF"/>
<path d="M35.9947 47.9587L33.2873 45.2513C32.8434 45.5029 32.3909 45.7414 31.9307 45.9662L34.5681 48.6036C35.0515 48.4031 35.5272 48.188 35.9947 47.9587Z" fill="#0290CF"/>
<path d="M48.1041 35.0678L44.6321 31.5958C44.458 32.104 44.2679 32.6049 44.0625 33.0978L47.4592 36.4946C47.6886 36.0269 47.9037 35.5512 48.1041 35.0678Z" fill="#0290CF"/>
<path d="M29.7608 50.0471C30.3297 49.9374 30.8918 49.8084 31.4462 49.6609L28.9683 47.1829C28.4447 47.3595 27.9135 47.5192 27.375 47.6613L29.7608 50.0471Z" fill="#0290CF"/>
</g>
<defs>
<clipPath id="clip0_2728_1824">
<rect width="50" height="50" fill="white" transform="translate(0 0.5)"/>
</clipPath>
</defs>
</svg>
