<svg width="50" height="36" viewBox="0 0 50 36" fill="none" xmlns="http://www.w3.org/2000/svg">
<path d="M45.8333 15.8958H44.1667C43.5036 15.8958 42.8677 16.1592 42.3989 16.6281C41.9301 17.0969 41.6667 17.7328 41.6667 18.3958V19.2292H40V15.0625C40 14.3995 39.7366 13.7636 39.2678 13.2947C38.7989 12.8259 38.163 12.5625 37.5 12.5625H35C34.779 12.5625 34.567 12.4747 34.4107 12.3184C34.2545 12.1621 34.1667 11.9502 34.1667 11.7292V10.0625C34.1667 9.39946 33.9033 8.76357 33.4344 8.29473C32.9656 7.82589 32.3297 7.5625 31.6667 7.5625H28.3333V5.0625H32.5C33.163 5.0625 33.7989 4.79911 34.2678 4.33027C34.7366 3.86143 35 3.22554 35 2.5625C35 1.89946 34.7366 1.26357 34.2678 0.794733C33.7989 0.325892 33.163 0.0625 32.5 0.0625H15.8333C15.1703 0.0625 14.5344 0.325892 14.0656 0.794733C13.5967 1.26357 13.3333 1.89946 13.3333 2.5625C13.3333 3.22554 13.5967 3.86143 14.0656 4.33027C14.5344 4.79911 15.1703 5.0625 15.8333 5.0625H20V7.5625H15.8333C15.1703 7.5625 14.5344 7.82589 14.0656 8.29473C13.5967 8.76357 13.3333 9.39946 13.3333 10.0625C13.3333 10.2835 13.2455 10.4955 13.0893 10.6518C12.933 10.808 12.721 10.8958 12.5 10.8958H10C9.33696 10.8958 8.70107 11.1592 8.23223 11.6281C7.76339 12.0969 7.5 12.7328 7.5 13.3958V16.7292H5V13.3958C5 12.7328 4.73661 12.0969 4.26777 11.6281C3.79893 11.1592 3.16304 10.8958 2.5 10.8958C1.83696 10.8958 1.20107 11.1592 0.732233 11.6281C0.263392 12.0969 0 12.7328 0 13.3958L0 26.7292C0 27.3922 0.263392 28.0281 0.732233 28.4969C1.20107 28.9658 1.83696 29.2292 2.5 29.2292C3.16304 29.2292 3.79893 28.9658 4.26777 28.4969C4.73661 28.0281 5 27.3922 5 26.7292V23.3958H7.5V27.5625C7.5 28.2255 7.76339 28.8614 8.23223 29.3303C8.70107 29.7991 9.33696 30.0625 10 30.0625H13.4767C13.6977 30.0625 13.9096 30.1504 14.0658 30.3067L18.0892 34.33C18.3207 34.563 18.5961 34.7477 18.8995 34.8734C19.2029 34.9992 19.5282 35.0634 19.8567 35.0625H37.5C38.163 35.0625 38.7989 34.7991 39.2678 34.3303C39.7366 33.8614 40 33.2255 40 32.5625V29.2292H41.6667V30.0625C41.6667 30.7255 41.9301 31.3614 42.3989 31.8303C42.8677 32.2991 43.5036 32.5625 44.1667 32.5625H45.8333C46.938 32.5612 47.997 32.1218 48.7781 31.3407C49.5593 30.5595 49.9987 29.5005 50 28.3958V20.0625C49.9987 18.9578 49.5593 17.8988 48.7781 17.1177C47.997 16.3366 46.938 15.8972 45.8333 15.8958ZM15 2.5625C15 2.34149 15.0878 2.12952 15.2441 1.97324C15.4004 1.81696 15.6123 1.72917 15.8333 1.72917H32.5C32.721 1.72917 32.933 1.81696 33.0893 1.97324C33.2455 2.12952 33.3333 2.34149 33.3333 2.5625C33.3333 2.78351 33.2455 2.99548 33.0893 3.15176C32.933 3.30804 32.721 3.39583 32.5 3.39583H15.8333C15.6123 3.39583 15.4004 3.30804 15.2441 3.15176C15.0878 2.99548 15 2.78351 15 2.5625ZM21.6667 5.0625H26.6667V7.5625H21.6667V5.0625ZM3.33333 26.7292C3.33333 26.9502 3.24554 27.1621 3.08926 27.3184C2.93298 27.4747 2.72101 27.5625 2.5 27.5625C2.27899 27.5625 2.06702 27.4747 1.91074 27.3184C1.75446 27.1621 1.66667 26.9502 1.66667 26.7292V13.3958C1.66667 13.1748 1.75446 12.9629 1.91074 12.8066C2.06702 12.6503 2.27899 12.5625 2.5 12.5625C2.72101 12.5625 2.93298 12.6503 3.08926 12.8066C3.24554 12.9629 3.33333 13.1748 3.33333 13.3958V26.7292ZM5 21.7292V18.3958H7.5V21.7292H5ZM38.3333 32.5625C38.3333 32.7835 38.2455 32.9955 38.0893 33.1518C37.933 33.308 37.721 33.3958 37.5 33.3958H19.8567C19.6357 33.3958 19.4237 33.308 19.2675 33.1517L15.2442 29.1283C15.0126 28.8955 14.7371 28.7109 14.4337 28.5852C14.1304 28.4594 13.8051 28.3951 13.4767 28.3958H10C9.77899 28.3958 9.56702 28.308 9.41074 28.1518C9.25446 27.9955 9.16667 27.7835 9.16667 27.5625V13.3958C9.16667 13.1748 9.25446 12.9629 9.41074 12.8066C9.56702 12.6503 9.77899 12.5625 10 12.5625H12.5C13.163 12.5625 13.7989 12.2991 14.2678 11.8303C14.7366 11.3614 15 10.7255 15 10.0625C15 9.84149 15.0878 9.62952 15.2441 9.47324C15.4004 9.31696 15.6123 9.22917 15.8333 9.22917H31.6667C31.8877 9.22917 32.0996 9.31696 32.2559 9.47324C32.4122 9.62952 32.5 9.84149 32.5 10.0625V11.7292C32.5 12.3922 32.7634 13.0281 33.2322 13.4969C33.7011 13.9658 34.337 14.2292 35 14.2292H37.5C37.721 14.2292 37.933 14.317 38.0893 14.4732C38.2455 14.6295 38.3333 14.8415 38.3333 15.0625V32.5625ZM40 27.5625V20.8958H41.6667V27.5625H40ZM48.3333 28.3958C48.3333 29.0589 48.0699 29.6948 47.6011 30.1636C47.1323 30.6324 46.4964 30.8958 45.8333 30.8958H44.1667C43.9457 30.8958 43.7337 30.808 43.5774 30.6518C43.4211 30.4955 43.3333 30.2835 43.3333 30.0625V18.3958C43.3333 18.1748 43.4211 17.9629 43.5774 17.8066C43.7337 17.6503 43.9457 17.5625 44.1667 17.5625H45.8333C46.4964 17.5625 47.1323 17.8259 47.6011 18.2947C48.0699 18.7636 48.3333 19.3995 48.3333 20.0625V28.3958Z" fill="#D01400"/>
</svg>
