<svg width="50" height="43" viewBox="0 0 50 43" fill="none" xmlns="http://www.w3.org/2000/svg">
<path d="M42.674 7.25605C37.9497 2.5769 31.6728 0 24.9997 0C18.3265 0 12.0497 2.5769 7.32535 7.25615C6.75319 7.82289 6.75387 8.74193 7.32535 9.30809L11.7623 13.7032C12.3344 14.27 13.2625 14.2694 13.834 13.7031C16.818 10.7467 20.7835 9.11841 24.9997 9.11841C29.2159 9.11841 33.1813 10.7467 36.1654 13.703C36.4401 13.9752 36.8128 14.1282 37.2012 14.1282C37.8342 14.1282 38.2066 13.7334 38.2371 13.7031L42.674 9.308C43.2462 8.74135 43.2456 7.82222 42.674 7.25605Z" fill="#FFE600"/>
<path d="M42.6743 7.25605C37.95 2.5769 31.6731 0 25 0V9.1185C29.2162 9.1185 33.1816 10.7468 36.1657 13.7031C36.4404 13.9752 36.8131 14.1283 37.2016 14.1283C37.8346 14.1283 38.2069 13.7335 38.2374 13.7032L42.6743 9.30809C43.2465 8.74135 43.2459 7.82222 42.6743 7.25605Z" fill="#FFAA32"/>
<path d="M13.8342 35.8227C12.5738 34.5744 9.22773 30.8829 9.20576 24.76C9.20654 20.5854 10.8502 16.6588 13.8342 13.7034L7.32568 7.25616C2.60166 11.935 0 18.1525 0 24.7631C0 31.3736 2.60166 37.5911 7.32568 42.2699C7.61172 42.5533 7.98652 42.6949 8.36143 42.6949C8.73633 42.6949 9.11123 42.5532 9.39726 42.2698L13.8342 37.8747C14.4062 37.308 14.4062 36.3894 13.8342 35.8227Z" fill="#9BFF00"/>
<path d="M36.1654 35.8227C37.4257 34.5744 40.7718 30.8828 40.7938 24.7599C40.793 20.5853 39.1494 16.6587 36.1654 13.7033L42.6739 7.2561C47.3979 11.935 49.9996 18.1524 49.9996 24.763C49.9996 31.3736 47.3979 37.591 42.6739 42.2699C42.3878 42.5532 42.013 42.6948 41.6381 42.6948C41.2632 42.6948 40.8883 42.5531 40.6023 42.2698L36.1654 37.8746C35.5933 37.308 35.5933 36.3893 36.1654 35.8227Z" fill="#FF1E5A"/>
<path d="M9.20576 24.76C9.20654 20.5853 10.8502 16.6588 13.8342 13.7034L7.32568 7.25616C2.60166 11.935 0 18.1525 0 24.763L9.20576 24.76Z" fill="#00D200"/>
<path d="M36.1654 35.8227C37.4257 34.5744 40.7718 30.8829 40.7938 24.7599L49.9996 24.763C49.9996 31.3736 47.3979 37.5911 42.6739 42.2699C42.3878 42.5533 42.013 42.6949 41.6381 42.6949C41.2632 42.6949 40.8883 42.5532 40.6023 42.2698L36.1654 37.8747C35.5933 37.308 35.5933 36.3894 36.1654 35.8227Z" fill="#C40050"/>
<path d="M21.7454 21.5386C19.9508 23.3162 19.9508 26.2087 21.7454 27.9864C24.0126 30.2321 35.1547 37.2789 36.4177 38.075C36.9969 38.4401 37.7545 38.3577 38.24 37.8769C38.7255 37.396 38.8087 36.6457 38.44 36.0719C37.6363 34.8209 30.522 23.7843 28.2549 21.5386C26.4602 19.761 23.5401 19.761 21.7454 21.5386Z" fill="#003C50"/>
<path d="M21.7451 21.5386L38.2396 37.8768C38.7251 37.3959 38.8083 36.6456 38.4396 36.0718C37.6359 34.8208 30.5217 23.7842 28.2545 21.5385C26.46 19.761 23.5398 19.761 21.7451 21.5386Z" fill="#001428"/>
</svg>
