<svg width="50" height="36" viewBox="0 0 50 36" fill="none" xmlns="http://www.w3.org/2000/svg">
<path d="M45.8333 16.3333H44.1667C43.5036 16.3333 42.8677 16.5967 42.3989 17.0656C41.9301 17.5344 41.6667 18.1703 41.6667 18.8333V19.6667H40V15.5C40 14.837 39.7366 14.2011 39.2678 13.7322C38.7989 13.2634 38.163 13 37.5 13H35C34.779 13 34.567 12.9122 34.4107 12.7559C34.2545 12.5996 34.1667 12.3877 34.1667 12.1667V10.5C34.1667 9.83696 33.9033 9.20107 33.4344 8.73223C32.9656 8.26339 32.3297 8 31.6667 8H28.3333V5.5H32.5C33.163 5.5 33.7989 5.23661 34.2678 4.76777C34.7366 4.29893 35 3.66304 35 3C35 2.33696 34.7366 1.70107 34.2678 1.23223C33.7989 0.763392 33.163 0.5 32.5 0.5H15.8333C15.1703 0.5 14.5344 0.763392 14.0656 1.23223C13.5967 1.70107 13.3333 2.33696 13.3333 3C13.3333 3.66304 13.5967 4.29893 14.0656 4.76777C14.5344 5.23661 15.1703 5.5 15.8333 5.5H20V8H15.8333C15.1703 8 14.5344 8.26339 14.0656 8.73223C13.5967 9.20107 13.3333 9.83696 13.3333 10.5C13.3333 10.721 13.2455 10.933 13.0893 11.0893C12.933 11.2455 12.721 11.3333 12.5 11.3333H10C9.33696 11.3333 8.70107 11.5967 8.23223 12.0656C7.76339 12.5344 7.5 13.1703 7.5 13.8333V17.1667H5V13.8333C5 13.1703 4.73661 12.5344 4.26777 12.0656C3.79893 11.5967 3.16304 11.3333 2.5 11.3333C1.83696 11.3333 1.20107 11.5967 0.732233 12.0656C0.263392 12.5344 0 13.1703 0 13.8333L0 27.1667C0 27.8297 0.263392 28.4656 0.732233 28.9344C1.20107 29.4033 1.83696 29.6667 2.5 29.6667C3.16304 29.6667 3.79893 29.4033 4.26777 28.9344C4.73661 28.4656 5 27.8297 5 27.1667V23.8333H7.5V28C7.5 28.663 7.76339 29.2989 8.23223 29.7678C8.70107 30.2366 9.33696 30.5 10 30.5H13.4767C13.6977 30.5 13.9096 30.5879 14.0658 30.7442L18.0892 34.7675C18.3207 35.0005 18.5961 35.1852 18.8995 35.3109C19.2029 35.4367 19.5282 35.5009 19.8567 35.5H37.5C38.163 35.5 38.7989 35.2366 39.2678 34.7678C39.7366 34.2989 40 33.663 40 33V29.6667H41.6667V30.5C41.6667 31.163 41.9301 31.7989 42.3989 32.2678C42.8677 32.7366 43.5036 33 44.1667 33H45.8333C46.938 32.9987 47.997 32.5593 48.7781 31.7782C49.5593 30.997 49.9987 29.938 50 28.8333V20.5C49.9987 19.3953 49.5593 18.3363 48.7781 17.5552C47.997 16.7741 46.938 16.3347 45.8333 16.3333ZM15 3C15 2.77899 15.0878 2.56702 15.2441 2.41074C15.4004 2.25446 15.6123 2.16667 15.8333 2.16667H32.5C32.721 2.16667 32.933 2.25446 33.0893 2.41074C33.2455 2.56702 33.3333 2.77899 33.3333 3C33.3333 3.22101 33.2455 3.43298 33.0893 3.58926C32.933 3.74554 32.721 3.83333 32.5 3.83333H15.8333C15.6123 3.83333 15.4004 3.74554 15.2441 3.58926C15.0878 3.43298 15 3.22101 15 3ZM21.6667 5.5H26.6667V8H21.6667V5.5ZM3.33333 27.1667C3.33333 27.3877 3.24554 27.5996 3.08926 27.7559C2.93298 27.9122 2.72101 28 2.5 28C2.27899 28 2.06702 27.9122 1.91074 27.7559C1.75446 27.5996 1.66667 27.3877 1.66667 27.1667V13.8333C1.66667 13.6123 1.75446 13.4004 1.91074 13.2441C2.06702 13.0878 2.27899 13 2.5 13C2.72101 13 2.93298 13.0878 3.08926 13.2441C3.24554 13.4004 3.33333 13.6123 3.33333 13.8333V27.1667ZM5 22.1667V18.8333H7.5V22.1667H5ZM38.3333 33C38.3333 33.221 38.2455 33.433 38.0893 33.5893C37.933 33.7455 37.721 33.8333 37.5 33.8333H19.8567C19.6357 33.8333 19.4237 33.7455 19.2675 33.5892L15.2442 29.5658C15.0126 29.333 14.7371 29.1484 14.4337 29.0227C14.1304 28.8969 13.8051 28.8326 13.4767 28.8333H10C9.77899 28.8333 9.56703 28.7455 9.41074 28.5893C9.25446 28.433 9.16667 28.221 9.16667 28V13.8333C9.16667 13.6123 9.25446 13.4004 9.41074 13.2441C9.56703 13.0878 9.77899 13 10 13H12.5C13.163 13 13.7989 12.7366 14.2678 12.2678C14.7366 11.7989 15 11.163 15 10.5C15 10.279 15.0878 10.067 15.2441 9.91074C15.4004 9.75446 15.6123 9.66667 15.8333 9.66667H31.6667C31.8877 9.66667 32.0996 9.75446 32.2559 9.91074C32.4122 10.067 32.5 10.279 32.5 10.5V12.1667C32.5 12.8297 32.7634 13.4656 33.2322 13.9344C33.7011 14.4033 34.337 14.6667 35 14.6667H37.5C37.721 14.6667 37.933 14.7545 38.0893 14.9107C38.2455 15.067 38.3333 15.279 38.3333 15.5V33ZM40 28V21.3333H41.6667V28H40ZM48.3333 28.8333C48.3333 29.4964 48.0699 30.1323 47.6011 30.6011C47.1323 31.0699 46.4964 31.3333 45.8333 31.3333H44.1667C43.9457 31.3333 43.7337 31.2455 43.5774 31.0893C43.4211 30.933 43.3333 30.721 43.3333 30.5V18.8333C43.3333 18.6123 43.4211 18.4004 43.5774 18.2441C43.7337 18.0878 43.9457 18 44.1667 18H45.8333C46.4964 18 47.1323 18.2634 47.6011 18.7322C48.0699 19.2011 48.3333 19.837 48.3333 20.5V28.8333Z" fill="#28A745"/>
</svg>
