<svg width="42" height="50" viewBox="0 0 42 50" fill="none" xmlns="http://www.w3.org/2000/svg">
<path d="M41.3615 6.55518L37.1948 2.38848C36.7879 1.98154 36.1287 1.98154 35.7219 2.38848C35.3149 2.79541 35.3149 3.45459 35.7219 3.86143L39.1521 7.2916L35.7219 10.7218C35.5266 10.9171 35.4167 11.1815 35.4167 11.4583V14.5833C35.4167 16.8813 37.2854 18.75 39.5834 18.75V36.4583C39.5834 37.033 39.1165 37.5 38.5417 37.5C37.967 37.5 37.5 37.0331 37.5 36.4583V34.375C37.5 32.6518 36.0982 31.25 34.375 31.25H33.3334V4.1667C33.3334 1.86865 31.4647 0 29.1667 0H8.3334C6.03545 0 4.1667 1.86865 4.1667 4.1667V41.6667C1.86875 41.6667 0 43.5354 0 45.8334V48.9584C0 49.5342 0.465918 50.0001 1.0417 50.0001H36.4584C37.0342 50.0001 37.5001 49.5342 37.5001 48.9584V45.8334C37.5001 43.5354 35.6314 41.6667 33.3334 41.6667V33.3334H34.3751C34.9498 33.3334 35.4168 33.8003 35.4168 34.3751V36.4584C35.4168 38.1816 36.8186 39.5834 38.5418 39.5834C40.265 39.5834 41.6668 38.1816 41.6668 36.4584V7.2917C41.6667 7.01494 41.5568 6.75049 41.3615 6.55518ZM6.2501 4.1667C6.2501 3.01826 7.18496 2.0834 8.3334 2.0834H29.1667C30.3151 2.0834 31.25 3.01826 31.25 4.1667V41.6667H6.25L6.2501 4.1667ZM35.4167 45.8333V47.9166H2.0834V45.8333C2.0834 44.6849 3.01826 43.75 4.1667 43.75H33.3334C34.4818 43.75 35.4167 44.6849 35.4167 45.8333ZM39.5834 16.6667C38.435 16.6667 37.5001 15.7318 37.5001 14.5834V11.8896L39.5834 9.80635V16.6667Z" fill="#F89823"/>
<path d="M28.1247 4.16669H9.37471C8.79893 4.16669 8.33301 4.6326 8.33301 5.20839V17.7277C8.33301 18.3035 8.79893 18.7694 9.37471 18.7694H28.1247C28.7005 18.7694 29.1664 18.3035 29.1664 17.7277V5.20829C29.1663 4.63261 28.7005 4.16669 28.1247 4.16669ZM27.083 16.686H10.4163V6.24999H27.083V16.686Z" fill="#F89823"/>
</svg>
