<svg width="39" height="34" viewBox="0 0 39 34" fill="none" xmlns="http://www.w3.org/2000/svg">
<path d="M37.7144 30.7891L36.8824 31.6211C36.5297 31.9733 36.0517 32.1711 35.5533 32.1711C35.0549 32.1711 34.5769 31.9733 34.2242 31.6211L32.564 29.9609C31.9365 29.3338 31.0855 28.9814 30.1983 28.9814C29.3111 28.9814 28.4602 29.3338 27.8326 29.9609L26.1724 31.6211C25.8198 31.9733 25.3417 32.1711 24.8433 32.1711C24.3449 32.1711 23.8669 31.9733 23.5142 31.6211L21.8541 29.9609C21.2265 29.3338 20.3756 28.9814 19.4884 28.9814C18.6011 28.9814 17.7502 29.3338 17.1226 29.9609L15.4625 31.6211C15.1098 31.9733 14.6318 32.1711 14.1334 32.1711C13.635 32.1711 13.1569 31.9733 12.8043 31.6211L11.1441 29.9609C9.899 28.6631 7.65779 28.6631 6.41267 29.9609L4.75251 31.6211C4.39986 31.9733 3.92182 32.1711 3.42341 32.1711C2.925 32.1711 2.44697 31.9733 2.09431 31.6211L1.26228 30.7891C0.565991 30.1318 -0.439869 31.1055 0.226147 31.8252L1.0406 32.6572C1.66834 33.2822 2.51808 33.6331 3.40388 33.6331C4.28968 33.6331 5.13942 33.2822 5.76716 32.6572L7.42732 30.9971C8.12751 30.2676 9.3863 30.2676 10.0865 30.9971L11.7467 32.6572C12.3746 33.2834 13.2251 33.635 14.1119 33.635C14.9986 33.635 15.8492 33.2834 16.4771 32.6572L18.1373 30.9971C18.312 30.8209 18.5199 30.6811 18.749 30.5857C18.978 30.4904 19.2236 30.4412 19.4718 30.4412C19.7199 30.4412 19.9655 30.4904 20.1945 30.5857C20.4236 30.6811 20.6315 30.8209 20.8062 30.9971L22.4664 32.6572C23.0944 33.2831 23.9449 33.6346 24.8316 33.6346C25.7183 33.6346 26.5688 33.2831 27.1968 32.6572L28.857 30.9971C29.0316 30.8224 29.2389 30.6839 29.467 30.5893C29.6951 30.4948 29.9397 30.4461 30.1866 30.4461C30.4335 30.4461 30.6781 30.4948 30.9062 30.5893C31.1343 30.6839 31.3416 30.8224 31.5162 30.9971L33.1763 32.6572C33.8042 33.2834 34.6548 33.635 35.5416 33.635C36.4283 33.635 37.2789 33.2834 37.9068 32.6572L38.7388 31.8252C39.4078 31.1191 38.4302 30.1269 37.7144 30.7891Z" fill="#CC00FF"/>
<path d="M1.04076 26.6621C2.28588 27.959 4.52611 27.96 5.77123 26.6621L7.43139 25.0019C7.78421 24.6497 8.26241 24.4518 8.76098 24.4518C9.25955 24.4518 9.73774 24.6497 10.0906 25.0019L11.7507 26.6621C11.8881 26.8003 12.0748 26.8782 12.2696 26.8788C12.4645 26.8793 12.6516 26.8024 12.7898 26.665C12.928 26.5276 13.0059 26.341 13.0064 26.1461C13.007 25.9512 12.9301 25.7641 12.7927 25.626L11.1326 23.9658C10.505 23.3386 9.65407 22.9863 8.76684 22.9863C7.8796 22.9863 7.02868 23.3386 6.40111 23.9658L4.74096 25.626C4.04174 26.3555 2.78197 26.3555 2.08275 25.626L1.25072 24.7939C1.18269 24.7259 1.10192 24.6719 1.01303 24.6351C0.924142 24.5983 0.82887 24.5793 0.732657 24.5793C0.636443 24.5793 0.541171 24.5983 0.452281 24.6351C0.363391 24.6719 0.282624 24.7259 0.21459 24.7939C0.146557 24.862 0.0925896 24.9427 0.0557702 25.0316C0.0189508 25.1205 0 25.2158 0 25.312C0 25.4082 0.0189508 25.5035 0.0557702 25.5924C0.0925896 25.6813 0.146557 25.762 0.21459 25.8301L1.04076 26.6621Z" fill="#CC00FF"/>
<path d="M37.7146 24.794L36.8826 25.626C36.7081 25.8006 36.5009 25.9392 36.2728 26.0337C36.0448 26.1282 35.8003 26.1768 35.5535 26.1768C35.3066 26.1768 35.0622 26.1282 34.8341 26.0337C34.606 25.9392 34.3988 25.8006 34.2244 25.626L32.5642 23.9658C31.9361 23.3396 31.0854 22.988 30.1985 22.988C29.3116 22.988 28.4608 23.3396 27.8328 23.9658L26.1726 25.626C26.0352 25.7634 25.958 25.9498 25.958 26.1441C25.958 26.3384 26.0352 26.5247 26.1726 26.6621C26.31 26.7995 26.4964 26.8767 26.6907 26.8767C26.885 26.8767 27.0713 26.7995 27.2087 26.6621L28.8689 25.002C29.2217 24.6497 29.6999 24.4519 30.1985 24.4519C30.697 24.4519 31.1752 24.6497 31.5281 25.002L33.1882 26.6621C34.4333 27.96 36.6736 27.96 37.9187 26.6621L38.7507 25.8301C39.4109 25.1221 38.4255 24.1328 37.7146 24.794Z" fill="#CC00FF"/>
<path d="M19.5196 0C18.6732 0.00103372 17.8618 0.337705 17.2634 0.936169C16.6649 1.53463 16.3282 2.34603 16.3272 3.19238V17.8799C12.3077 20.9141 14.4717 27.3896 19.5196 27.3955C24.5674 27.4014 26.7325 20.9121 22.712 17.8799V3.19238C22.7109 2.34603 22.3743 1.53463 21.7758 0.936169C21.1773 0.337705 20.3659 0.00103372 19.5196 0ZM23.3458 22.1025C23.1377 27.1807 15.9004 27.1807 15.6895 22.1025C15.6886 21.4604 15.8498 20.8284 16.1581 20.265C16.4664 19.7017 16.9118 19.2253 17.4532 18.8799C17.5418 18.8234 17.6171 18.7484 17.6741 18.6601C17.731 18.5717 17.7683 18.4722 17.7833 18.3682C17.8028 18.2334 17.7833 3.3291 17.7901 3.19434C17.7901 2.73616 17.9721 2.29676 18.2961 1.97278C18.6201 1.64881 19.0595 1.4668 19.5176 1.4668C19.9758 1.4668 20.4152 1.64881 20.7392 1.97278C21.0632 2.29676 21.2452 2.73616 21.2452 3.19434V18.2402C21.2423 18.3671 21.2723 18.4926 21.3324 18.6043C21.3925 18.7161 21.4805 18.8104 21.5879 18.8779C22.1285 19.2242 22.573 19.7012 22.8802 20.2649C23.1875 20.8285 23.3476 21.4606 23.3458 22.1025Z" fill="#CC00FF"/>
<path d="M20.2208 19.9785V3.78711C20.2208 3.59286 20.1437 3.40656 20.0063 3.26921C19.869 3.13185 19.6827 3.05469 19.4884 3.05469C19.2942 3.05469 19.1079 3.13185 18.9705 3.26921C18.8332 3.40656 18.756 3.59286 18.756 3.78711V19.998C16.3898 20.877 16.9601 24.3594 19.5167 24.4072C22.1144 24.3477 22.6456 20.8193 20.2208 19.9785ZM19.5167 22.9424C19.3031 22.9421 19.0984 22.8572 18.9473 22.7061C18.7963 22.5551 18.7113 22.3503 18.7111 22.1367C18.7521 21.0693 20.2824 21.0703 20.3224 22.1367C20.3221 22.3498 20.2376 22.5541 20.0872 22.7051C19.9368 22.856 19.7327 22.9414 19.5197 22.9424H19.5167Z" fill="#CC00FF"/>
<path d="M24.9404 4.51953H29.7002C30.6689 4.4873 30.6709 3.08887 29.7002 3.05469H24.9404C24.7462 3.05469 24.5599 3.13185 24.4225 3.26921C24.2852 3.40656 24.208 3.59286 24.208 3.78711C24.208 3.98136 24.2852 4.16765 24.4225 4.30501C24.5599 4.44237 24.7462 4.51953 24.9404 4.51953Z" fill="#CC00FF"/>
<path d="M24.9404 17.0166H29.7002C30.6689 16.9834 30.6709 15.585 29.7002 15.5518H24.9404C24.7462 15.5518 24.5599 15.6289 24.4225 15.7663C24.2852 15.9036 24.208 16.0899 24.208 16.2842C24.208 16.4784 24.2852 16.6647 24.4225 16.8021C24.5599 16.9394 24.7462 17.0166 24.9404 17.0166Z" fill="#CC00FF"/>
<path d="M24.9402 13.8926H27.7166C27.9108 13.8926 28.0971 13.8154 28.2345 13.6781C28.3718 13.5407 28.449 13.3544 28.449 13.1602C28.449 12.9659 28.3718 12.7796 28.2345 12.6423C28.0971 12.5049 27.9108 12.4277 27.7166 12.4277H24.9402C23.9714 12.4609 23.9695 13.8584 24.9402 13.8926Z" fill="#CC00FF"/>
<path d="M24.9404 10.7686H29.7002C30.6689 10.7354 30.6709 9.33691 29.7002 9.30371H24.9404C24.7462 9.30371 24.5599 9.38088 24.4225 9.51823C24.2852 9.65559 24.208 9.84188 24.208 10.0361C24.208 10.2304 24.2852 10.4167 24.4225 10.554C24.5599 10.6914 24.7462 10.7686 24.9404 10.7686Z" fill="#CC00FF"/>
<path d="M24.9402 7.64355H27.7166C27.9108 7.64355 28.0971 7.56639 28.2345 7.42903C28.3718 7.29168 28.449 7.10538 28.449 6.91113C28.449 6.71688 28.3718 6.53059 28.2345 6.39323C28.0971 6.25588 27.9108 6.17871 27.7166 6.17871H24.9402C23.9714 6.21191 23.9695 7.61035 24.9402 7.64355Z" fill="#CC00FF"/>
</svg>
