<svg width="39" height="51" viewBox="0 0 39 51" fill="none" xmlns="http://www.w3.org/2000/svg">
<path d="M38.1636 11.0568L27.7429 0.640137C27.5476 0.444824 27.2831 0.334961 27.0063 0.334961H5.13545C2.8374 0.334961 0.96875 2.20361 0.96875 4.50166V46.1684C0.96875 48.4663 2.8374 50.335 5.13545 50.335H34.3022C36.6001 50.335 38.4688 48.4663 38.4688 46.1683V11.7933C38.4688 11.5166 38.3589 11.2521 38.1636 11.0568ZM36.3854 46.1683C36.3854 47.3167 35.4506 48.2516 34.3022 48.2516H5.13545C3.98701 48.2516 3.05215 47.3167 3.05215 46.1683V4.50166C3.05215 3.35322 3.98701 2.41836 5.13545 2.41836H26.5751L36.3854 12.2246V46.1683Z" fill="#005EEC"/>
<path d="M7.21875 22.21V40.96C7.21875 42.6832 8.62051 44.085 10.3438 44.085H29.0938C30.817 44.085 32.2188 42.6832 32.2188 40.96V22.21C32.2188 20.4867 30.817 19.085 29.0938 19.085H10.3438C8.62051 19.085 7.21875 20.4867 7.21875 22.21ZM14.5104 42.0017H10.3438C9.76904 42.0017 9.30205 41.5348 9.30205 40.96V36.7933H14.5104V42.0017H14.5104ZM22.8438 42.0017H16.5938V36.7934H22.8438V42.0017ZM30.1354 40.96C30.1354 41.5347 29.6686 42.0017 29.0938 42.0017H24.9271V35.7517C24.9271 35.1759 24.4611 34.71 23.8853 34.71H9.30205V28.46H30.1353V40.96H30.1354ZM24.9271 21.1683H29.0938C29.6685 21.1683 30.1354 21.6352 30.1354 22.21V26.3767H24.9272V21.1683H24.9271ZM16.5938 21.1683H22.8438V26.3766H16.5938V21.1683ZM14.5104 26.3767H9.30215V22.21C9.30215 21.6353 9.76904 21.1683 10.3438 21.1683H14.5105L14.5104 26.3767Z" fill="#005EEC"/>
</svg>
