<svg width="51" height="50" viewBox="0 0 51 50" fill="none" xmlns="http://www.w3.org/2000/svg">
<g clip-path="url(#clip0_2728_1104)">
<path d="M47.7363 11.7048H44.9486V9.4006C44.9486 8.96915 44.5988 8.61935 44.1674 8.61935H43.8159V4.41486C43.8159 3.98341 43.4661 3.63361 43.0347 3.63361H38.1121C37.6807 3.63361 37.3309 3.98341 37.3309 4.41486V8.61935H36.9793C36.5479 8.61935 36.198 8.96915 36.198 9.4006V11.7049H14.7395V9.4006C14.7395 8.96915 14.3896 8.61935 13.9582 8.61935H13.6067V4.41486C13.6067 3.98341 13.2569 3.63361 12.8255 3.63361H7.90283C7.47139 3.63361 7.12158 3.98341 7.12158 4.41486V8.61935H6.77012C6.33867 8.61935 5.98887 8.96915 5.98887 9.4006V11.7049H3.20117C1.69443 11.7049 0.46875 12.9307 0.46875 14.4373V43.634C0.46875 45.1407 1.69453 46.3664 3.20117 46.3664H47.7363C49.2431 46.3664 50.4688 45.1406 50.4688 43.634V14.4373C50.4688 12.9306 49.243 11.7048 47.7363 11.7048ZM38.8934 5.19611H42.2534V8.61935H38.8934V5.19611ZM37.7605 10.1818H43.386V11.7049H37.7605V10.1818ZM8.68408 5.19611H12.0442V8.61935H8.68408V5.19611ZM7.55137 10.1818H13.1769V11.7049H7.55137V10.1818ZM3.20117 13.2673H47.7363C48.3814 13.2673 48.9062 13.7921 48.9062 14.4372V17.0873H2.03125V14.4372C2.03125 13.7921 2.55605 13.2673 3.20117 13.2673ZM48.9062 18.6499V39.4026H2.03125V18.6499H48.9062ZM47.7363 44.8039H3.20117C2.55605 44.8039 2.03125 44.2791 2.03125 43.634V40.9651H48.9062V43.634C48.9062 44.2791 48.3814 44.8039 47.7363 44.8039ZM34.8253 25.5398C34.8253 25.1083 35.1751 24.7585 35.6065 24.7585H38.3439V22.0211C38.3439 21.5897 38.6938 21.2399 39.1252 21.2399C39.5566 21.2399 39.9064 21.5897 39.9064 22.0211V24.7585H42.6437C43.0752 24.7585 43.425 25.1083 43.425 25.5398C43.425 25.9712 43.0752 26.321 42.6437 26.321H39.9064V29.0583C39.9064 29.4898 39.5566 29.8396 39.1252 29.8396C38.6938 29.8396 38.3439 29.4898 38.3439 29.0583V26.321H35.6065C35.1751 26.321 34.8253 25.9712 34.8253 25.5398ZM7.5125 26.0108C7.5125 25.5793 7.8623 25.2295 8.29375 25.2295H15.3311C15.7625 25.2295 16.1123 25.5793 16.1123 26.0108C16.1123 26.4422 15.7625 26.792 15.3311 26.792H8.29375C7.8623 26.792 7.5125 26.4422 7.5125 26.0108ZM19.882 30.9431H23.937L23.3167 36.2579C23.2765 36.6033 23.4693 36.9338 23.7899 37.0687C23.888 37.1099 23.9908 37.1298 24.0925 37.1297C24.3232 37.1297 24.5485 37.0273 24.7004 36.8396L31.6631 28.2267C31.8523 27.9926 31.8902 27.6706 31.7604 27.3988C31.6308 27.1273 31.3565 26.9542 31.0555 26.9542H26.9509L27.2529 21.7681C27.2728 21.4269 27.0685 21.1123 26.7486 20.9917C26.4291 20.8712 26.0677 20.9726 25.8573 21.2419L19.2664 29.6811C19.0825 29.9164 19.0489 30.236 19.1799 30.5045C19.3108 30.7728 19.5833 30.9431 19.882 30.9431ZM25.5475 24.177L25.3429 27.6901C25.3304 27.9048 25.4069 28.1152 25.5545 28.2717C25.7021 28.4281 25.9077 28.5168 26.1228 28.5168H29.4193L25.1814 33.7591L25.5906 30.2526C25.6165 30.031 25.5465 29.8091 25.3981 29.6425C25.2499 29.476 25.0376 29.3807 24.8146 29.3807H21.4834L25.5475 24.177Z" fill="#63D16E"/>
</g>
<defs>
<clipPath id="clip0_2728_1104">
<rect width="50" height="50" fill="white" transform="translate(0.46875)"/>
</clipPath>
</defs>
</svg>
