<svg width="51" height="31" viewBox="0 0 51 31" fill="none" xmlns="http://www.w3.org/2000/svg">
<path d="M46.4209 3.63365C46.0927 3.68835 45.7644 3.85246 45.4909 4.01658L36.957 8.93997V21.6314L45.5456 26.5548C47.1321 27.4848 49.1014 26.9377 50.0314 25.3513C50.3049 24.859 50.469 24.3119 50.469 23.7102V6.8065C50.469 4.78244 48.5544 3.14131 46.4209 3.63365Z" fill="#F89823"/>
<path d="M28.7509 0.625H5.93919C2.93045 0.625 0.46875 3.0867 0.46875 6.09544V24.5308C0.46875 27.5396 2.93045 30.0013 5.93919 30.0013H28.7509C31.7597 30.0013 34.2214 27.5396 34.2214 24.5308V6.09544C34.2214 3.032 31.7597 0.625 28.7509 0.625Z" fill="#F89823"/>
</svg>
