<svg width="46" height="38" viewBox="0 0 46 38" fill="none" xmlns="http://www.w3.org/2000/svg">
<path d="M30.2262 21.9211C30.2262 25.923 26.9707 29.1785 22.9688 29.1785C18.9668 29.1785 15.7126 25.923 15.7126 21.9211C15.7126 17.9192 18.9668 14.6637 22.9688 14.6637C26.9707 14.6637 30.2262 17.9204 30.2262 21.9211ZM45.4688 11.6159V32.2288C45.4688 34.9768 43.2408 37.2047 40.4928 37.2047H5.4447C2.69673 37.2047 0.46875 34.9768 0.46875 32.2288V11.6159C0.46875 8.86795 2.69673 6.63997 5.4447 6.63997H11.5651V4.91829C11.5651 2.51366 13.5132 0.564331 15.9191 0.564331H30.0184C32.4243 0.564331 34.3724 2.51366 34.3724 4.91829V6.63872H40.4928C43.2408 6.63997 45.4688 8.86795 45.4688 11.6159ZM33.9581 21.9211C33.9581 15.8616 29.0282 10.9317 22.9688 10.9317C16.9105 10.9317 11.9806 15.8616 11.9806 21.9211C11.9806 27.9806 16.9105 32.9105 22.9688 32.9105C29.0282 32.9105 33.9581 27.9806 33.9581 21.9211Z" fill="#F89823"/>
</svg>
