<svg width="50" height="51" viewBox="0 0 50 51" fill="none" xmlns="http://www.w3.org/2000/svg">
<path fill-rule="evenodd" clip-rule="evenodd" d="M37.7904 25.8314C44.5299 25.8314 49.9997 31.3012 49.9997 38.0407C49.9997 44.7803 44.5299 50.25 37.7904 50.25C31.0508 50.25 25.5811 44.7803 25.5811 38.0407C25.5811 31.3012 31.0508 25.8314 37.7904 25.8314ZM37.7904 29.3198C32.9764 29.3198 29.0694 33.2268 29.0694 38.0407C29.0694 42.8547 32.9764 46.7617 37.7904 46.7617C42.6043 46.7617 46.5113 42.8547 46.5113 38.0407C46.5113 33.2268 42.6043 29.3198 37.7904 29.3198Z" fill="white"/>
<path fill-rule="evenodd" clip-rule="evenodd" d="M34.8838 34.5524C34.8838 33.5896 35.6652 32.8082 36.628 32.8082C37.5908 32.8082 38.3722 33.5896 38.3722 34.5524V37.4593H40.1163C41.0791 37.4593 41.8605 38.2407 41.8605 39.2035C41.8605 40.1663 41.0791 40.9477 40.1163 40.9477H36.628C35.6652 40.9477 34.8838 40.1663 34.8838 39.2035V34.5524Z" fill="white"/>
<path fill-rule="evenodd" clip-rule="evenodd" d="M50 25.25C50 26.2128 49.2186 26.9942 48.2558 26.9942C47.293 26.9942 46.5116 26.2128 46.5116 25.25V13.6221C46.5116 10.7314 44.1698 8.38956 41.2791 8.38956H8.72093C5.83023 8.38956 3.48837 10.7314 3.48837 13.6221V41.5291C3.48837 44.4198 5.83023 46.7616 8.72093 46.7616H25C25.9628 46.7616 26.7442 47.543 26.7442 48.5058C26.7442 49.4686 25.9628 50.25 25 50.25H8.72093C3.90465 50.25 0 46.3454 0 41.5291V13.6221C0 8.80583 3.90465 4.90118 8.72093 4.90118H41.2791C46.0953 4.90118 50 8.80583 50 13.6221V25.25Z" fill="white"/>
<path fill-rule="evenodd" clip-rule="evenodd" d="M26.7442 6.64535C26.7442 7.60814 25.9628 8.38953 25 8.38953C24.0373 8.38953 23.2559 7.60814 23.2559 6.64535V1.99419C23.2559 1.0314 24.0373 0.25 25 0.25C25.9628 0.25 26.7442 1.0314 26.7442 1.99419V6.64535Z" fill="white"/>
<path fill-rule="evenodd" clip-rule="evenodd" d="M39.5352 6.64535C39.5352 7.60814 38.7539 8.38953 37.7911 8.38953C36.8283 8.38953 36.0469 7.60814 36.0469 6.64535V1.99419C36.0469 1.0314 36.8283 0.25 37.7911 0.25C38.7539 0.25 39.5352 1.0314 39.5352 1.99419V6.64535Z" fill="white"/>
<path fill-rule="evenodd" clip-rule="evenodd" d="M13.9532 6.64535C13.9532 7.60814 13.1718 8.38953 12.209 8.38953C11.2462 8.38953 10.4648 7.60814 10.4648 6.64535V1.99419C10.4648 1.0314 11.2462 0.25 12.209 0.25C13.1718 0.25 13.9532 1.0314 13.9532 1.99419V6.64535Z" fill="white"/>
<path d="M11.0463 19.4361C12.3307 19.4361 13.3719 18.3949 13.3719 17.1105C13.3719 15.8261 12.3307 14.7849 11.0463 14.7849C9.7619 14.7849 8.7207 15.8261 8.7207 17.1105C8.7207 18.3949 9.7619 19.4361 11.0463 19.4361Z" fill="white"/>
<path d="M20.349 19.4361C21.6334 19.4361 22.6746 18.3949 22.6746 17.1105C22.6746 15.8261 21.6334 14.7849 20.349 14.7849C19.0646 14.7849 18.0234 15.8261 18.0234 17.1105C18.0234 18.3949 19.0646 19.4361 20.349 19.4361Z" fill="white"/>
<path d="M29.6508 19.4361C30.9352 19.4361 31.9764 18.3949 31.9764 17.1105C31.9764 15.8261 30.9352 14.7849 29.6508 14.7849C28.3664 14.7849 27.3252 15.8261 27.3252 17.1105C27.3252 18.3949 28.3664 19.4361 29.6508 19.4361Z" fill="white"/>
<path d="M38.9535 19.4361C40.2379 19.4361 41.2791 18.3949 41.2791 17.1105C41.2791 15.8261 40.2379 14.7849 38.9535 14.7849C37.6691 14.7849 36.6279 15.8261 36.6279 17.1105C36.6279 18.3949 37.6691 19.4361 38.9535 19.4361Z" fill="white"/>
<path d="M11.0463 29.9012C12.3307 29.9012 13.3719 28.86 13.3719 27.5756C13.3719 26.2912 12.3307 25.25 11.0463 25.25C9.7619 25.25 8.7207 26.2912 8.7207 27.5756C8.7207 28.86 9.7619 29.9012 11.0463 29.9012Z" fill="white"/>
<path d="M20.349 29.9012C21.6334 29.9012 22.6746 28.86 22.6746 27.5756C22.6746 26.2912 21.6334 25.25 20.349 25.25C19.0646 25.25 18.0234 26.2912 18.0234 27.5756C18.0234 28.86 19.0646 29.9012 20.349 29.9012Z" fill="white"/>
<path d="M11.0463 40.3663C12.3307 40.3663 13.3719 39.3251 13.3719 38.0407C13.3719 36.7563 12.3307 35.7151 11.0463 35.7151C9.7619 35.7151 8.7207 36.7563 8.7207 38.0407C8.7207 39.3251 9.7619 40.3663 11.0463 40.3663Z" fill="white"/>
<path d="M20.349 40.3663C21.6334 40.3663 22.6746 39.3251 22.6746 38.0407C22.6746 36.7563 21.6334 35.7151 20.349 35.7151C19.0646 35.7151 18.0234 36.7563 18.0234 38.0407C18.0234 39.3251 19.0646 40.3663 20.349 40.3663Z" fill="white"/>
</svg>
