<svg width="16" height="20" viewBox="0 0 16 20" fill="none" xmlns="http://www.w3.org/2000/svg">
<path d="M7.6748 0V4.29365C9.48891 4.29365 10.965 5.76928 10.965 7.5838C10.965 9.3979 9.48891 10.8739 7.6748 10.8739V20L13.697 12.4285C14.7782 11.0611 15.3499 9.41764 15.3499 7.6751C15.3499 3.44314 11.9068 0 7.6748 0Z" fill="#CD2A00"/>
<path d="M10.965 7.58379C10.965 5.76927 9.48891 4.29364 7.6748 4.29364V10.8739C9.48891 10.8739 10.965 9.3979 10.965 7.58379Z" fill="#D8D7DA"/>
<path d="M4.38495 7.5838C4.38495 5.76928 5.86099 4.29365 7.6751 4.29365V0C3.44314 0 0 3.44314 0 7.6751C0 9.41764 0.571664 11.0611 1.65453 12.4302L7.6751 20V10.8739C5.86099 10.8739 4.38495 9.3979 4.38495 7.5838Z" fill="#FF3501"/>
<path d="M4.38477 7.58379C4.38477 9.3979 5.86081 10.8739 7.67492 10.8739V4.29364C5.86081 4.29364 4.38477 5.76927 4.38477 7.58379Z" fill="white"/>
</svg>
