<svg width="10" height="10" viewBox="0 0 10 10" fill="none" xmlns="http://www.w3.org/2000/svg">
<path d="M0.947952 9.93732C0.70278 9.95158 0.461663 9.87007 0.275444 9.70999C-0.0918148 9.34055 -0.0918148 8.74387 0.275444 8.37443L8.31722 0.332622C8.6992 -0.0248115 9.29859 -0.00494199 9.65603 0.37704C9.97924 0.722465 9.99808 1.25339 9.70013 1.62084L1.61098 9.70999C1.42716 9.86776 1.18991 9.94911 0.947952 9.93732Z" fill="#D01400"/>
<path d="M8.9795 9.93734C8.73102 9.93628 8.49286 9.83765 8.31644 9.66266L0.274636 1.62083C-0.0656111 1.2235 -0.0193528 0.62554 0.377976 0.285262C0.732602 -0.0184272 1.25561 -0.0184272 1.6102 0.285262L9.69936 8.32707C10.0812 8.68459 10.101 9.28402 9.74346 9.66591C9.72924 9.6811 9.71455 9.69579 9.69936 9.71001C9.50128 9.88226 9.24061 9.96457 8.9795 9.93734Z" fill="#D01400"/>
</svg>
