<svg width="20" height="20" viewBox="0 0 20 20" fill="none" xmlns="http://www.w3.org/2000/svg">
<g clip-path="url(#clip0_2741_1185)">
<path d="M10 0.833313C8.18702 0.833313 6.41474 1.37093 4.90729 2.37817C3.39984 3.38542 2.22492 4.81706 1.53112 6.49205C0.837315 8.16704 0.655785 10.0101 1.00948 11.7883C1.36318 13.5665 2.23622 15.1998 3.5182 16.4818C4.80018 17.7638 6.43353 18.6368 8.21169 18.9905C9.98985 19.3442 11.833 19.1627 13.5079 18.4689C15.1829 17.7751 16.6146 16.6002 17.6218 15.0927C18.6291 13.5853 19.1667 11.813 19.1667 9.99998C19.1667 7.56883 18.2009 5.23725 16.4818 3.51817C14.7627 1.79908 12.4312 0.833313 10 0.833313ZM10 15.4166C8.93748 15.4184 7.89797 15.107 7.01131 14.5215C6.12464 13.936 5.43009 13.1023 5.0144 12.1245C4.59871 11.1466 4.48029 10.068 4.67392 9.02321C4.86755 7.97847 5.36467 7.01391 6.10318 6.24998H5.00001C4.88951 6.24998 4.78353 6.20608 4.70539 6.12794C4.62725 6.0498 4.58335 5.94382 4.58335 5.83331C4.58335 5.72281 4.62725 5.61683 4.70539 5.53869C4.78353 5.46055 4.88951 5.41665 5.00001 5.41665H7.50001C7.61052 5.41665 7.7165 5.46055 7.79464 5.53869C7.87278 5.61683 7.91668 5.72281 7.91668 5.83331V8.33331C7.91668 8.44382 7.87278 8.5498 7.79464 8.62794C7.7165 8.70608 7.61052 8.74998 7.50001 8.74998C7.38951 8.74998 7.28353 8.70608 7.20539 8.62794C7.12725 8.5498 7.08335 8.44382 7.08335 8.33331V6.47365C6.35527 7.0735 5.83032 7.88366 5.58032 8.79329C5.33033 9.70292 5.36751 10.6676 5.68677 11.5553C6.00603 12.4429 6.59177 13.2103 7.36386 13.7523C8.13595 14.2944 9.05666 14.5846 10 14.5833C10.1105 14.5833 10.2165 14.6272 10.2946 14.7054C10.3728 14.7835 10.4167 14.8895 10.4167 15C10.4167 15.1105 10.3728 15.2165 10.2946 15.2946C10.2165 15.3727 10.1105 15.4166 10 15.4166ZM15 13.75C15.1105 13.75 15.2165 13.7939 15.2946 13.872C15.3728 13.9502 15.4167 14.0561 15.4167 14.1666C15.4167 14.2772 15.3728 14.3831 15.2946 14.4613C15.2165 14.5394 15.1105 14.5833 15 14.5833H12.5C12.3895 14.5833 12.2835 14.5394 12.2054 14.4613C12.1272 14.3831 12.0833 14.2772 12.0833 14.1666V11.6666C12.0833 11.5561 12.1272 11.4502 12.2054 11.372C12.2835 11.2939 12.3895 11.25 12.5 11.25C12.6105 11.25 12.7165 11.2939 12.7946 11.372C12.8728 11.4502 12.9167 11.5561 12.9167 11.6666V13.5266C13.6448 12.9267 14.1697 12.1165 14.4197 11.2069C14.6697 10.2972 14.6325 9.33256 14.3133 8.44485C13.994 7.55715 13.4083 6.78977 12.6362 6.24771C11.8641 5.70565 10.9434 5.41539 10 5.41665C9.88951 5.41665 9.78353 5.37275 9.70539 5.29461C9.62725 5.21647 9.58335 5.11049 9.58335 4.99998C9.58335 4.88947 9.62725 4.78349 9.70539 4.70535C9.78353 4.62721 9.88951 4.58331 10 4.58331C11.0626 4.58152 12.1021 4.89282 12.9888 5.47833C13.8756 6.06384 14.5701 6.89762 14.9858 7.87552C15.4014 8.85343 15.5197 9.93212 15.326 10.9769C15.1322 12.0216 14.6349 12.9862 13.8963 13.75H15Z" fill="#FFC107"/>
</g>
<defs>
<clipPath id="clip0_2741_1185">
<rect width="20" height="20" fill="white"/>
</clipPath>
</defs>
</svg>
