<svg width="15" height="15" viewBox="0 0 15 15" fill="none" xmlns="http://www.w3.org/2000/svg">
<path d="M7.5 0C3.35786 0 0 3.35786 0 7.5C0 11.6421 3.35786 15 7.5 15C11.6421 15 15 11.6421 15 7.5C14.9955 3.35971 11.6403 0.00448242 7.5 0ZM9.99999 9.11687C10.254 9.35063 10.2704 9.74602 10.0366 9.99999C9.80285 10.254 9.40746 10.2704 9.15349 10.0366C9.14077 10.0249 9.12858 10.0127 9.11687 9.99999L7.5 8.38374L5.88375 9.99999C5.63546 10.2398 5.2398 10.2329 5.00001 9.98461C4.7661 9.74241 4.7661 9.35845 5.00001 9.11625L6.61626 7.5L5.00001 5.88375C4.76022 5.63546 4.7671 5.2398 5.01539 5.00001C5.25759 4.7661 5.64155 4.7661 5.88375 5.00001L7.5 6.61626L9.11687 5.00001C9.35063 4.74604 9.74602 4.72963 9.99999 4.96339C10.254 5.19715 10.2704 5.59254 10.0366 5.84651C10.0249 5.85923 10.0127 5.87142 9.99999 5.88313L8.38374 7.5L9.99999 9.11687Z" fill="#D01400"/>
</svg>
