<svg width="15" height="20" viewBox="0 0 15 20" fill="none" xmlns="http://www.w3.org/2000/svg">
<path d="M10.8333 0.25C11.4215 0.451648 11.9567 0.783186 12.3992 1.22L13.7792 2.60167C14.2165 3.04358 14.5484 3.57855 14.75 4.16667H10.8333V0.25ZM15 5.83333V15.8333C14.9987 16.938 14.5593 17.997 13.7782 18.7782C12.997 19.5593 11.938 19.9987 10.8333 20H4.16667C3.062 19.9987 2.00296 19.5593 1.22185 18.7782C0.440735 17.997 0.00132321 16.938 0 15.8333V4.16667C0.00132321 3.062 0.440735 2.00296 1.22185 1.22185C2.00296 0.440735 3.062 0.00132321 4.16667 0L9.16667 0V4.16667C9.16667 4.60869 9.34226 5.03262 9.65482 5.34518C9.96738 5.65774 10.3913 5.83333 10.8333 5.83333H15ZM11.5067 14.5108C11.4424 14.4219 11.3611 14.3465 11.2676 14.289C11.1741 14.2315 11.0702 14.1931 10.9618 14.1759C10.8534 14.1587 10.7426 14.1631 10.6359 14.1888C10.5292 14.2146 10.4287 14.2611 10.34 14.3258C9.7801 14.7156 9.12608 14.9484 8.44583 15C8.17931 14.9927 7.92407 14.8908 7.72583 14.7125C7.29094 14.3674 6.75428 14.1755 6.19917 14.1667C5.27473 14.2536 4.39421 14.6022 3.66083 15.1717C3.56982 15.2365 3.49278 15.3191 3.43431 15.4143C3.37585 15.5096 3.33714 15.6157 3.32051 15.7262C3.30387 15.8367 3.30964 15.9495 3.33748 16.0577C3.36531 16.166 3.41464 16.2675 3.48252 16.3563C3.55041 16.4451 3.63547 16.5194 3.73263 16.5746C3.8298 16.6299 3.93709 16.665 4.04812 16.678C4.15914 16.6909 4.27164 16.6814 4.3789 16.6499C4.48617 16.6185 4.58602 16.5658 4.6725 16.495C5.11635 16.1474 5.64202 15.9195 6.19917 15.8333C6.40417 15.8333 6.50833 15.8983 6.7825 16.0833C7.25735 16.4584 7.84407 16.6637 8.44917 16.6667C9.48483 16.6193 10.4848 16.2741 11.3292 15.6725C11.5062 15.5416 11.6243 15.3459 11.6575 15.1283C11.6908 14.9106 11.6366 14.6886 11.5067 14.5108ZM11.6667 11.6667C11.6667 11.4457 11.5789 11.2337 11.4226 11.0774C11.2663 10.9211 11.0543 10.8333 10.8333 10.8333H4.16667C3.94565 10.8333 3.73369 10.9211 3.57741 11.0774C3.42113 11.2337 3.33333 11.4457 3.33333 11.6667C3.33333 11.8877 3.42113 12.0996 3.57741 12.2559C3.73369 12.4122 3.94565 12.5 4.16667 12.5H10.8333C11.0543 12.5 11.2663 12.4122 11.4226 12.2559C11.5789 12.0996 11.6667 11.8877 11.6667 11.6667ZM11.6667 8.33333C11.6667 8.11232 11.5789 7.90036 11.4226 7.74408C11.2663 7.5878 11.0543 7.5 10.8333 7.5H4.16667C3.94565 7.5 3.73369 7.5878 3.57741 7.74408C3.42113 7.90036 3.33333 8.11232 3.33333 8.33333C3.33333 8.55435 3.42113 8.76631 3.57741 8.92259C3.73369 9.07887 3.94565 9.16667 4.16667 9.16667H10.8333C11.0543 9.16667 11.2663 9.07887 11.4226 8.92259C11.5789 8.76631 11.6667 8.55435 11.6667 8.33333Z" fill="white"/>
</svg>
