<svg width="15" height="15" viewBox="0 0 15 15" fill="none" xmlns="http://www.w3.org/2000/svg">
<g clip-path="url(#clip0_2782_1606)">
<path d="M7.50001 10C8.19038 10 8.75003 9.44037 8.75003 8.75001C8.75003 8.05965 8.19038 7.5 7.50001 7.5C6.80965 7.5 6.25 8.05965 6.25 8.75001C6.25 9.44037 6.80965 10 7.50001 10Z" fill="white"/>
<path d="M14.085 2.57625L12.4237 0.915C12.2575 0.751377 12.0734 0.606943 11.875 0.484365V1.875C11.8729 3.60003 10.475 4.99793 8.74998 5.00001H6.24999C4.52496 4.99793 3.12706 3.60003 3.12501 1.875V0C1.39998 0.00208008 0.00208008 1.39998 0 3.12501V11.875C0.00208008 13.6 1.39998 14.9979 3.12501 15H11.875C13.6 14.9979 14.9979 13.6 15 11.875V4.78564C15.0023 3.95651 14.6728 3.16093 14.085 2.57625ZM7.5 11.25C6.1193 11.25 5.00001 10.1307 5.00001 8.75001C5.00001 7.36931 6.1193 6.25002 7.5 6.25002C8.8807 6.25002 9.99999 7.36931 9.99999 8.75001C9.99999 10.1307 8.8807 11.25 7.5 11.25Z" fill="white"/>
<path d="M6.25 3.75003H8.74998C9.78551 3.75003 10.625 2.91056 10.625 1.87503V0.0400513C10.4891 0.0179028 10.3519 0.00454346 10.2144 6.10352e-05H4.375V1.87506C4.375 2.91056 5.21447 3.75003 6.25 3.75003Z" fill="white"/>
</g>
<defs>
<clipPath id="clip0_2782_1606">
<rect width="15" height="15" fill="white"/>
</clipPath>
</defs>
</svg>
