<svg width="15" height="15" viewBox="0 0 15 15" fill="none" xmlns="http://www.w3.org/2000/svg">
<path d="M6.22949 6.85486C7.6102 6.85486 8.72949 5.73557 8.72949 4.35486C8.72949 2.97415 7.6102 1.85486 6.22949 1.85486C4.84878 1.85486 3.72949 2.97415 3.72949 4.35486C3.72949 5.73557 4.84878 6.85486 6.22949 6.85486Z" fill="#7A7D8B"/>
<path d="M14.7986 13.9111L11.0736 10.1861C12.0858 8.94628 12.5829 7.3649 12.4621 5.76892C12.3413 4.17295 11.6118 2.68441 10.4245 1.61108C9.23719 0.53774 7.68284 -0.038325 6.0828 0.00198096C4.48277 0.042287 2.95939 0.695882 1.82764 1.82764C0.695882 2.95939 0.042287 4.48276 0.00198096 6.0828C-0.038325 7.68284 0.53774 9.23719 1.61108 10.4245C2.68441 11.6118 4.17295 12.3413 5.76892 12.4621C7.3649 12.5829 8.94628 12.0858 10.1861 11.0736L13.9111 14.7986C14.0296 14.9148 14.1889 14.9799 14.3549 14.9799C14.5208 14.9799 14.6801 14.9148 14.7986 14.7986C14.9157 14.6806 14.9814 14.5211 14.9814 14.3549C14.9814 14.1886 14.9157 14.0291 14.7986 13.9111ZM6.22987 7.47987C5.4844 7.47894 4.75583 7.70184 4.13849 8.11971C3.52115 8.53759 3.04349 9.13118 2.76737 9.82362C2.28049 9.3604 1.89306 8.80286 1.62873 8.185C1.36439 7.56713 1.22868 6.9019 1.22987 6.22987C1.22846 5.407 1.43017 4.5965 1.81709 3.87027C2.20401 3.14404 2.76419 2.52453 3.44794 2.06669C4.13168 1.60886 4.91785 1.32685 5.73671 1.24569C6.55557 1.16453 7.38181 1.28673 8.14212 1.60144C8.90244 1.91615 9.57333 2.41364 10.0953 3.04979C10.6172 3.68594 10.9741 4.44107 11.1343 5.24821C11.2944 6.05535 11.2529 6.88954 11.0133 7.67678C10.7738 8.46401 10.3437 9.17997 9.76112 9.76112C9.73979 9.78364 9.71681 9.80453 9.69237 9.82362C9.41625 9.13118 8.93859 8.53759 8.32125 8.11971C7.70392 7.70184 6.97534 7.47894 6.22987 7.47987Z" fill="#7A7D8B"/>
</svg>
