<svg width="15" height="15" viewBox="0 0 15 15" fill="none" xmlns="http://www.w3.org/2000/svg">
<g clip-path="url(#clip0_2782_2326)">
<path d="M14.1793 14.6484H7.38803C7.08094 14.6484 6.80203 14.4861 6.66015 14.2247C6.52471 13.9751 6.53663 13.6834 6.69202 13.4442L10.087 8.22471C10.2381 7.9928 10.4985 7.85443 10.7837 7.85443C11.0688 7.85443 11.3292 7.9928 11.4802 8.22454L14.8752 13.4442C15.0307 13.6834 15.0426 13.9751 14.9072 14.2247C14.7653 14.4861 14.4864 14.6484 14.1793 14.6484ZM10.7837 8.32301C10.6575 8.32301 10.5439 8.38183 10.4797 8.48039L7.08484 13.6997C7.02372 13.7937 7.01901 13.9037 7.07194 14.0012C7.13268 14.1131 7.25083 14.1799 7.388 14.1799H14.1792C14.3164 14.1799 14.4346 14.1131 14.4953 14.0012C14.5482 13.9036 14.5435 13.7937 14.4824 13.6996L11.0875 8.48021C11.0234 8.38183 10.9098 8.32301 10.7837 8.32301Z" fill="white"/>
<path d="M10.7812 12.6571C10.6518 12.6571 10.5469 12.5522 10.5469 12.4228V10.1972C10.5469 10.0678 10.6518 9.96289 10.7812 9.96289C10.9106 9.96289 11.0154 10.0678 11.0154 10.1972V12.4228C11.0154 12.5522 10.9105 12.6571 10.7812 12.6571Z" fill="white"/>
<path d="M10.7812 13.7113C10.6518 13.7113 10.5469 13.6064 10.5469 13.477V13.3599C10.5469 13.2305 10.6518 13.1256 10.7812 13.1256C10.9106 13.1256 11.0154 13.2305 11.0154 13.3599V13.477C11.0154 13.6064 10.9105 13.7113 10.7812 13.7113Z" fill="white"/>
<path d="M6.80007 11.6089H4.45731C4.32457 11.6089 4.21696 11.5013 4.21696 11.3686V10.7006C3.89464 10.6041 3.58386 10.4752 3.28925 10.316L2.81634 10.7889C2.72247 10.8827 2.57027 10.8827 2.47641 10.7889L0.820078 9.13254C0.726211 9.03867 0.726211 8.88647 0.820078 8.79261L1.29299 8.3197C1.13373 8.02506 1.00488 7.71431 0.90835 7.39195H0.240352C0.107607 7.39195 0 7.28435 0 7.1516V4.80885C0 4.6761 0.107607 4.5685 0.240352 4.5685H0.90835C1.00488 4.24617 1.1337 3.93539 1.29299 3.64075L0.820078 3.16787C0.726211 3.074 0.726211 2.92181 0.820078 2.82794L2.47641 1.17161C2.57027 1.07774 2.72247 1.07774 2.81634 1.17161L3.28925 1.64452C3.58389 1.48526 3.89464 1.35642 4.21699 1.25988V0.591914C4.21699 0.45917 4.3246 0.351562 4.45734 0.351562H6.8001C6.93284 0.351562 7.04045 0.45917 7.04045 0.591914V1.25991C7.36277 1.35645 7.67355 1.48526 7.96819 1.64455L8.4411 1.17164C8.53497 1.07777 8.68717 1.07777 8.78104 1.17164L10.4374 2.82797C10.5312 2.92184 10.5312 3.07403 10.4374 3.1679L9.96445 3.64081C10.1237 3.93545 10.2526 4.2462 10.3491 4.56853H11.0171C11.1498 4.56853 11.2574 4.67613 11.2574 4.80888V7.15163C11.2574 7.28437 11.1498 7.39198 11.0171 7.39198H10.3492C10.316 7.50243 10.2788 7.61209 10.2378 7.71973C10.1906 7.8438 10.0517 7.90608 9.92768 7.85886C9.80361 7.81163 9.74133 7.67276 9.78855 7.54872C9.84542 7.39934 9.89432 7.24559 9.93387 7.09175C9.96117 6.98552 10.057 6.91125 10.1667 6.91125H10.7767V5.04923H10.1667C10.0571 5.04923 9.96141 4.97517 9.93398 4.86911C9.82936 4.46499 9.66937 4.07915 9.45841 3.72234C9.40257 3.62789 9.41777 3.50763 9.49535 3.43005L9.92748 2.99792L8.61108 1.68152L8.17896 2.11365C8.10138 2.19123 7.98111 2.20644 7.88666 2.1506C7.52982 1.93963 7.14398 1.77964 6.73989 1.67502C6.63384 1.64757 6.55978 1.55188 6.55978 1.44231V0.832266H4.69775V1.44231C4.69775 1.55186 4.62369 1.64754 4.51764 1.67502C4.11352 1.77964 3.72771 1.93963 3.37087 2.1506C3.27642 2.20644 3.15615 2.19123 3.07857 2.11365L2.64645 1.68152L1.33005 2.99792L1.76218 3.43005C1.83976 3.50763 1.85496 3.62789 1.79912 3.72234C1.58815 4.07918 1.42816 4.46502 1.32354 4.86911C1.29609 4.97517 1.20041 5.04923 1.09084 5.04923H0.480732V6.91125H1.09081C1.20035 6.91125 1.29604 6.98531 1.32352 7.09137C1.42813 7.49549 1.58812 7.8813 1.79909 8.23813C1.85493 8.33259 1.83973 8.45285 1.76215 8.53043L1.33002 8.96256L2.64642 10.279L3.07854 9.84683C3.15612 9.76925 3.27639 9.75404 3.37084 9.80988C3.72768 10.0208 4.11349 10.1808 4.51761 10.2855C4.62366 10.3129 4.69772 10.4086 4.69772 10.5181V11.1282H6.55975V10.5182C6.55975 10.4086 6.63381 10.3129 6.73986 10.2855C7.14398 10.1809 7.52982 10.0209 7.88666 9.80991C7.98108 9.75407 8.10138 9.76928 8.17896 9.84686L8.39215 10.06C8.48602 10.1539 8.48602 10.3061 8.39215 10.4C8.29828 10.4938 8.14608 10.4938 8.05222 10.4L7.96822 10.316C7.67358 10.4752 7.36283 10.6041 7.04048 10.7006V11.3686C7.04045 11.5013 6.93281 11.6089 6.80007 11.6089Z" fill="white"/>
<path d="M5.62992 8.68053C5.2655 8.68053 4.91186 8.6091 4.57878 8.46824C4.25722 8.33222 3.96847 8.13757 3.72056 7.88966C3.47265 7.64175 3.27797 7.353 3.14197 7.03141C3.00111 6.69836 2.92969 6.34469 2.92969 5.98026C2.92969 5.61584 3.00111 5.2622 3.14197 4.92912C3.278 4.60756 3.47265 4.31881 3.72056 4.0709C3.96847 3.82299 4.25722 3.62831 4.57878 3.49231C4.91183 3.35146 5.2655 3.28003 5.62992 3.28003C5.99435 3.28003 6.34799 3.35146 6.68106 3.49231C7.00263 3.62834 7.29138 3.82299 7.53929 4.0709C7.7872 4.31881 7.98185 4.60756 8.11787 4.92912C8.25873 5.26217 8.33016 5.61584 8.33016 5.98026C8.33016 6.34469 8.25873 6.69833 8.11787 7.03141C7.98185 7.35297 7.7872 7.64172 7.53929 7.88966C7.29138 8.13757 7.00263 8.33222 6.68106 8.46824C6.34802 8.6091 5.99435 8.68053 5.62992 8.68053ZM5.62992 3.76073C4.40607 3.76073 3.41039 4.75642 3.41039 5.98026C3.41039 7.20411 4.40607 8.19979 5.62992 8.19979C6.85377 8.19979 7.84945 7.20411 7.84945 5.98026C7.84945 4.75642 6.8538 3.76073 5.62992 3.76073Z" fill="white"/>
</g>
<defs>
<clipPath id="clip0_2782_2326">
<rect width="15" height="15" fill="white"/>
</clipPath>
</defs>
</svg>
