<svg width="52" height="29" viewBox="0 0 52 29" fill="none" xmlns="http://www.w3.org/2000/svg">
<path d="M35.0569 0H0V19.1912H35.0569V0Z" fill="black"/>
<path d="M51.3732 13.7243L47.7693 5.87988H36.6293V20.6371H23.7815H11.8008H4.23242V23.992H7.8367C7.80789 24.1827 7.78802 24.3762 7.78802 24.5746C7.78802 26.7491 9.58458 28.5119 11.8009 28.5119C14.0172 28.5119 15.8138 26.749 15.8138 24.5746C15.8138 24.3762 15.7939 24.1827 15.7651 23.992H19.8176C19.7888 24.1827 19.7689 24.3762 19.7689 24.5746C19.7689 26.7491 21.5655 28.5119 23.7818 28.5119C25.9979 28.5119 27.7946 26.749 27.7946 24.5746C27.7946 24.3762 27.7749 24.1827 27.746 23.992H36.6298H37.4179C37.3891 24.1827 37.3692 24.3762 37.3692 24.5746C37.3692 26.7491 39.1658 28.5119 41.3821 28.5119C43.5982 28.5119 45.3949 26.749 45.3949 24.5746C45.3949 24.3762 45.3752 24.1827 45.3463 23.992H51.3732V13.7243ZM11.8008 26.1157C10.9333 26.1157 10.23 25.4257 10.23 24.5746C10.23 24.3682 10.2721 24.1719 10.3469 23.992C10.5811 23.4297 11.1434 23.0332 11.8007 23.0332C12.458 23.0332 13.0202 23.4297 13.2545 23.992C13.3293 24.1719 13.3713 24.3682 13.3713 24.5746C13.3715 25.4257 12.6683 26.1157 11.8008 26.1157ZM23.7815 26.1157C22.914 26.1157 22.2107 25.4257 22.2107 24.5746C22.2107 24.3682 22.2527 24.1719 22.3275 23.992C22.5618 23.4297 23.124 23.0332 23.7813 23.0332C24.4387 23.0332 25.0009 23.4297 25.235 23.992C25.31 24.1719 25.352 24.3682 25.352 24.5746C25.3521 25.4257 24.649 26.1157 23.7815 26.1157ZM41.3815 26.1157C40.514 26.1157 39.8107 25.4257 39.8107 24.5746C39.8107 24.3682 39.8528 24.1719 39.9276 23.992C40.1618 23.4297 40.7241 23.0332 41.3814 23.0332C42.0387 23.0332 42.601 23.4297 42.8351 23.992C42.91 24.1719 42.9521 24.3682 42.9521 24.5746C42.9523 25.4257 42.2491 26.1157 41.3815 26.1157ZM39.2817 13.5767C39.2215 13.5767 39.1727 13.5292 39.1727 13.4706V8.17092C39.1727 8.11231 39.2213 8.06481 39.2817 8.06481H46.1394C46.284 8.06481 46.4148 8.14812 46.4727 8.27714L48.8518 13.5767H39.2817Z" fill="black"/>
</svg>
