<svg width="50" height="50" viewBox="0 0 50 50" fill="none" xmlns="http://www.w3.org/2000/svg">
<g clip-path="url(#clip0_3318_1048)">
<path d="M44.5972 50H5.40276C2.41895 50 0 47.5811 0 44.5972V5.40276C0 2.41895 2.41895 0 5.40276 0H44.5972C47.5811 0 50 2.41885 50 5.40276V44.5972C50 47.5811 47.5811 50 44.5972 50Z" fill="black"/>
<path d="M11.8285 21.0778V25.5009C11.8285 26.9777 11.1746 27.591 9.64129 27.591C8.10763 27.591 7.45381 26.9777 7.45381 25.5009V20.884H5.97702C5.84768 20.884 5.7832 20.9488 5.7832 21.0778V25.5734C5.7832 28.0431 7.35705 28.9066 9.64129 28.9066C11.9251 28.9066 13.499 28.0431 13.499 25.5734V20.884H12.0222C11.8929 20.884 11.8285 20.9489 11.8285 21.0778Z" fill="white"/>
<path d="M33.2393 22.1674C33.3603 22.1674 33.4167 22.1272 33.4574 22.0385L33.8852 20.9811C33.9095 20.9166 33.8852 20.884 33.8204 20.884H27.8719C27.3152 20.884 27.1055 21.0535 27.1055 21.4327V28.3013C27.1055 28.6244 27.2666 28.7697 27.6948 28.7697H33.2394C33.3604 28.7697 33.4168 28.7291 33.4575 28.6403L33.8853 27.583C33.9096 27.5185 33.8853 27.4863 33.8205 27.4863H28.7439V26.0899C28.7439 25.6056 29.0102 25.3875 29.7284 25.3875H31.9319C32.0532 25.3875 32.1093 25.3473 32.15 25.2585L32.5614 24.2414C32.5857 24.1769 32.5614 24.1447 32.4969 24.1447H28.7439V22.1674H33.2393Z" fill="white"/>
<path d="M22.7677 24.613C23.4131 24.274 23.6798 23.6364 23.6798 22.8859C23.6798 21.1426 22.2591 20.8843 20.7903 20.8843H17.4328C16.8756 20.8843 16.666 21.0538 16.666 21.4331V28.3016C16.666 28.6243 16.8272 28.7696 17.2554 28.7696H21.3876C22.9452 28.7696 24.059 28.1643 24.059 26.5904C24.059 25.6461 23.6556 24.8469 22.7677 24.613ZM18.3036 22.1513H20.9113C21.7833 22.1513 22.0252 22.4799 22.0252 23.16C22.0252 23.8407 21.7833 24.1692 20.9113 24.1692H18.3036V22.1513ZM21.2181 27.5025H18.3036V26.0575C18.3036 25.5736 18.5701 25.3556 19.2884 25.3556H21.2181C22.1461 25.3556 22.4044 25.711 22.4044 26.4373C22.4044 27.1635 22.1461 27.5025 21.2181 27.5025Z" fill="white"/>
<path d="M44.1963 28.6324L42.4287 25.5977C43.3086 25.3717 44.0188 24.7906 44.0188 23.3135C44.0188 21.4009 42.8321 20.884 40.8711 20.884H37.4973C36.9402 20.884 36.7305 21.0535 36.7305 21.4331V28.5759C36.7305 28.7048 36.7949 28.7697 36.9243 28.7697H38.3689V26.4695C38.3689 25.9852 38.6351 25.7671 39.3539 25.7671H40.8064L42.4045 28.6403C42.4531 28.7211 42.5012 28.7697 42.6226 28.7697H44.1236C44.2285 28.7697 44.2285 28.6809 44.1963 28.6324ZM41.113 24.5403H38.3688V22.1515H41.113C42.1381 22.1515 42.3641 22.5471 42.3641 23.3457C42.3641 24.1531 42.1381 24.5403 41.113 24.5403Z" fill="white"/>
</g>
<defs>
<clipPath id="clip0_3318_1048">
<rect width="50" height="50" fill="white"/>
</clipPath>
</defs>
</svg>
