<svg width="20" height="20" viewBox="0 0 20 20" fill="none" xmlns="http://www.w3.org/2000/svg">
<g clip-path="url(#clip0_3891_217)">
<path d="M19.9952 10C19.9952 15.5205 15.52 19.9957 9.99958 19.9957C4.47912 19.9957 0.00390625 15.5205 0.00390625 10C0.00390625 4.47955 4.47912 0.0043335 9.99958 0.0043335C15.52 0.0043335 19.9952 4.47955 19.9952 10Z" fill="#D01400"/>
<path fill-rule="evenodd" clip-rule="evenodd" d="M10.1503 2.33527L3.94362 8.54196C3.42504 9.06054 3.42504 9.90897 3.94362 10.4276C4.46221 10.9461 5.31063 10.9461 5.82922 10.4276L12.0359 4.22086L10.1503 2.33527Z" fill="white"/>
<path fill-rule="evenodd" clip-rule="evenodd" d="M10.1512 2.33533L16.3579 8.54202C16.8765 9.0606 16.8765 9.90903 16.3579 10.4276C15.8393 10.9462 14.9909 10.9462 14.4723 10.4276L8.26562 4.22092L10.1512 2.33533Z" fill="white"/>
<path fill-rule="evenodd" clip-rule="evenodd" d="M8.81641 5.0141V16.3665C8.81641 17.0998 9.41633 17.6998 10.1497 17.6998C10.8831 17.6998 11.483 17.0998 11.483 16.3665V5.0141H8.81641Z" fill="white"/>
</g>
<defs>
<clipPath id="clip0_3891_217">
<rect width="20" height="20" fill="white"/>
</clipPath>
</defs>
</svg>
