<svg width="17" height="16" viewBox="0 0 17 16" fill="none" xmlns="http://www.w3.org/2000/svg">
<g clip-path="url(#clip0_2728_1360)">
<path d="M8.65096 7.70728C9.73886 7.70728 10.6809 7.32751 11.4506 6.57825C12.2203 5.8291 12.6105 4.91248 12.6105 3.85352C12.6105 2.79492 12.2203 1.87817 11.4505 1.12878C10.6806 0.379761 9.73873 0 8.65096 0C7.56293 0 6.62114 0.379761 5.85143 1.12891C5.08172 1.87805 4.69141 2.7948 4.69141 3.85352C4.69141 4.91248 5.08172 5.82922 5.85155 6.57837C6.62139 7.32739 7.5633 7.70728 8.65096 7.70728Z" fill="#005EEC"/>
<path d="M15.5795 12.3032C15.5573 11.9915 15.5124 11.6514 15.4463 11.2922C15.3796 10.9304 15.2937 10.5884 15.1909 10.2758C15.0846 9.95264 14.9401 9.63354 14.7615 9.32776C14.5762 9.01038 14.3584 8.73401 14.1141 8.50659C13.8586 8.26868 13.5458 8.07739 13.1841 7.93787C12.8237 7.79907 12.4242 7.72876 11.9969 7.72876C11.8291 7.72876 11.6668 7.79578 11.3533 7.99438C11.1604 8.11682 10.9348 8.25842 10.683 8.41504C10.4676 8.54858 10.1759 8.67371 9.81556 8.78699C9.464 8.89771 9.10705 8.95386 8.75474 8.95386C8.40244 8.95386 8.04561 8.89771 7.69368 8.78699C7.33372 8.67383 7.04199 8.54871 6.82689 8.41516C6.57743 8.26001 6.35167 8.11841 6.15589 7.99426C5.84284 7.79565 5.68042 7.72864 5.5126 7.72864C5.08517 7.72864 4.68583 7.79907 4.32549 7.93799C3.96403 8.07727 3.6511 8.26855 3.39537 8.50671C3.15117 8.73425 2.93332 9.0105 2.74819 9.32776C2.56972 9.63354 2.42523 9.95251 2.31888 10.2759C2.21616 10.5885 2.13024 10.9304 2.06352 11.2922C1.99742 11.6509 1.95252 11.9911 1.93032 12.3036C1.9085 12.6097 1.89746 12.9275 1.89746 13.2484C1.89746 14.0836 2.17025 14.7598 2.70818 15.2584C3.23947 15.7505 3.94245 16.0001 4.79733 16.0001H12.7129C13.5678 16.0001 14.2705 15.7506 14.8019 15.2584C15.34 14.7601 15.6128 14.0839 15.6128 13.2483C15.6127 12.9259 15.6015 12.6079 15.5795 12.3032Z" fill="#005EEC"/>
</g>
<defs>
<clipPath id="clip0_2728_1360">
<rect width="16.4392" height="16.0001" fill="white" transform="translate(0.548828)"/>
</clipPath>
</defs>
</svg>
