<svg width="15" height="20" viewBox="0 0 15 20" fill="none" xmlns="http://www.w3.org/2000/svg">
<path d="M13.3333 2.51833C13.3333 2.51167 13.3333 2.50667 13.3333 2.5V0.833333C13.3333 0.61232 13.2455 0.400358 13.0893 0.244078C12.933 0.0877974 12.721 0 12.5 0C12.279 0 12.067 0.0877974 11.9107 0.244078C11.7545 0.400358 11.6667 0.61232 11.6667 0.833333V1.75C11.3924 1.69431 11.1132 1.66639 10.8333 1.66667H10V0.833333C10 0.61232 9.9122 0.400358 9.75592 0.244078C9.59964 0.0877974 9.38768 0 9.16667 0C8.94565 0 8.73369 0.0877974 8.57741 0.244078C8.42113 0.400358 8.33333 0.61232 8.33333 0.833333V1.66667H6.66667V0.833333C6.66667 0.61232 6.57887 0.400358 6.42259 0.244078C6.26631 0.0877974 6.05435 0 5.83333 0C5.61232 0 5.40036 0.0877974 5.24408 0.244078C5.0878 0.400358 5 0.61232 5 0.833333V1.66667H4.16667C3.8868 1.66639 3.60761 1.69431 3.33333 1.75V0.833333C3.33333 0.61232 3.24554 0.400358 3.08926 0.244078C2.93298 0.0877974 2.72101 0 2.5 0C2.27899 0 2.06702 0.0877974 1.91074 0.244078C1.75446 0.400358 1.66667 0.61232 1.66667 0.833333V2.5V2.51833C1.15065 2.90364 0.731415 3.40378 0.442138 3.97915C0.15286 4.55453 0.00148694 5.18934 0 5.83333V15.8333C0.00132321 16.938 0.440735 17.997 1.22185 18.7781C2.00296 19.5593 3.062 19.9987 4.16667 20H10.8333C11.938 19.9987 12.997 19.5593 13.7782 18.7781C14.5593 17.997 14.9987 16.938 15 15.8333V5.83333C14.9985 5.18934 14.8471 4.55453 14.5579 3.97915C14.2686 3.40378 13.8493 2.90364 13.3333 2.51833ZM7.5 14.1667H4.16667C3.94565 14.1667 3.73369 14.0789 3.57741 13.9226C3.42113 13.7663 3.33333 13.5543 3.33333 13.3333C3.33333 13.1123 3.42113 12.9004 3.57741 12.7441C3.73369 12.5878 3.94565 12.5 4.16667 12.5H7.5C7.72101 12.5 7.93297 12.5878 8.08926 12.7441C8.24554 12.9004 8.33333 13.1123 8.33333 13.3333C8.33333 13.5543 8.24554 13.7663 8.08926 13.9226C7.93297 14.0789 7.72101 14.1667 7.5 14.1667ZM10.8333 10.8333H4.16667C3.94565 10.8333 3.73369 10.7455 3.57741 10.5893C3.42113 10.433 3.33333 10.221 3.33333 10C3.33333 9.77899 3.42113 9.56702 3.57741 9.41074C3.73369 9.25446 3.94565 9.16667 4.16667 9.16667H10.8333C11.0543 9.16667 11.2663 9.25446 11.4226 9.41074C11.5789 9.56702 11.6667 9.77899 11.6667 10C11.6667 10.221 11.5789 10.433 11.4226 10.5893C11.2663 10.7455 11.0543 10.8333 10.8333 10.8333ZM10.8333 7.5H4.16667C3.94565 7.5 3.73369 7.4122 3.57741 7.25592C3.42113 7.09964 3.33333 6.88768 3.33333 6.66667C3.33333 6.44565 3.42113 6.23369 3.57741 6.07741C3.73369 5.92113 3.94565 5.83333 4.16667 5.83333H10.8333C11.0543 5.83333 11.2663 5.92113 11.4226 6.07741C11.5789 6.23369 11.6667 6.44565 11.6667 6.66667C11.6667 6.88768 11.5789 7.09964 11.4226 7.25592C11.2663 7.4122 11.0543 7.5 10.8333 7.5Z" fill="#374957"/>
</svg>
