<svg width="10" height="6" viewBox="0 0 10 6" fill="none" xmlns="http://www.w3.org/2000/svg">
<path d="M9.10071 0.2748C9.01364 0.187681 8.91027 0.118572 8.79648 0.0714204C8.6827 0.024269 8.56074 0 8.43758 0C8.31441 0 8.19246 0.024269 8.07867 0.0714204C7.96489 0.118572 7.86152 0.187681 7.77445 0.2748L4.9082 3.14043C4.8496 3.19901 4.77013 3.23192 4.68727 3.23192C4.6044 3.23192 4.52493 3.19901 4.46633 3.14043L1.6007 0.2748C1.42492 0.0989281 1.18646 9.13858e-05 0.9378 3.27826e-05C0.689139 -2.58207e-05 0.450638 0.0986984 0.274767 0.274487C0.098895 0.450276 5.8633e-05 0.68873 2.60788e-08 0.937391C-5.85809e-05 1.18605 0.0986656 1.42455 0.274454 1.60043L3.1407 4.46668C3.34384 4.66983 3.58499 4.83098 3.85041 4.94092C4.11582 5.05087 4.40029 5.10746 4.68758 5.10746C4.97486 5.10746 5.25934 5.05087 5.52475 4.94092C5.79017 4.83098 6.03132 4.66983 6.23445 4.46668L9.10071 1.60043C9.27646 1.42462 9.37519 1.1862 9.37519 0.937612C9.37519 0.689021 9.27646 0.450607 9.10071 0.2748Z" fill="white"/>
</svg>
