<svg width="55" height="22" viewBox="0 0 55 22" fill="none" xmlns="http://www.w3.org/2000/svg">
<path d="M46.2057 12.6273C48.6051 12.6273 50.5508 14.5713 50.5508 16.9718C50.5508 17.1577 50.5358 17.3392 50.5124 17.5184C50.2435 19.6601 48.4197 21.3174 46.2057 21.3174C43.9305 21.3174 42.0672 19.5682 41.8785 17.342C41.8685 17.2189 41.8596 17.097 41.8596 16.9706C41.859 14.5718 43.8047 12.6273 46.2057 12.6273ZM48.3819 15.3345L47.4951 16.2213C47.5641 16.3399 47.6181 16.4668 47.6526 16.6038H48.9024C48.8373 16.1295 48.6552 15.698 48.3819 15.3345ZM48.9063 17.3553H47.6481C47.6125 17.4884 47.5602 17.6164 47.4912 17.7322L48.3796 18.6201C48.6535 18.2588 48.84 17.8263 48.9063 17.3553ZM46.5809 19.6717C47.0514 19.6066 47.4795 19.4223 47.8413 19.149L46.9578 18.2655C46.842 18.3334 46.714 18.383 46.5809 18.4175V19.6717ZM46.5809 15.5266C46.7179 15.5611 46.8459 15.6162 46.9651 15.6869L47.8502 14.8012C47.4867 14.5251 47.0547 14.3419 46.5809 14.2762V15.5266ZM45.8283 14.2762C45.354 14.3419 44.9225 14.5251 44.559 14.8017L45.4442 15.6869C45.5633 15.6162 45.6913 15.5611 45.8283 15.5266V14.2762ZM45.8283 19.6712V18.4175C45.6947 18.3824 45.5678 18.3329 45.4514 18.2644L44.5674 19.149C44.9298 19.4207 45.3584 19.6055 45.8283 19.6712ZM44.0279 18.6235L44.9192 17.7311C44.8502 17.6147 44.7928 17.4895 44.7572 17.3548H43.5085C43.5753 17.8263 43.754 18.2616 44.0279 18.6235ZM44.7572 16.6027C44.7923 16.4668 44.8457 16.3388 44.9147 16.2202L44.0279 15.3334C43.7535 15.6969 43.5725 16.1289 43.5074 16.6015L44.7572 16.6027Z" fill="#18567F"/>
<path d="M9.62761 12.6273C12.027 12.6273 13.9727 14.5713 13.9727 16.9718C13.9727 17.1577 13.9576 17.3392 13.9342 17.5184C13.6659 19.6601 11.8416 21.3174 9.62816 21.3174C7.35293 21.3174 5.48909 19.5682 5.30093 17.342C5.29091 17.2189 5.282 17.097 5.282 16.9706C5.28089 14.5718 7.22656 12.6273 9.62761 12.6273ZM11.8043 15.3345L10.9169 16.2213C10.986 16.3399 11.0405 16.4668 11.0745 16.6038H12.3243C12.2591 16.1295 12.0776 15.698 11.8043 15.3345ZM12.3282 17.3553H11.07C11.0344 17.4884 10.9821 17.6164 10.913 17.7322L11.8015 18.6196C12.0749 18.2588 12.2619 17.8263 12.3282 17.3553ZM10.0028 19.6717C10.4732 19.6066 10.9013 19.4223 11.2632 19.149L10.3797 18.2655C10.2639 18.3334 10.1359 18.383 10.0028 18.4175V19.6717ZM10.0028 15.5266C10.1398 15.5611 10.2678 15.6162 10.3864 15.6869L11.2721 14.8012C10.9086 14.5251 10.476 14.3419 10.0028 14.2762V15.5266ZM9.25072 14.2762C8.77641 14.3419 8.34497 14.5251 7.982 14.8017L8.86715 15.6869C8.98629 15.6162 9.11433 15.5611 9.25072 15.5266V14.2762ZM9.25072 19.6712V18.4175C9.11767 18.3824 8.99018 18.3329 8.87383 18.2644L7.98979 19.149C8.35221 19.4207 8.77975 19.6055 9.25072 19.6712ZM7.45035 18.6235L8.34163 17.7311C8.2726 17.6147 8.21526 17.4895 8.17963 17.3548H6.93095C6.99775 17.8263 7.17534 18.2616 7.45035 18.6235ZM8.17851 16.6027C8.21359 16.4668 8.26703 16.3388 8.33606 16.2202L7.44924 15.3334C7.17478 15.6969 6.99386 16.1289 6.92817 16.6015L8.17851 16.6027Z" fill="#18567F"/>
<path d="M0.37431 11.245L1.20936 10.4472L1.20769 7.93037C1.20713 7.26957 1.45153 6.6327 1.8941 6.14281L4.98101 2.72411V2.72244C4.99604 2.01209 5.50598 1.41196 6.20408 1.28114C9.8744 0.591388 21.2623 -1.19173 30.2758 1.22992C35.8445 2.72578 41.5061 5.73697 41.5061 5.73697C41.5061 5.73697 51.3375 6.98955 53.6934 10.0603C54.514 11.1292 54.858 12.5332 54.9827 13.798C55.157 15.5655 53.9946 17.1794 52.2627 17.5696L51.3536 17.7745C51.3614 17.725 51.3731 17.6765 51.3792 17.6253C51.4093 17.3937 51.4243 17.1777 51.4243 16.9701C51.4243 14.0925 49.0828 11.7516 46.2052 11.7516C43.3271 11.7516 40.9856 14.0925 40.9856 16.9701C40.9856 17.1209 40.9956 17.2668 41.0079 17.4143C41.0229 17.5919 41.048 17.7667 41.0808 17.9382L14.7361 17.9916C14.76 17.8703 14.784 17.7495 14.7995 17.6253C14.8296 17.3937 14.8446 17.1777 14.8446 16.9701C14.8446 14.0925 12.5031 11.7516 9.62556 11.7516C6.74742 11.7516 4.40593 14.0925 4.40593 16.9701C4.40593 17.1209 4.41595 17.2668 4.4282 17.4143C4.4449 17.6175 4.47831 17.8168 4.51839 18.0122L4.15876 18.0128L2.66013 17.1916C1.09691 16.336 0.0981865 14.721 0.0308266 12.9407L0.000766754 12.1619C-0.0114822 11.8178 0.123795 11.4849 0.37431 11.245ZM36.3271 6.09103L35.9241 4.4805C35.9241 4.4805 29.8221 1.28838 19.6094 1.63576V6.39499L35.9658 7.68542C35.9658 7.68542 35.8779 6.66443 36.3271 6.09103ZM10.1188 5.64679L17.8096 6.25359V1.73596C15.2805 1.91967 12.5321 2.31883 9.58214 3.0314C9.28375 3.10322 9.04436 3.32479 8.94917 3.6165C8.85342 3.90821 8.91577 4.22887 9.11451 4.46268L10.1188 5.64679Z" fill="#18567F"/>
</svg>
